<svg width="1000" height="144" viewBox="0 0 1000 144" fill="none" xmlns="http://www.w3.org/2000/svg">
<path d="M571.007 23.3794V0L551.525 0.0865658C540.731 0.173153 530.991 0.346349 529.762 0.519535C505.893 3.89656 491.764 10.3909 479.127 23.5526C466.754 36.5412 460.435 52.9068 460.435 71.8701C460.435 104.342 479.566 129.972 511.333 140.103C520.635 143.134 527.305 143.74 549.77 143.74H571.007V121.4L548.893 121.054C530.903 120.707 525.813 120.361 521.864 119.062C505.454 113.867 495.011 103.995 489.745 88.5821C487.815 83.0403 487.376 80.2694 487.376 72.736C487.376 57.929 491.676 46.9321 501.241 37.4937C507.472 31.3458 518.003 25.7174 526.164 24.2453C528.709 23.8124 539.942 23.3794 550.911 23.3794H571.007Z" fill="url(#paint0_linear_72_1600)"/>
<path d="M138.521 15.0668C134.309 10.3909 126.323 5.71497 117.811 2.94408C113.599 1.55863 108.597 1.38543 77.619 1.03907L42.2535 0.779318L42.78 22.9465L105.964 23.8124L111.229 26.4101C117.284 29.3542 120.093 32.9044 120.97 38.5328C122.725 50.3957 115.88 58.362 102.015 60.5268C98.8558 61.0463 84.2006 61.4793 69.3699 61.4793H42.3413V82.261H74.1965C108.684 82.261 113.599 82.7805 120.619 86.8503C130.623 92.5653 132.027 107.372 123.427 115.339C117.811 120.534 116.319 120.707 77.8822 121.227L42.78 121.66L42.2535 143.74H77.1802C113.95 143.74 117.899 143.394 128.342 139.497C136.327 136.553 142.47 132.397 146.946 126.942C152.738 119.841 154.229 115.079 154.229 103.909C154.229 95.3361 154.054 94.3836 151.334 89.015C147.736 81.828 142.558 77.1521 133.344 72.8226L126.411 69.5322L130.272 67.2808C135.625 64.1635 140.276 58.8815 143.611 52.0409C146.068 46.7588 146.331 45.6332 146.244 37.6669C146.244 27.1894 144.313 21.6476 138.521 15.0668Z" fill="url(#paint1_linear_72_1600)"/>
<path d="M204.092 121.227V0.865895H178.643V143.74H279.562V121.227H204.092Z" fill="url(#paint2_linear_72_1600)"/>
<path d="M355.497 23.3794V12.1226C355.497 -0.865927 356.287 -2.15418e-05 345.844 2.68428C319.693 9.43834 300.124 30.0469 294.507 56.7168C292.84 64.6831 292.84 80.7889 294.419 88.3223C296.174 96.3752 300.562 107.199 304.775 113.52C314.515 128.5 334.699 141.489 351.373 143.48L355.497 144V121.4L350.144 119.581C344.001 117.59 335.05 111.529 330.662 106.42C317.762 91.5262 314.866 66.7613 323.993 47.8845C328.995 37.3205 342.246 26.4967 353.128 23.899L355.497 23.3794Z" fill="url(#paint3_linear_72_1600)"/>
<path d="M436.32 56.2838C430.879 31.6056 412.889 11.5165 389.722 4.06976C386.124 2.85749 381.648 1.6452 379.893 1.38543L376.558 0.779318V23.8124L380.771 25.2844C391.126 28.9212 401.13 37.7535 406.22 47.7114C410.257 55.7643 411.748 62.2586 411.748 72.736C411.748 88.0625 407.448 99.2327 397.971 108.844C393.057 113.867 384.281 119.062 378.314 120.621C376.646 121.054 376.558 121.746 376.558 132.397C376.558 145.299 375.944 144.606 384.807 142.355C392.618 140.45 403.412 134.995 410.608 129.453C422.016 120.621 431.406 106.247 435.53 91.353C437.812 82.7805 438.251 65.0295 436.32 56.2838Z" fill="url(#paint4_linear_72_1600)"/>
<path d="M628.118 71.0908L627.855 35.935L627.68 0.865895H603.108V143.74H627.68V110.23L675.155 59.6608C701.306 31.8653 724.474 7.27358 726.668 4.93564L730.704 0.865895H713.68L696.568 0.952504L628.118 71.0908Z" fill="url(#paint5_linear_72_1600)"/>
<path d="M861.943 23.3794V0.865895H753.126V23.3794H861.943Z" fill="url(#paint6_linear_72_1600)"/>
<path d="M1000 24.2453V0.865895H882.408V24.2453H1000Z" fill="url(#paint7_linear_72_1600)"/>
<path d="M953.665 142.615C953.928 141.835 953.841 50.742 953.577 48.2309C953.49 47.8845 947.786 47.6248 940.765 47.6248H928.041V143.74H940.677C949.979 143.74 953.402 143.48 953.665 142.615Z" fill="url(#paint8_linear_72_1600)"/>
<path d="M851.412 83.1269V60.6133H753.126V83.1269H851.412Z" fill="url(#paint9_linear_72_1600)"/>
<path d="M729.388 142.008C728.686 141.143 717.717 127.115 704.904 110.922C692.092 94.73 681.386 81.4817 681.123 81.4817C680.859 81.3951 676.823 85.5514 672.084 90.5737C664.625 98.7132 663.747 100.012 664.8 101.224C665.502 102.004 673.663 111.875 682.965 123.132L699.815 143.74H715.172C730.266 143.74 730.529 143.74 729.388 142.008Z" fill="url(#paint10_linear_72_1600)"/>
<path d="M861.943 143.74V121.227H753.126V143.74H861.943Z" fill="url(#paint11_linear_72_1600)"/>
<path d="M0 0H25.3521V144H0V0Z" fill="url(#paint12_linear_72_1600)"/>
<defs>
<linearGradient id="paint0_linear_72_1600" x1="1000" y1="-6.62985e-06" x2="971.957" y2="252.111" gradientUnits="userSpaceOnUse">
<stop stop-color="#5CE2FF"/>
<stop offset="1" stop-color="#6AFFAE"/>
</linearGradient>
<linearGradient id="paint1_linear_72_1600" x1="1000" y1="-6.62985e-06" x2="971.957" y2="252.111" gradientUnits="userSpaceOnUse">
<stop stop-color="#5CE2FF"/>
<stop offset="1" stop-color="#6AFFAE"/>
</linearGradient>
<linearGradient id="paint2_linear_72_1600" x1="1000" y1="-6.62985e-06" x2="971.957" y2="252.111" gradientUnits="userSpaceOnUse">
<stop stop-color="#5CE2FF"/>
<stop offset="1" stop-color="#6AFFAE"/>
</linearGradient>
<linearGradient id="paint3_linear_72_1600" x1="1000" y1="-6.62985e-06" x2="971.957" y2="252.111" gradientUnits="userSpaceOnUse">
<stop stop-color="#5CE2FF"/>
<stop offset="1" stop-color="#6AFFAE"/>
</linearGradient>
<linearGradient id="paint4_linear_72_1600" x1="1000" y1="-6.62985e-06" x2="971.957" y2="252.111" gradientUnits="userSpaceOnUse">
<stop stop-color="#5CE2FF"/>
<stop offset="1" stop-color="#6AFFAE"/>
</linearGradient>
<linearGradient id="paint5_linear_72_1600" x1="1000" y1="-6.62985e-06" x2="971.957" y2="252.111" gradientUnits="userSpaceOnUse">
<stop stop-color="#5CE2FF"/>
<stop offset="1" stop-color="#6AFFAE"/>
</linearGradient>
<linearGradient id="paint6_linear_72_1600" x1="1000" y1="-6.62985e-06" x2="971.957" y2="252.111" gradientUnits="userSpaceOnUse">
<stop stop-color="#5CE2FF"/>
<stop offset="1" stop-color="#6AFFAE"/>
</linearGradient>
<linearGradient id="paint7_linear_72_1600" x1="1000" y1="-6.62985e-06" x2="971.957" y2="252.111" gradientUnits="userSpaceOnUse">
<stop stop-color="#5CE2FF"/>
<stop offset="1" stop-color="#6AFFAE"/>
</linearGradient>
<linearGradient id="paint8_linear_72_1600" x1="1000" y1="-6.62985e-06" x2="971.957" y2="252.111" gradientUnits="userSpaceOnUse">
<stop stop-color="#5CE2FF"/>
<stop offset="1" stop-color="#6AFFAE"/>
</linearGradient>
<linearGradient id="paint9_linear_72_1600" x1="1000" y1="-6.62985e-06" x2="971.957" y2="252.111" gradientUnits="userSpaceOnUse">
<stop stop-color="#5CE2FF"/>
<stop offset="1" stop-color="#6AFFAE"/>
</linearGradient>
<linearGradient id="paint10_linear_72_1600" x1="1000" y1="-6.62985e-06" x2="971.957" y2="252.111" gradientUnits="userSpaceOnUse">
<stop stop-color="#5CE2FF"/>
<stop offset="1" stop-color="#6AFFAE"/>
</linearGradient>
<linearGradient id="paint11_linear_72_1600" x1="1000" y1="-6.62985e-06" x2="971.957" y2="252.111" gradientUnits="userSpaceOnUse">
<stop stop-color="#5CE2FF"/>
<stop offset="1" stop-color="#6AFFAE"/>
</linearGradient>
<linearGradient id="paint12_linear_72_1600" x1="1000" y1="-6.62985e-06" x2="971.957" y2="252.111" gradientUnits="userSpaceOnUse">
<stop stop-color="#5CE2FF"/>
<stop offset="1" stop-color="#6AFFAE"/>
</linearGradient>
</defs>
</svg>
