<svg width="200" height="56" viewBox="0 0 200 56" fill="none" xmlns="http://www.w3.org/2000/svg">
<path d="M137.111 21.7126V20.1422V18.5717L134.511 18.5834C133.07 18.595 131.77 18.6183 131.606 18.6415C128.421 19.0952 126.535 19.9677 124.849 21.7359C123.198 23.4808 122.355 25.6795 122.355 28.2271C122.355 32.5894 124.908 36.0328 129.147 37.3938C130.388 37.801 131.279 37.8824 134.277 37.8824H137.111V36.3818V34.8811L134.159 34.8346C131.759 34.788 131.079 34.7415 130.552 34.567C128.362 33.869 126.969 32.5429 126.266 30.4722C126.008 29.7277 125.95 29.3555 125.95 28.3434C125.95 26.3542 126.524 24.8768 127.8 23.6088C128.632 22.7829 130.037 22.0267 131.126 21.829C131.466 21.7708 132.965 21.7126 134.429 21.7126H137.111Z" fill="url(#paint0_linear_51_435)"/>
<path d="M73.0035 20.5959C72.4413 19.9677 71.3756 19.3395 70.2396 18.9673C69.6775 18.7811 69.0099 18.7579 64.8759 18.7113L60.1562 18.6764L60.1914 20.1654L60.2265 21.6545L64.4426 21.7126L68.6586 21.7708L69.3613 22.1198C70.1693 22.5153 70.5441 22.9922 70.6612 23.7484C70.8954 25.3421 69.982 26.4123 68.1316 26.7032C67.71 26.773 65.7542 26.8311 63.775 26.8311H60.168V28.2271V29.623H64.4191C69.0216 29.623 69.6775 29.6928 70.6144 30.2396C71.9495 31.0073 72.1368 32.9966 70.9891 34.0668C70.2396 34.7648 70.0405 34.788 64.911 34.8578L60.2265 34.916L60.1914 36.3934L60.1562 37.8824H64.8173C69.7243 37.8824 70.2513 37.8359 71.645 37.3124C72.7107 36.9169 73.5305 36.3585 74.1277 35.6256C74.9007 34.6717 75.0998 34.0319 75.0998 32.5313C75.0998 31.3796 75.0764 31.2516 74.7133 30.5304C74.2331 29.5649 73.5422 28.9367 72.3125 28.355L71.3873 27.913L71.9026 27.6105C72.617 27.1917 73.2377 26.4821 73.6827 25.5631C74.0106 24.8535 74.0458 24.7023 74.0341 23.6321C74.0341 22.2245 73.7764 21.48 73.0035 20.5959Z" fill="url(#paint1_linear_51_435)"/>
<path d="M84.7615 34.8578V26.773V18.6881H83.0634H81.3653V28.2852V37.8824H88.0992H94.8332V36.3701V34.8578H89.7974H84.7615Z" fill="url(#paint2_linear_51_435)"/>
<path d="M107.598 21.7126V20.2003C107.598 18.4554 107.704 18.5717 106.31 18.9324C102.82 19.8397 100.209 22.6084 99.4591 26.1913C99.2366 27.2615 99.2366 29.4253 99.4474 30.4373C99.6816 31.5192 100.267 32.9733 100.829 33.8225C102.129 35.835 104.823 37.5799 107.048 37.8475L107.598 37.9173V36.3934V34.8811L106.884 34.6368C106.064 34.3693 104.87 33.5549 104.284 32.8686C102.563 30.8677 102.176 27.5407 103.394 25.0047C104.062 23.5855 105.83 22.1314 107.282 21.7824L107.598 21.7126Z" fill="url(#paint3_linear_51_435)"/>
<path d="M118.384 26.1331C117.658 22.8178 115.258 20.1189 112.166 19.1185C111.686 18.9556 111.088 18.7928 110.854 18.7579L110.409 18.6764V20.2236V21.7708L110.971 21.9686C112.353 22.4571 113.688 23.6437 114.368 24.9815C114.906 26.0633 115.105 26.9358 115.105 28.3434C115.105 30.4024 114.531 31.9031 113.267 33.1943C112.611 33.869 111.44 34.567 110.643 34.7764C110.421 34.8346 110.409 34.9276 110.409 36.3585C110.409 38.0918 110.327 37.9987 111.51 37.6963C112.552 37.4403 113.993 36.7075 114.953 35.963C116.476 34.7764 117.729 32.8453 118.279 30.8445C118.584 29.6928 118.642 27.3081 118.384 26.1331Z" fill="url(#paint4_linear_51_435)"/>
<path d="M145.484 28.1224L145.449 23.3994L145.426 18.6881H143.786H142.147V28.2852V37.8824H143.786H145.426V35.6256V33.3805L151.761 26.5868C155.251 22.8527 158.343 19.5489 158.636 19.2348L159.175 18.6881H156.903L154.619 18.6997L150.052 23.411L145.484 28.1224Z" fill="url(#paint5_linear_51_435)"/>
<path d="M178.568 21.7126V20.2003V18.6881H171.307H164.047V20.2003V21.7126H171.307H178.568Z" fill="url(#paint6_linear_51_435)"/>
<path d="M200 21.829V20.2585V18.6881H192.153H184.307V20.2585V21.829H192.153H200Z" fill="url(#paint7_linear_51_435)"/>
<path d="M193.816 37.7312C193.852 37.6265 193.84 25.3886 193.805 25.0513C193.793 25.0047 193.032 24.9698 192.095 24.9698H190.397V31.4261V37.8824H192.083C193.325 37.8824 193.781 37.8475 193.816 37.7312Z" fill="url(#paint8_linear_51_435)"/>
<path d="M177.163 29.7393V28.2271V26.7148H170.605H164.047V28.2271V29.7393H170.605H177.163Z" fill="url(#paint9_linear_51_435)"/>
<path d="M158.999 37.6497C158.905 37.5334 157.441 35.6489 155.732 33.4735C154.022 31.2982 152.593 29.5183 152.558 29.5183C152.523 29.5067 151.984 30.0651 151.352 30.7398C150.356 31.8333 150.239 32.0078 150.38 32.1706C150.473 32.2753 151.562 33.6015 152.804 35.1138L155.052 37.8824H157.102C159.116 37.8824 159.151 37.8824 158.999 37.6497Z" fill="url(#paint10_linear_51_435)"/>
<path d="M178.568 37.8824V36.3701V34.8578H171.307H164.047V36.3701V37.8824H171.307H178.568Z" fill="url(#paint11_linear_51_435)"/>
<path fill-rule="evenodd" clip-rule="evenodd" d="M23.3016 3.18841C21.8051 2.94493 20.4605 1.61159 20.4605 0.371012V0H3.15676V0.371012C3.14507 0.881159 2.75924 1.70435 2.30327 2.17972C1.89406 2.6087 0.958721 3.13043 0.596278 3.13043C0.467669 3.13043 0.292293 3.16522 0.187067 3.20001C0.0116915 3.26957 0 4.82319 0 19.6638C0 33.3217 0.0233838 36.058 0.151993 36.058C0.432594 36.058 0.701503 36.4638 0.701503 36.8812C0.701503 37.3449 0.619661 37.4841 0.268909 37.6696L0 37.8087V42.3768C0 46.8522 0 46.9565 0.233833 46.9565C0.350751 46.9565 0.736578 47.0609 1.07564 47.1884C2.13958 47.5826 3.14507 48.858 3.15676 49.8203V50.2029H20.4605V49.8203C20.4605 48.8116 21.5829 47.4667 22.6936 47.142C23.0327 47.0377 23.4068 46.9565 23.5237 46.9565C23.7225 46.9565 23.7342 46.7246 23.7342 42.4V37.8435L23.3834 37.5884C23.1028 37.3797 23.0327 37.2406 23.0327 36.8812C23.0327 36.4522 23.3016 36.058 23.5939 36.058C23.6991 36.058 23.7342 32.1159 23.7342 19.6522V3.25797L23.3016 3.18841ZM6.34696 15.5073H7.04847V5.30436H6.34696V15.5073ZM7.8669 15.5073V5.30436H9.50374V15.5073H7.8669ZM10.3222 15.5073H11.0237V5.30436H10.3222V15.5073ZM11.8421 15.5073V5.30436H14.1804V15.5073H11.8421ZM14.9988 15.5073H15.8173V5.30436H14.9988V15.5073ZM16.5188 15.5073V5.30436H17.3372V15.5073H16.5188ZM2.31333 36.145C2.00934 36.4812 2.04442 37.1768 2.37178 37.4435C3.17851 38.0928 4.27753 36.8754 3.54096 36.145C3.22528 35.8319 2.59393 35.8435 2.31333 36.145ZM5.87932 37.6522C5.2012 37.6522 4.80369 36.6319 5.29474 36.1449C5.61041 35.8319 6.24177 35.8435 6.52237 36.1449C7.0485 36.7131 6.63928 37.6522 5.87932 37.6522ZM8.2995 36.1218C8.0189 36.4232 8.04228 37.1305 8.33458 37.4203C9.07115 38.1507 10.1702 37.0377 9.55052 36.1681C9.31668 35.8435 8.5801 35.8087 8.2995 36.1218ZM12.4851 37.3623C11.7252 38.1276 10.5794 37.0725 11.2575 36.2261C11.4329 36.0058 11.6082 35.9131 11.8772 35.9131C12.3214 35.9131 12.4617 35.9942 12.6488 36.3421C12.8476 36.7363 12.8008 37.0609 12.4851 37.3623ZM14.2506 36.1681C13.6309 37.0377 14.7299 38.1507 15.4665 37.4203C15.7705 37.1189 15.7822 36.3768 15.4899 36.1102C15.1625 35.8203 14.4727 35.8551 14.2506 36.1681ZM17.3372 37.4435C17.0098 37.1768 16.9748 36.4812 17.2787 36.1449C17.7581 35.6232 18.7402 36.0058 18.7402 36.7131C18.7402 37.4783 17.9218 37.9073 17.3372 37.4435ZM20.2601 36.1449C19.7691 36.6319 20.1666 37.6522 20.8447 37.6522C21.6047 37.6522 22.0139 36.7131 21.4877 36.1449C21.2071 35.8435 20.5758 35.8319 20.2601 36.1449Z" fill="url(#paint12_linear_51_435)"/>
<path fill-rule="evenodd" clip-rule="evenodd" d="M48.0763 10.9681C48.1114 10.771 47.0709 10.2377 41.0379 7.33913C37.1446 5.46087 33.6955 3.8145 33.3682 3.66377L32.7719 3.38551L32.351 3.94204C31.743 4.75362 30.8428 5.17102 29.7554 5.13624C29.3111 5.12464 28.785 5.10145 28.6096 5.07826C28.2823 5.04348 28.2472 5.10145 27.1716 7.30435L26.0725 9.56522V49.2754H24.7397C23.4887 49.2754 23.3717 49.2986 23.0678 49.5536C22.7521 49.8319 22.7404 49.8667 22.7053 51.1768L22.6586 52.5217L20.7762 52.5333H18.8821L22.4364 54.2725C24.3889 55.2232 26.0491 56 26.1193 56C26.1894 55.9884 26.4233 55.7565 26.622 55.4783C26.891 55.1304 27.23 54.8638 27.7678 54.5971L27.7802 54.5911C28.0407 54.4658 28.2143 54.3822 28.3973 54.3334C28.7626 54.2359 29.1655 54.2766 30.3728 54.3986L30.3868 54.4C30.644 54.4348 30.8194 54.1333 32.6316 50.4C34.5607 46.4464 34.5958 46.342 34.4321 46.029C34.3386 45.8435 34.2567 45.6116 34.2567 45.5072C34.2567 45.229 34.8998 44.6377 35.1921 44.6377C35.3908 44.6377 35.5779 44.3478 36.2326 42.9913C36.6769 42.0754 39.8804 35.4783 43.3646 28.313C46.837 21.1478 49.6898 15.2464 49.6898 15.1884C49.6898 15.1188 49.6313 15.0725 49.5729 15.0725C49.5027 15.0725 49.1871 14.8174 48.8831 14.5159C48.0062 13.6464 47.7841 12.6493 48.0763 10.9681ZM28.8655 18.2853L28.8666 18.2831C29.1972 17.5947 29.9867 15.951 30.8996 14.0696C32.361 11.0551 33.121 9.60581 33.2496 9.59422C33.3432 9.59422 33.5068 9.66378 33.6121 9.73335C33.7757 9.86088 33.5302 10.429 31.6011 14.371C30.4085 16.8406 29.3914 18.8928 29.3563 18.9275C29.2627 19.0203 28.6665 18.7304 28.7015 18.6261C28.7069 18.6155 28.7622 18.5002 28.8587 18.2994L28.8649 18.2865L28.8655 18.2853ZM30.0695 19.3913L30.7476 19.7044C31.1217 19.8667 31.4608 19.971 31.5075 19.9363C31.5894 19.8551 35.927 10.9971 35.927 10.916C35.927 10.8928 35.623 10.7189 35.2372 10.5334L34.5591 10.1855L30.0695 19.3913ZM32.3026 20.3536C32.3026 20.2957 33.2847 18.2203 34.4889 15.7507L36.6753 11.2406L37.0026 11.3565C37.178 11.4261 37.33 11.5073 37.33 11.5421C37.33 11.6232 34.2902 17.9189 33.3899 19.7044C32.8989 20.6899 32.8755 20.7131 32.5949 20.5855C32.4312 20.516 32.3026 20.4116 32.3026 20.3536ZM35.927 16.3884C34.7345 18.8464 33.7524 20.9218 33.729 21.0029C33.7056 21.0957 34.1148 21.3391 34.7228 21.6174C35.284 21.8725 35.7633 22.0812 35.775 22.0696C35.8569 22.0116 40.136 13.1189 40.136 13.0261C40.136 12.9218 38.2887 11.9131 38.1134 11.9131C38.1017 11.9131 37.1196 13.9304 35.927 16.3884ZM36.535 22.3479C36.5584 22.2899 37.5405 20.2261 38.733 17.7681C39.9256 15.3218 40.9428 13.3044 40.9895 13.3044C41.0714 13.3044 41.5157 13.5015 41.6209 13.5942C41.6443 13.6058 40.7323 15.5189 39.5982 17.8377C38.4641 20.1565 37.4703 22.2319 37.3768 22.4406C37.2131 22.8116 37.2014 22.8116 36.8507 22.6377C36.6519 22.5334 36.5116 22.4058 36.535 22.3479ZM42.1704 14.371C42.0898 14.515 41.592 15.5358 40.9226 16.9087C40.6215 17.5262 40.2854 18.2155 39.9373 18.9275C38.0666 22.7768 37.9263 23.1131 38.1134 23.2522C38.2303 23.3333 38.394 23.3797 38.4875 23.3681C38.6278 23.3333 43.1174 14.3594 43.0239 14.2899C42.9421 14.2203 42.4861 14 42.4276 14C42.3925 14 42.2756 14.1739 42.1704 14.371ZM27.1231 42.4058C26.3281 42.4058 25.9423 41.5131 26.5152 40.9565C26.901 40.5623 27.4154 40.5739 27.7428 40.9797C28.1871 41.5478 27.813 42.4058 27.1231 42.4058ZM29.403 42.0232C29.216 42.0928 28.912 42.6841 28.912 42.9855C28.912 43.3449 29.3212 43.6812 29.7772 43.6812C30.2332 43.6812 30.6657 43.2522 30.6657 42.8116C30.6657 42.4058 30.2332 41.942 29.8707 41.9536C29.6953 41.9536 29.4849 41.9884 29.403 42.0232ZM32.4663 44.9565C31.566 44.9565 31.3088 43.9363 32.0571 43.3681C32.5247 43.0203 33.3548 43.4725 33.3548 44.0638C33.3548 44.5276 32.9339 44.9565 32.4663 44.9565Z" fill="url(#paint13_linear_51_435)"/>
<defs>
<linearGradient id="paint0_linear_51_435" x1="200" y1="37.9173" x2="196.377" y2="4.01568" gradientUnits="userSpaceOnUse">
<stop stop-color="#5CE2FF"/>
<stop offset="1" stop-color="#6AFFAE"/>
</linearGradient>
<linearGradient id="paint1_linear_51_435" x1="200" y1="37.9173" x2="196.377" y2="4.01568" gradientUnits="userSpaceOnUse">
<stop stop-color="#5CE2FF"/>
<stop offset="1" stop-color="#6AFFAE"/>
</linearGradient>
<linearGradient id="paint2_linear_51_435" x1="200" y1="37.9173" x2="196.377" y2="4.01568" gradientUnits="userSpaceOnUse">
<stop stop-color="#5CE2FF"/>
<stop offset="1" stop-color="#6AFFAE"/>
</linearGradient>
<linearGradient id="paint3_linear_51_435" x1="200" y1="37.9173" x2="196.377" y2="4.01568" gradientUnits="userSpaceOnUse">
<stop stop-color="#5CE2FF"/>
<stop offset="1" stop-color="#6AFFAE"/>
</linearGradient>
<linearGradient id="paint4_linear_51_435" x1="200" y1="37.9173" x2="196.377" y2="4.01568" gradientUnits="userSpaceOnUse">
<stop stop-color="#5CE2FF"/>
<stop offset="1" stop-color="#6AFFAE"/>
</linearGradient>
<linearGradient id="paint5_linear_51_435" x1="200" y1="37.9173" x2="196.377" y2="4.01568" gradientUnits="userSpaceOnUse">
<stop stop-color="#5CE2FF"/>
<stop offset="1" stop-color="#6AFFAE"/>
</linearGradient>
<linearGradient id="paint6_linear_51_435" x1="200" y1="37.9173" x2="196.377" y2="4.01568" gradientUnits="userSpaceOnUse">
<stop stop-color="#5CE2FF"/>
<stop offset="1" stop-color="#6AFFAE"/>
</linearGradient>
<linearGradient id="paint7_linear_51_435" x1="200" y1="37.9173" x2="196.377" y2="4.01568" gradientUnits="userSpaceOnUse">
<stop stop-color="#5CE2FF"/>
<stop offset="1" stop-color="#6AFFAE"/>
</linearGradient>
<linearGradient id="paint8_linear_51_435" x1="200" y1="37.9173" x2="196.377" y2="4.01568" gradientUnits="userSpaceOnUse">
<stop stop-color="#5CE2FF"/>
<stop offset="1" stop-color="#6AFFAE"/>
</linearGradient>
<linearGradient id="paint9_linear_51_435" x1="200" y1="37.9173" x2="196.377" y2="4.01568" gradientUnits="userSpaceOnUse">
<stop stop-color="#5CE2FF"/>
<stop offset="1" stop-color="#6AFFAE"/>
</linearGradient>
<linearGradient id="paint10_linear_51_435" x1="200" y1="37.9173" x2="196.377" y2="4.01568" gradientUnits="userSpaceOnUse">
<stop stop-color="#5CE2FF"/>
<stop offset="1" stop-color="#6AFFAE"/>
</linearGradient>
<linearGradient id="paint11_linear_51_435" x1="200" y1="37.9173" x2="196.377" y2="4.01568" gradientUnits="userSpaceOnUse">
<stop stop-color="#5CE2FF"/>
<stop offset="1" stop-color="#6AFFAE"/>
</linearGradient>
<linearGradient id="paint12_linear_51_435" x1="49.6898" y1="-2.57828e-06" x2="0.534942" y2="56.4657" gradientUnits="userSpaceOnUse">
<stop stop-color="#5CE2FF"/>
<stop offset="1" stop-color="#6AFFAE"/>
</linearGradient>
<linearGradient id="paint13_linear_51_435" x1="49.6898" y1="-2.57828e-06" x2="0.534942" y2="56.4657" gradientUnits="userSpaceOnUse">
<stop stop-color="#5CE2FF"/>
<stop offset="1" stop-color="#6AFFAE"/>
</linearGradient>
</defs>
</svg>
