<svg width="500" height="500" viewBox="0 0 500 500" fill="none" xmlns="http://www.w3.org/2000/svg">
<path d="M419.12 236.43C325.12 182.15 173.18 182.15 79.7798 236.43C-13.6202 290.71 -13.1302 378.71 80.8798 433C174.89 487.29 326.82 487.28 420.23 433C513.64 378.72 513.13 290.71 419.12 236.43Z" fill="#F5F5F5"/>
<path d="M288 317.74C257.71 300.25 208.75 300.25 178.65 317.74C148.55 335.23 148.71 363.59 179.01 381.08C209.31 398.57 258.26 398.57 288.36 381.08C318.46 363.59 318.25 335.24 288 317.74Z" fill="#E0E0E0"/>
<path d="M101.28 259.05L106.97 254.38C107.32 245.38 107.67 235.94 106.18 227.08C104.69 218.22 101.18 209.45 94.8698 203.08C92.2098 200.41 88.8698 198.14 85.1798 197.71C81.4898 197.28 77.2598 199.17 75.9798 202.71C74.6298 206.42 76.6598 210.43 78.8298 213.71C83.4398 220.71 88.9498 227.13 93.4798 234.2C98.0098 241.27 101.17 250.66 101.28 259.05Z" fill="#F0F0F0"/>
<path d="M101.28 260.28L95.5799 265C91.3699 256.11 85.5799 247.88 77.5799 242.18C74.8399 240.18 71.8999 238.49 69.5799 236.03C67.2599 233.57 65.6699 230.16 66.3399 226.87C67.1999 222.63 71.6899 219.87 76.0099 219.81C80.3299 219.75 84.3799 221.98 87.7299 224.71C97.9999 233.05 103.86 247.27 101.28 260.28Z" fill="#F0F0F0"/>
<path opacity="0.1" d="M101.28 260.28L95.5799 265C91.3699 256.11 85.5799 247.88 77.5799 242.18C74.8399 240.18 71.8999 238.49 69.5799 236.03C67.2599 233.57 65.6699 230.16 66.3399 226.87C67.1999 222.63 71.6899 219.87 76.0099 219.81C80.3299 219.75 84.3799 221.98 87.7299 224.71C97.9999 233.05 103.86 247.27 101.28 260.28Z" fill="black"/>
<path d="M104.49 256.91C104.554 256.909 104.618 256.895 104.677 256.869C104.736 256.843 104.789 256.806 104.834 256.759C104.878 256.713 104.913 256.658 104.936 256.598C104.96 256.538 104.971 256.474 104.97 256.41C104.74 243.09 101.75 218.5 84.3399 203.41C84.2418 203.324 84.1134 203.28 83.9831 203.289C83.8528 203.297 83.7311 203.357 83.6449 203.455C83.5587 203.553 83.5151 203.681 83.5235 203.812C83.5319 203.942 83.5918 204.064 83.6899 204.15C91.0399 210.54 103.45 225.82 103.98 256.46C103.993 256.586 104.052 256.702 104.147 256.785C104.241 256.869 104.364 256.913 104.49 256.91Z" fill="white"/>
<path d="M98.5198 263C98.5842 262.994 98.6468 262.975 98.7039 262.944C98.761 262.914 98.8115 262.872 98.8524 262.822C98.8933 262.772 98.9239 262.714 98.9423 262.652C98.9607 262.59 98.9667 262.524 98.9598 262.46C97.7898 250.46 92.5698 234 74.2998 223.46C74.1865 223.398 74.0534 223.381 73.9285 223.415C73.8035 223.448 73.6965 223.529 73.6298 223.64C73.5959 223.696 73.5737 223.759 73.5645 223.824C73.5552 223.889 73.5591 223.955 73.5759 224.018C73.5927 224.082 73.622 224.141 73.6622 224.193C73.7024 224.245 73.7525 224.288 73.8098 224.32C91.7098 234.67 96.8098 250.83 97.9798 262.57C97.9948 262.698 98.06 262.816 98.1612 262.896C98.2623 262.977 98.3912 263.014 98.5198 263Z" fill="white"/>
<path d="M438.44 292.67C441.1 289.8 444.12 287.27 446.58 284.23C448.26 282.15 449.72 279.57 449.25 276.95C448.976 275.738 448.368 274.628 447.494 273.744C446.621 272.86 445.518 272.239 444.31 271.95C441.864 271.415 439.307 271.804 437.13 273.04C434.982 274.278 433.061 275.875 431.45 277.76C422.253 287.903 417.324 301.203 417.69 314.89C417.609 316.449 417.992 317.998 418.79 319.34C419.287 320.01 419.965 320.524 420.745 320.822C421.524 321.119 422.373 321.188 423.19 321.02C427.37 320.08 427.19 314.51 428.09 311.3C430.023 304.358 433.57 297.971 438.44 292.66V292.67Z" fill="#E6E6E6"/>
<path d="M421.89 316.8C421.971 316.791 422.046 316.754 422.103 316.696C422.159 316.637 422.194 316.561 422.2 316.48C422.94 309.93 426.61 287.63 442.94 275.95C443.018 275.894 443.071 275.81 443.087 275.715C443.103 275.62 443.081 275.523 443.025 275.445C442.969 275.367 442.885 275.314 442.79 275.298C442.695 275.282 442.598 275.304 442.52 275.36C425.95 287.22 422.23 309.77 421.52 316.36C421.514 316.407 421.518 316.455 421.532 316.501C421.545 316.547 421.567 316.59 421.596 316.627C421.626 316.664 421.663 316.695 421.705 316.718C421.747 316.741 421.793 316.755 421.84 316.76L421.89 316.8Z" fill="#F0F0F0"/>
<path d="M422.76 318.8C422.988 320.262 423.508 321.663 424.29 322.919C425.072 324.175 426.099 325.26 427.31 326.11C429.598 327.393 432.199 328.013 434.82 327.9C437.475 327.777 440.107 327.341 442.66 326.6C443.93 326.26 445.35 325.79 445.58 324.27C445.632 323.867 445.594 323.458 445.468 323.072C445.341 322.686 445.13 322.334 444.85 322.04C444.615 321.779 444.364 321.531 444.1 321.3C443.979 321.193 443.893 321.052 443.853 320.895C443.814 320.738 443.823 320.573 443.879 320.421C443.935 320.27 444.036 320.139 444.169 320.046C444.301 319.953 444.458 319.902 444.62 319.9C445.362 319.905 446.103 319.865 446.84 319.78C448.557 319.622 450.2 319.008 451.6 318C452.619 317.212 453.424 316.181 453.94 315C454.213 314.522 454.348 313.978 454.333 313.427C454.317 312.877 454.15 312.342 453.85 311.88C453.392 311.438 452.815 311.14 452.19 311.02C451.65 310.86 451.11 310.72 450.56 310.6C450.403 310.564 450.263 310.479 450.159 310.356C450.055 310.233 449.994 310.08 449.985 309.92C449.976 309.76 450.02 309.601 450.109 309.467C450.198 309.334 450.328 309.233 450.48 309.18L452.88 308.37C453.567 308.189 454.201 307.846 454.73 307.37C455.065 306.92 455.299 306.403 455.415 305.854C455.531 305.305 455.525 304.737 455.4 304.19C455.21 302.71 454.8 301.27 454.56 299.79C454.25 298.327 454.298 296.811 454.7 295.37C450.361 294.59 445.918 294.59 441.58 295.37C440.277 295.544 439.025 295.994 437.91 296.69C437.203 297.235 436.647 297.952 436.297 298.774C435.947 299.595 435.813 300.492 435.91 301.38C435.908 301.457 435.88 301.531 435.83 301.59C435.78 301.649 435.712 301.689 435.637 301.704C435.561 301.719 435.483 301.708 435.414 301.673C435.346 301.638 435.291 301.58 435.26 301.51L433.96 298.66C433.768 298.249 433.425 297.927 433.004 297.759C432.582 297.592 432.112 297.592 431.69 297.76C430.34 298.326 429.119 299.159 428.1 300.21C427.54 300.769 427.097 301.433 426.794 302.164C426.492 302.895 426.338 303.679 426.34 304.47C426.376 306.661 426.597 308.846 427 311C427.039 311.128 427.033 311.266 426.984 311.39C426.934 311.515 426.844 311.618 426.728 311.685C426.611 311.751 426.476 311.776 426.344 311.755C426.211 311.734 426.09 311.669 426 311.57L425.94 311.51C425.56 311.174 425.067 310.996 424.56 311.01C423.23 311.08 422.8 312.39 422.64 313.52C422.47 315.278 422.51 317.051 422.76 318.8Z" fill="#E6E6E6"/>
<path opacity="0.1" d="M422.76 318.8C422.988 320.262 423.508 321.663 424.29 322.919C425.072 324.175 426.099 325.26 427.31 326.11C429.598 327.393 432.199 328.013 434.82 327.9C437.475 327.777 440.107 327.341 442.66 326.6C443.93 326.26 445.35 325.79 445.58 324.27C445.632 323.867 445.594 323.458 445.468 323.072C445.341 322.686 445.13 322.334 444.85 322.04C444.615 321.779 444.364 321.531 444.1 321.3C443.979 321.193 443.893 321.052 443.853 320.895C443.814 320.738 443.823 320.573 443.879 320.421C443.935 320.27 444.036 320.139 444.169 320.046C444.301 319.953 444.458 319.902 444.62 319.9C445.362 319.905 446.103 319.865 446.84 319.78C448.557 319.622 450.2 319.008 451.6 318C452.619 317.212 453.424 316.181 453.94 315C454.213 314.522 454.348 313.978 454.333 313.427C454.317 312.877 454.15 312.342 453.85 311.88C453.392 311.438 452.815 311.14 452.19 311.02C451.65 310.86 451.11 310.72 450.56 310.6C450.403 310.564 450.263 310.479 450.159 310.356C450.055 310.233 449.994 310.08 449.985 309.92C449.976 309.76 450.02 309.601 450.109 309.467C450.198 309.334 450.328 309.233 450.48 309.18L452.88 308.37C453.567 308.189 454.201 307.846 454.73 307.37C455.065 306.92 455.299 306.403 455.415 305.854C455.531 305.305 455.525 304.737 455.4 304.19C455.21 302.71 454.8 301.27 454.56 299.79C454.25 298.327 454.298 296.811 454.7 295.37C450.361 294.59 445.918 294.59 441.58 295.37C440.277 295.544 439.025 295.994 437.91 296.69C437.203 297.235 436.647 297.952 436.297 298.774C435.947 299.595 435.813 300.492 435.91 301.38C435.908 301.457 435.88 301.531 435.83 301.59C435.78 301.649 435.712 301.689 435.637 301.704C435.561 301.719 435.483 301.708 435.414 301.673C435.346 301.638 435.291 301.58 435.26 301.51L433.96 298.66C433.768 298.249 433.425 297.927 433.004 297.759C432.582 297.592 432.112 297.592 431.69 297.76C430.34 298.326 429.119 299.159 428.1 300.21C427.54 300.769 427.097 301.433 426.794 302.164C426.492 302.895 426.338 303.679 426.34 304.47C426.376 306.661 426.597 308.846 427 311C427.039 311.128 427.033 311.266 426.984 311.39C426.934 311.515 426.844 311.618 426.728 311.685C426.611 311.751 426.476 311.776 426.344 311.755C426.211 311.734 426.09 311.669 426 311.57L425.94 311.51C425.56 311.174 425.067 310.996 424.56 311.01C423.23 311.08 422.8 312.39 422.64 313.52C422.47 315.278 422.51 317.051 422.76 318.8Z" fill="black"/>
<path d="M429.24 325.88C430.307 322.431 431.717 319.098 433.45 315.93C433.462 315.829 433.512 315.736 433.59 315.67C433.69 315.5 433.78 315.33 433.87 315.16C433.724 311.061 432.815 307.026 431.19 303.26C431.16 303.217 431.14 303.169 431.131 303.117C431.122 303.066 431.124 303.014 431.137 302.963C431.15 302.913 431.174 302.866 431.207 302.826C431.24 302.786 431.281 302.753 431.328 302.73C431.375 302.708 431.426 302.695 431.478 302.694C431.53 302.693 431.582 302.704 431.63 302.725C431.677 302.745 431.72 302.776 431.754 302.815C431.789 302.854 431.815 302.9 431.83 302.95C433.362 306.457 434.275 310.202 434.53 314.02C438.454 307.088 444.046 301.245 450.8 297.02C450.884 296.972 450.983 296.959 451.076 296.983C451.17 297.008 451.25 297.067 451.3 297.15C451.347 297.232 451.36 297.33 451.336 297.422C451.311 297.514 451.252 297.592 451.17 297.64C443.26 302.38 437.99 309.35 434.68 315.2C438.698 313.701 443.067 313.409 447.25 314.36C447.334 314.374 447.41 314.418 447.465 314.483C447.52 314.548 447.55 314.63 447.55 314.715C447.55 314.8 447.52 314.882 447.465 314.947C447.41 315.012 447.334 315.056 447.25 315.07H447.11C447.04 315.07 440.29 313.34 434.11 316.24C432.388 319.377 430.987 322.681 429.93 326.1C429.912 326.169 429.874 326.23 429.82 326.277C429.767 326.323 429.7 326.352 429.63 326.36C429.584 326.37 429.536 326.37 429.49 326.36C429.44 326.348 429.393 326.325 429.353 326.294C429.313 326.262 429.28 326.222 429.256 326.177C429.232 326.131 429.219 326.081 429.216 326.03C429.213 325.979 429.221 325.928 429.24 325.88Z" fill="#F0F0F0"/>
<path d="M440.83 322.77L425.67 308.84L419.22 308.14L409.86 313.2L408.41 317.84L404.13 321.82L402.32 327.38L411.1 330.99L412 332.31L417.93 334.93L420.56 338.54L428.11 338.42L431.14 335.27L439.73 333.88L446 331.25L445.54 327.37L443.82 323.56L440.83 322.77Z" fill="#E0E0E0"/>
<path opacity="0.1" d="M440.83 322.77L443.82 323.56L445.54 327.37L438.9 330.48L426.62 332.19L424.1 331.56L421.54 324.44L425.13 330.49L438.08 328.8L442.83 326.6L443.05 323.99L440.83 322.77Z" fill="black"/>
<path opacity="0.1" d="M434.55 317L436.95 322.47L430.46 322.28L422.44 324.67L430.28 320.14L433.92 321.05L433.88 318.7L431.07 313.81L434.55 317Z" fill="black"/>
<path opacity="0.3" d="M433.45 326.27L429.75 325.35L430.46 322.28L436.95 322.47L433.45 326.27Z" fill="black"/>
<path opacity="0.4" d="M424.24 328.99L429.75 325.35L430.46 322.28L422.44 324.67L424.24 328.99Z" fill="black"/>
<path opacity="0.2" d="M425.67 308.84L424.86 314.96L421.62 317.99L418.78 313.99L419.22 308.14L425.67 308.84Z" fill="black"/>
<path opacity="0.1" d="M420.34 319.59L417.27 314.28L419.22 308.14L418.78 313.99L421.62 317.99L420.34 319.59Z" fill="black"/>
<path opacity="0.3" d="M421.54 324.44L420.34 319.59L417.27 314.28L419.22 308.14L409.86 313.2L412.95 316.98L418.6 319.54L421.54 324.44Z" fill="black"/>
<path opacity="0.4" d="M420.56 338.54L424.1 331.56L421.54 324.44L418.6 319.54L412.95 316.98L409.86 313.2L408.41 317.84L412.73 317.34L417.28 320.62L419.52 324.32L420.56 338.54Z" fill="black"/>
<path opacity="0.3" d="M417.93 334.93L419.93 329.89L420.56 338.54L417.93 334.93Z" fill="black"/>
<path opacity="0.4" d="M412 332.31L411.79 327.64L409.99 320.14L404 328.07L411.1 330.99L412 332.31Z" fill="black"/>
<path opacity="0.3" d="M412.73 317.34L409.99 320.14L404 328.07L402.32 327.38L404.13 321.82L408.41 317.84L412.73 317.34Z" fill="black"/>
<path opacity="0.2" d="M417.93 334.93L412 332.31L411.79 327.64L409.99 320.14L412.73 317.34L417.28 320.62L419.52 324.32L419.93 329.89L417.93 334.93Z" fill="black"/>
<path opacity="0.3" d="M426.62 332.19L428.11 338.42L420.56 338.54L424.1 331.56L426.62 332.19Z" fill="black"/>
<path opacity="0.4" d="M431.14 335.27L429.3 331.82L426.62 332.19L428.11 338.42L431.14 335.27Z" fill="black"/>
<path opacity="0.3" d="M436.5 334.4L434.97 331.03L429.3 331.82L431.14 335.27L436.5 334.4Z" fill="black"/>
<path opacity="0.4" d="M439.73 333.88L438.9 330.48L434.97 331.03L436.5 334.4L439.73 333.88Z" fill="black"/>
<path opacity="0.3" d="M445.54 327.37L438.9 330.48L439.73 333.88L446 331.25L445.54 327.37Z" fill="black"/>
<path opacity="0.05" d="M433.88 318.7L433.92 321.05L430.28 320.14L422.44 324.67L424.24 328.99L421.54 324.44L420.34 319.59L421.62 317.99L424.86 314.96L425.67 308.84L431.07 313.81L433.88 318.7Z" fill="black"/>
<path opacity="0.3" d="M445.54 327.37L443.82 323.56L440.83 322.77L434.55 317L431.07 313.81L425.67 308.84L419.22 308.14L409.86 313.2L408.41 317.84L404.13 321.82L402.32 327.38L404 328.07L411.1 330.99L412 332.31L417.93 334.93L420.56 338.54L428.11 338.42L431.14 335.27L439.73 333.88L446 331.25L445.54 327.37Z" fill="white"/>
<path d="M451.11 376L441.03 366.74L436.74 366.28L430.52 369.64L429.56 372.72L426.72 375.37L425.51 379.06L431.35 381.47L431.95 382.35L435.89 384.08L437.63 386.48L442.66 386.4L444.67 384.31L450.38 383.39L454.55 381.64L454.24 379.06L453.1 376.53L451.11 376Z" fill="#E0E0E0"/>
<path opacity="0.1" d="M451.11 376L453.1 376.53L454.24 379.06L449.83 381.13L441.66 382.26L439.99 381.85L438.29 377.11L440.68 381.13L449.29 380.01L452.44 378.55L452.59 376.81L451.11 376Z" fill="black"/>
<path opacity="0.1" d="M446.94 372.17L448.53 375.8L444.22 375.68L438.89 377.26L444.1 374.25L446.52 374.86L446.49 373.3L444.62 370.04L446.94 372.17Z" fill="black"/>
<path opacity="0.3" d="M446.21 378.32L443.75 377.71L444.22 375.68L448.53 375.8L446.21 378.32Z" fill="black"/>
<path opacity="0.4" d="M440.09 380.13L443.75 377.71L444.22 375.68L438.89 377.26L440.09 380.13Z" fill="black"/>
<path opacity="0.2" d="M441.03 366.74L440.49 370.81L438.35 372.82L436.45 370.16L436.74 366.28L441.03 366.74Z" fill="black"/>
<path opacity="0.1" d="M437.49 373.88L435.45 370.36L436.74 366.28L436.45 370.16L438.35 372.82L437.49 373.88Z" fill="black"/>
<path opacity="0.3" d="M438.29 377.11L437.49 373.88L435.45 370.36L436.74 366.28L430.52 369.64L432.58 372.15L436.34 373.85L438.29 377.11Z" fill="black"/>
<path opacity="0.4" d="M437.63 386.48L439.99 381.85L438.29 377.11L436.34 373.85L432.58 372.15L430.52 369.64L429.56 372.72L432.43 372.39L435.45 374.57L436.95 377.03L437.63 386.48Z" fill="black"/>
<path opacity="0.3" d="M435.89 384.08L437.22 380.74L437.63 386.48L435.89 384.08Z" fill="black"/>
<path opacity="0.4" d="M431.95 382.35L431.81 379.24L430.61 374.25L426.63 379.52L431.35 381.47L431.95 382.35Z" fill="black"/>
<path opacity="0.3" d="M432.43 372.39L430.61 374.25L426.63 379.52L425.51 379.06L426.72 375.37L429.56 372.72L432.43 372.39Z" fill="black"/>
<path opacity="0.2" d="M435.89 384.08L431.95 382.35L431.81 379.24L430.61 374.25L432.43 372.39L435.45 374.57L436.95 377.03L437.22 380.74L435.89 384.08Z" fill="black"/>
<path opacity="0.3" d="M441.66 382.26L442.66 386.4L437.63 386.48L439.99 381.85L441.66 382.26Z" fill="black"/>
<path opacity="0.4" d="M444.67 384.31L443.45 382.01L441.66 382.26L442.66 386.4L444.67 384.31Z" fill="black"/>
<path opacity="0.3" d="M448.23 383.73L447.22 381.49L443.45 382.01L444.67 384.31L448.23 383.73Z" fill="black"/>
<path opacity="0.4" d="M450.38 383.39L449.83 381.13L447.22 381.49L448.23 383.73L450.38 383.39Z" fill="black"/>
<path opacity="0.3" d="M454.24 379.06L449.83 381.13L450.38 383.39L454.55 381.64L454.24 379.06Z" fill="black"/>
<path opacity="0.05" d="M446.49 373.3L446.52 374.86L444.1 374.25L438.89 377.26L440.09 380.13L438.29 377.11L437.49 373.88L438.35 372.82L440.49 370.81L441.03 366.74L444.62 370.04L446.49 373.3Z" fill="black"/>
<path d="M431.83 379.37L424.59 372.72L421.51 372.39L417.04 374.8L416.36 377.02L414.31 378.92L413.45 381.57L417.63 383.3L418.07 383.93L420.9 385.18L422.15 386.9L425.76 386.85L427.21 385.34L431.31 384.68L434.31 383.42L434.09 381.57L433.26 379.75L431.83 379.37Z" fill="#E0E0E0"/>
<path opacity="0.1" d="M431.83 379.37L433.26 379.75L434.09 381.57L430.92 383.06L425.05 383.87L423.85 383.57L422.62 380.17L424.34 383.06L430.52 382.25L432.79 381.2L432.89 379.95L431.83 379.37Z" fill="black"/>
<path opacity="0.1" d="M428.84 376.62L429.98 379.23L426.89 379.14L423.05 380.28L426.8 378.12L428.54 378.55L428.52 377.43L427.18 375.09L428.84 376.62Z" fill="black"/>
<path opacity="0.3" d="M428.31 381.04L426.54 380.6L426.89 379.14L429.98 379.23L428.31 381.04Z" fill="black"/>
<path opacity="0.4" d="M423.92 382.34L426.54 380.6L426.89 379.14L423.05 380.28L423.92 382.34Z" fill="black"/>
<path opacity="0.2" d="M424.59 372.72L424.21 375.64L422.66 377.09L421.3 375.18L421.51 372.39L424.59 372.72Z" fill="black"/>
<path opacity="0.1" d="M422.05 377.85L420.59 375.32L421.51 372.39L421.3 375.18L422.66 377.09L422.05 377.85Z" fill="black"/>
<path opacity="0.3" d="M422.62 380.17L422.05 377.85L420.59 375.32L421.51 372.39L417.04 374.8L418.52 376.61L421.22 377.83L422.62 380.17Z" fill="black"/>
<path opacity="0.4" d="M422.15 386.9L423.85 383.57L422.62 380.17L421.22 377.83L418.52 376.61L417.04 374.8L416.36 377.02L418.42 376.78L420.59 378.35L421.66 380.12L422.15 386.9Z" fill="black"/>
<path opacity="0.3" d="M420.9 385.18L421.85 382.77L422.15 386.9L420.9 385.18Z" fill="black"/>
<path opacity="0.4" d="M418.07 383.93L417.97 381.7L417.11 378.12L414.25 381.9L417.63 383.3L418.07 383.93Z" fill="black"/>
<path opacity="0.3" d="M418.42 376.78L417.11 378.12L414.25 381.9L413.45 381.57L414.31 378.92L416.36 377.02L418.42 376.78Z" fill="black"/>
<path opacity="0.2" d="M420.9 385.18L418.07 383.93L417.97 381.7L417.11 378.12L418.42 376.78L420.59 378.35L421.66 380.12L421.85 382.77L420.9 385.18Z" fill="black"/>
<path opacity="0.3" d="M425.05 383.87L425.76 386.85L422.15 386.9L423.85 383.57L425.05 383.87Z" fill="black"/>
<path opacity="0.4" d="M427.21 385.34L426.33 383.69L425.05 383.87L425.76 386.85L427.21 385.34Z" fill="black"/>
<path opacity="0.3" d="M429.77 384.93L429.04 383.32L426.33 383.69L427.21 385.34L429.77 384.93Z" fill="black"/>
<path opacity="0.4" d="M431.31 384.68L430.92 383.06L429.04 383.32L429.77 384.93L431.31 384.68Z" fill="black"/>
<path opacity="0.3" d="M434.09 381.57L430.92 383.06L431.31 384.68L434.31 383.42L434.09 381.57Z" fill="black"/>
<path opacity="0.05" d="M428.52 377.43L428.54 378.55L426.8 378.12L423.05 380.28L423.92 382.34L422.62 380.17L422.05 377.85L422.66 377.09L424.21 375.64L424.59 372.72L427.18 375.09L428.52 377.43Z" fill="black"/>
<path opacity="0.3" d="M414.31 378.92L416.36 377.02L417.04 374.8L421.51 372.39L424.59 372.72L427.1 375.02L429.56 372.72L430.52 369.64L436.74 366.28L441.03 366.74L444.62 370.04L446.94 372.17L451.11 376L453.1 376.53L454.24 379.06L454.55 381.64L450.38 383.39L444.67 384.31L442.66 386.4L437.63 386.48L435.89 384.08L434.3 383.38L434.31 383.42L431.31 384.68L427.21 385.34L425.76 386.85L422.15 386.9L420.9 385.18L418.07 383.93L417.63 383.3L413.45 381.57L414.31 378.92Z" fill="white"/>
<path d="M115.48 23.43L98.2598 33.43L97.5698 275.17L383.57 440.27L400.79 430.27L401.47 188.53L115.48 23.43ZM197.58 141.5L196.2 140.15L195.92 139.32L197.58 141.5ZM306.58 335.5L300.26 339.17L297.78 335L274.49 333.06L263.8 311.54L253.05 311.09L245.92 297.19L232.63 282.87L215.41 292.87L214.58 294.64L210.1 292.05L206.55 280.41L190.47 265.17V254.84L186.47 248.93L191.07 250.27L208.29 240.27L203.15 209.41L196 207.18L195 201.42L210.43 192.42L210.48 172.92L196.17 164.66L195.39 162.92L210.53 154.12L201.17 145L216.64 138.14L225.57 147.97L239.57 139.83L248.44 145.38L255.96 176.38L268.49 174.51L283.36 198L277.76 210.78L302 223.26L298.12 225.41L280.9 235.41L293.39 254.55L302.33 259.71L303.76 269.18L296.32 273.5L305.07 288.7L300.45 293.15L309.54 309.41L298.59 315.77L306.58 335.5Z" fill="#6AFFAE"/>
<path opacity="0.1" d="M115.48 23.43L98.2598 33.43L97.5698 275.17L383.57 440.27L400.79 430.27L401.47 188.53L115.48 23.43ZM197.58 141.5L196.2 140.15L195.92 139.32L197.58 141.5ZM306.58 335.5L300.26 339.17L297.78 335L274.49 333.06L263.8 311.54L253.05 311.09L245.92 297.19L232.63 282.87L215.41 292.87L214.58 294.64L210.1 292.05L206.55 280.41L190.47 265.17V254.84L186.47 248.93L191.07 250.27L208.29 240.27L203.15 209.41L196 207.18L195 201.42L210.43 192.42L210.48 172.92L196.17 164.66L195.39 162.92L210.53 154.12L201.17 145L216.64 138.14L225.57 147.97L239.57 139.83L248.44 145.38L255.96 176.38L268.49 174.51L283.36 198L277.76 210.78L302 223.26L298.12 225.41L280.9 235.41L293.39 254.55L302.33 259.71L303.76 269.18L296.32 273.5L305.07 288.7L300.45 293.15L309.54 309.41L298.59 315.77L306.58 335.5Z" fill="black"/>
<path opacity="0.2" d="M190.5 254.84L173.28 264.84L173.25 275.18L190.47 265.17L190.5 254.84Z" fill="black"/>
<path opacity="0.3" d="M186.49 248.93L183.33 248.01L167.93 256.96L173.28 264.84L190.5 254.84L186.49 248.93Z" fill="black"/>
<path opacity="0.2" d="M206.55 280.41L189.34 290.42L192.88 302.06L210.1 292.05L206.55 280.41Z" fill="black"/>
<path opacity="0.3" d="M190.47 265.17L173.25 275.18L189.34 290.42L206.55 280.41L190.47 265.17Z" fill="black"/>
<path opacity="0.4" d="M167.97 243.55L167.93 256.96L183.33 248.01L167.97 243.55Z" fill="black"/>
<path opacity="0.1" d="M192.88 302.06L207.2 310.32L214.58 294.64L210.1 292.05L192.88 302.06Z" fill="black"/>
<path opacity="0.1" d="M232.63 282.87L215.41 292.87L228.71 307.19L245.92 297.19L232.63 282.87Z" fill="black"/>
<path opacity="0.2" d="M245.92 297.19L228.71 307.19L235.83 321.1L253.05 311.09L245.92 297.19Z" fill="black"/>
<path opacity="0.3" d="M196.01 207.18L178.79 217.19L185.95 219.4L203.17 209.4L196.01 207.18Z" fill="black"/>
<path opacity="0.2" d="M203.17 209.4L185.95 219.4L191.09 250.27L208.31 240.26L203.17 209.4Z" fill="black"/>
<path opacity="0.2" d="M263.8 311.54L246.58 321.55L257.27 343.07L274.49 333.06L263.8 311.54Z" fill="black"/>
<path opacity="0.1" d="M253.05 311.09L235.83 321.1L246.58 321.55L263.8 311.54L253.05 311.09Z" fill="black"/>
<path opacity="0.4" d="M194.96 201.43L193.17 202.47L175.27 197.89L178.79 217.19L196.01 207.18L194.96 201.43Z" fill="black"/>
<path opacity="0.4" d="M195.35 162.96L193.28 164.16L173.57 162.76L178.91 174.71L196.13 164.7L195.35 162.96Z" fill="black"/>
<path opacity="0.1" d="M274.49 333.06L257.27 343.07L280.56 345L297.78 335L274.49 333.06Z" fill="black"/>
<path opacity="0.2" d="M300.29 339.15L297.78 335L280.56 345L285.91 353.85L301.15 344.99L300.29 339.15Z" fill="black"/>
<path opacity="0.2" d="M210.39 192.46L210.44 172.96L193.22 182.97L193.17 202.47L194.96 201.43L210.39 192.46Z" fill="black"/>
<path opacity="0.3" d="M196.13 164.7L178.91 174.71L193.22 182.97L210.44 172.96L196.13 164.7Z" fill="black"/>
<path opacity="0.2" d="M195.92 139.32L191.44 133.45L173.65 134.61L178.98 150.16L196.2 140.15L195.92 139.32Z" fill="black"/>
<path opacity="0.1" d="M210.49 154.16L201.17 145.02L200.5 145.32L197.58 141.5L196.2 140.15L178.98 150.16L193.28 164.16L195.35 162.96L210.49 154.16Z" fill="black"/>
<path opacity="0.3" d="M285.91 353.85L301.79 349.39L301.15 344.99L285.91 353.85Z" fill="black"/>
<path opacity="0.3" d="M307.46 337.51L306.61 335.45L300.29 339.13L307.46 337.51Z" fill="black"/>
<path opacity="0.3" d="M313.58 316.7L309.51 309.42L298.56 315.78L313.58 316.7Z" fill="black"/>
<path opacity="0.3" d="M305.07 278.04L303.73 269.19L296.29 273.51L305.07 278.04Z" fill="black"/>
<path opacity="0.4" d="M229.2 133.34L225.57 147.99L239.58 139.85L229.2 133.34Z" fill="black"/>
<path opacity="0.3" d="M280.87 235.42L302.4 223.48L301.97 223.26L298.09 225.41L280.87 235.42Z" fill="black"/>
<path opacity="0.3" d="M384.22 198.54L383.54 440.28L400.76 430.27L401.44 188.53L384.22 198.54Z" fill="white"/>
<path opacity="0.4" d="M401.44 188.53L115.48 23.43L98.2598 33.44L384.22 198.54L401.44 188.53Z" fill="white"/>
<g opacity="0.2">
<path d="M157.86 170.75L168.83 176.35L157.09 172.22L149.83 163.77L137.33 157.58L130.04 159.25L118.19 148.14L129.41 156.97L136.82 155.81L150.47 162.82L157.86 170.75Z" fill="black"/>
<path d="M165.68 202.32L178.18 208.95L165.5 203.19L159.82 197.56L153.1 194.96L149.79 191.29L126.24 177.69L116.34 168.89L126.41 176.62L142.22 185.74L142.26 172.55L144.64 164.39L143.19 172.89L143.59 186.33L149.2 189.38L153.19 193.64L160.08 195.96L165.68 202.32Z" fill="black"/>
<path d="M298.14 177.83L306.43 180.88L297.66 178.96L292.31 171.54L283.08 165.45L277.7 165.49L269.05 158.53L277.14 163.75L282.61 164.21L292.69 170.67L298.14 177.83Z" fill="black"/>
<path d="M321.83 217.66L329.27 220.55L321.95 218.59L304.56 208.56L302.11 208.44L297.15 204.64L292.94 203.94L283.59 197.39L292.81 203.15L296.97 203.24L302.05 207.4L305.01 207.66L309.15 210.2L309.49 200.64L308.46 193.14L310.18 201.18L310.15 210.92L321.83 217.66Z" fill="black"/>
<path d="M255.11 356.66L265.9 360.85L255.3 358.02L230.08 343.46L226.52 343.3L219.33 337.79L213.22 336.77L199.66 327.27L213.04 335.62L219.07 335.75L226.44 341.78L230.72 342.16L236.73 345.84L237.22 331.98L235.72 321.1L238.22 332.76L238.18 346.88L255.11 356.66Z" fill="black"/>
<path d="M161.7 111.86L170.3 118.42L180.22 124.79L171.05 119.72L162.14 112.76L156.55 111.13L157.1 116.36L156.22 119.9L156.7 124.65L169.07 130.21L174.02 134.65L168.83 130.84L156.72 125.64L155.74 124.59L152.53 124.2L148.58 121.65L146.89 118.93L136.43 111.14L147.29 118.35L149.23 121.13L152.37 123.23L155.57 123.71L155.58 119.31L156.24 115.64L155.61 110.16L161.7 111.86Z" fill="black"/>
<path d="M344.43 338.43L357 348.02L371.51 357.34L358.1 349.92L345.07 339.75L336.89 337.36L337.69 345.01L336.42 350.19L337.11 357.14L355.2 365.27L362.45 371.77L354.86 366.2L337.15 358.59L335.7 357.04L331.01 356.47L325.23 352.74L322.76 348.77L307.46 337.38L323.34 347.92L326.18 351.99L330.77 355.06L335.45 355.76L335.47 349.32L336.43 343.96L335.51 335.92L344.43 338.43Z" fill="black"/>
<path d="M137.15 232.89L140.03 233.78L135.14 224.5L126.4 211L112.19 199.43L126.99 210.52L135.81 224.27L140.92 233.76L146.18 234.18L157.72 237.47L167.93 243.37L157.81 238.63L146.42 234.97L141.67 234.84L145.27 241.9L145.5 246.02L152.04 259.21L144.89 246.09L144.43 241.64L140.54 234.77L137.93 234.32L137.15 232.89Z" fill="black"/>
<path d="M359.25 272.24L345.06 267.69L339.14 267.52L343.62 276.31L343.91 281.45L352.06 297.89L343.16 281.53L342.58 276L337.74 267.44L333.66 266.74L325.13 261.47L335.92 275.64L337.56 275.22L340.49 276.65L338.18 276.17L336.31 276.8L341.52 281.09L335.8 277.37L323.39 260.44L318.19 253.84L306.22 244.88L318.65 253.25L324.07 259.63L333.51 265.09L337.09 266.2L331.01 254.64L320.11 237.81L302.4 223.4L320.85 237.22L331.84 254.35L338.21 266.17L344.77 266.7L359.14 270.8L371.87 278.15L359.25 272.24Z" fill="black"/>
</g>
<g opacity="0.1">
<path d="M354.37 382.26C353.83 381.95 353.37 382.2 353.37 382.82V388.82C353.391 389.162 353.493 389.494 353.667 389.79C353.841 390.085 354.082 390.335 354.37 390.52L370.27 399.69C370.8 400 371.27 399.76 371.27 399.13V393.13C371.249 392.789 371.147 392.459 370.973 392.165C370.799 391.871 370.558 391.623 370.27 391.44L354.37 382.26Z" fill="black"/>
<path d="M354.37 403C353.83 402.69 353.37 402.93 353.37 403.56V409.56C353.391 409.901 353.493 410.231 353.667 410.525C353.841 410.819 354.082 411.067 354.37 411.25L370.27 420.43C370.8 420.74 371.27 420.49 371.27 419.87V413.87C371.249 413.528 371.147 413.196 370.973 412.9C370.8 412.605 370.559 412.355 370.27 412.17L354.37 403Z" fill="black"/>
<path d="M343.81 386.4C343.27 386.09 342.81 386.34 342.81 386.96V392.96C342.831 393.301 342.933 393.631 343.107 393.925C343.281 394.219 343.522 394.467 343.81 394.65L359.7 403.83C360.24 404.14 360.7 403.89 360.7 403.27V397.27C360.679 396.929 360.577 396.599 360.403 396.305C360.229 396.011 359.988 395.763 359.7 395.58L343.81 386.4Z" fill="black"/>
<g opacity="0.07">
<path d="M354.37 382.26C353.83 381.95 353.37 382.2 353.37 382.82V388.82C353.391 389.162 353.493 389.494 353.667 389.79C353.841 390.085 354.082 390.335 354.37 390.52L370.27 399.69C370.8 400 371.27 399.76 371.27 399.13V393.13C371.249 392.789 371.147 392.459 370.973 392.165C370.799 391.871 370.558 391.623 370.27 391.44L354.37 382.26Z" fill="black"/>
<path d="M354.37 403C353.83 402.69 353.37 402.93 353.37 403.56V409.56C353.391 409.901 353.493 410.231 353.667 410.525C353.841 410.819 354.082 411.067 354.37 411.25L370.27 420.43C370.8 420.74 371.27 420.49 371.27 419.87V413.87C371.249 413.528 371.147 413.196 370.973 412.9C370.8 412.605 370.559 412.355 370.27 412.17L354.37 403Z" fill="black"/>
<path d="M343.81 386.4C343.27 386.09 342.81 386.34 342.81 386.96V392.96C342.831 393.301 342.933 393.631 343.107 393.925C343.281 394.219 343.522 394.467 343.81 394.65L359.7 403.83C360.24 404.14 360.7 403.89 360.7 403.27V397.27C360.679 396.929 360.577 396.599 360.403 396.305C360.229 396.011 359.988 395.763 359.7 395.58L343.81 386.4Z" fill="black"/>
</g>
</g>
<g opacity="0.1">
<path d="M125.29 231.44C124.75 231.13 124.29 231.37 124.29 232V238C124.311 238.341 124.413 238.671 124.587 238.965C124.761 239.259 125.002 239.507 125.29 239.69L141.18 248.87C141.72 249.18 142.18 248.93 142.18 248.31V242.31C142.161 241.969 142.06 241.637 141.886 241.343C141.712 241.049 141.47 240.801 141.18 240.62L125.29 231.44Z" fill="black"/>
<path d="M125.29 252.15C124.75 251.83 124.29 252.08 124.29 252.71V258.71C124.311 259.051 124.413 259.381 124.587 259.675C124.761 259.969 125.002 260.217 125.29 260.4L141.18 269.58C141.72 269.89 142.18 269.64 142.18 269.02V263.02C142.162 262.677 142.062 262.344 141.888 262.048C141.714 261.752 141.471 261.502 141.18 261.32L125.29 252.15Z" fill="black"/>
<path d="M114.73 235.58C114.19 235.27 113.73 235.51 113.73 236.14V242.14C113.751 242.481 113.853 242.811 114.027 243.105C114.201 243.399 114.442 243.647 114.73 243.83L130.6 253C131.14 253.31 131.6 253.06 131.6 252.44V246.44C131.579 246.098 131.477 245.766 131.303 245.47C131.129 245.175 130.889 244.925 130.6 244.74L114.73 235.58Z" fill="black"/>
<g opacity="0.07">
<path d="M125.29 231.44C124.75 231.13 124.29 231.37 124.29 232V238C124.311 238.341 124.413 238.671 124.587 238.965C124.761 239.259 125.002 239.507 125.29 239.69L141.18 248.87C141.72 249.18 142.18 248.93 142.18 248.31V242.31C142.161 241.969 142.06 241.637 141.886 241.343C141.712 241.049 141.47 240.801 141.18 240.62L125.29 231.44Z" fill="black"/>
<path d="M125.29 252.15C124.75 251.83 124.29 252.08 124.29 252.71V258.71C124.311 259.051 124.413 259.381 124.587 259.675C124.761 259.969 125.002 260.217 125.29 260.4L141.18 269.58C141.72 269.89 142.18 269.64 142.18 269.02V263.02C142.162 262.677 142.062 262.344 141.888 262.048C141.714 261.752 141.471 261.502 141.18 261.32L125.29 252.15Z" fill="black"/>
<path d="M114.73 235.58C114.19 235.27 113.73 235.51 113.73 236.14V242.14C113.751 242.481 113.853 242.811 114.027 243.105C114.201 243.399 114.442 243.647 114.73 243.83L130.6 253C131.14 253.31 131.6 253.06 131.6 252.44V246.44C131.579 246.098 131.477 245.766 131.303 245.47C131.129 245.175 130.889 244.925 130.6 244.74L114.73 235.58Z" fill="black"/>
</g>
</g>
<g opacity="0.1">
<path d="M104.58 241.79C104.04 241.48 103.58 241.73 103.58 242.35V248.35C103.6 248.692 103.701 249.025 103.875 249.321C104.049 249.616 104.29 249.866 104.58 250.05L120.47 259.22C121.01 259.54 121.47 259.29 121.47 258.66V252.66C121.449 252.319 121.347 251.989 121.173 251.695C120.999 251.401 120.758 251.153 120.47 250.97L104.58 241.79Z" fill="black"/>
<path d="M104.58 262.5C104.04 262.19 103.58 262.44 103.58 263.06V269.06C103.601 269.402 103.703 269.734 103.877 270.03C104.051 270.325 104.292 270.575 104.58 270.76L120.45 280C120.99 280.31 121.45 280.07 121.45 279.44V273.44C121.429 273.099 121.327 272.769 121.153 272.475C120.979 272.181 120.738 271.933 120.45 271.75L104.58 262.5Z" fill="black"/>
<g opacity="0.07">
<path d="M104.58 241.79C104.04 241.48 103.58 241.73 103.58 242.35V248.35C103.6 248.692 103.701 249.025 103.875 249.321C104.049 249.616 104.29 249.866 104.58 250.05L120.47 259.22C121.01 259.54 121.47 259.29 121.47 258.66V252.66C121.449 252.319 121.347 251.989 121.173 251.695C120.999 251.401 120.758 251.153 120.47 250.97L104.58 241.79Z" fill="black"/>
<path d="M104.58 262.5C104.04 262.19 103.58 262.44 103.58 263.06V269.06C103.601 269.402 103.703 269.734 103.877 270.03C104.051 270.325 104.292 270.575 104.58 270.76L120.45 280C120.99 280.31 121.45 280.07 121.45 279.44V273.44C121.429 273.099 121.327 272.769 121.153 272.475C120.979 272.181 120.738 271.933 120.45 271.75L104.58 262.5Z" fill="black"/>
</g>
</g>
<g opacity="0.1">
<path d="M122 179.4C121.46 179.09 121 179.34 121 179.96V185.96C121.019 186.303 121.12 186.636 121.294 186.931C121.468 187.227 121.71 187.477 122 187.66L137.9 196.84C138.44 197.15 138.9 196.9 138.9 196.27V190.27C138.88 189.928 138.779 189.595 138.605 189.299C138.431 189.004 138.19 188.754 137.9 188.57L122 179.4Z" fill="black"/>
<path d="M111.46 183.54C110.92 183.23 110.46 183.48 110.46 184.1V190.1C110.48 190.442 110.581 190.775 110.755 191.071C110.928 191.366 111.17 191.616 111.46 191.8L127.33 201C127.87 201.32 128.33 201.07 128.33 200.44V194.44C128.309 194.099 128.207 193.769 128.033 193.475C127.859 193.181 127.618 192.933 127.33 192.75L111.46 183.54Z" fill="black"/>
<g opacity="0.07">
<path d="M122 179.4C121.46 179.09 121 179.34 121 179.96V185.96C121.019 186.303 121.12 186.636 121.294 186.931C121.468 187.227 121.71 187.477 122 187.66L137.9 196.84C138.44 197.15 138.9 196.9 138.9 196.27V190.27C138.88 189.928 138.779 189.595 138.605 189.299C138.431 189.004 138.19 188.754 137.9 188.57L122 179.4Z" fill="black"/>
<path d="M111.46 183.54C110.92 183.23 110.46 183.48 110.46 184.1V190.1C110.48 190.442 110.581 190.775 110.755 191.071C110.928 191.366 111.17 191.616 111.46 191.8L127.33 201C127.87 201.32 128.33 201.07 128.33 200.44V194.44C128.309 194.099 128.207 193.769 128.033 193.475C127.859 193.181 127.618 192.933 127.33 192.75L111.46 183.54Z" fill="black"/>
</g>
</g>
<g opacity="0.1">
<path d="M115.33 65.13C114.79 64.82 114.33 65.07 114.33 65.7V71.7C114.349 72.0424 114.45 72.3752 114.624 72.6708C114.798 72.9664 115.04 73.2164 115.33 73.4L131.23 82.58C131.77 82.89 132.23 82.64 132.23 82.01V76.01C132.21 75.6676 132.109 75.3348 131.935 75.0392C131.761 74.7436 131.519 74.4936 131.23 74.31L115.33 65.13Z" fill="black"/>
<path d="M115.33 85.84C114.79 85.53 114.33 85.78 114.33 86.4V92.4C114.349 92.7424 114.45 93.0752 114.624 93.3708C114.798 93.6664 115.04 93.9164 115.33 94.1L131.23 103.27C131.77 103.58 132.23 103.34 132.23 102.71V96.71C132.208 96.3693 132.107 96.0385 131.933 95.7448C131.759 95.451 131.518 95.2026 131.23 95.02L115.33 85.84Z" fill="black"/>
<path d="M124.76 81C124.22 80.68 123.76 80.93 123.76 81.56V87.56C123.781 87.9007 123.883 88.2314 124.057 88.5252C124.23 88.819 124.471 89.0674 124.76 89.25L140.65 98.43C141.19 98.74 141.65 98.49 141.65 97.87V91.87C141.63 91.5276 141.529 91.1948 141.355 90.8992C141.181 90.6036 140.939 90.3536 140.65 90.17L124.76 81Z" fill="black"/>
<path d="M104.76 69.27C104.22 68.96 103.76 69.21 103.76 69.83V75.83C103.78 76.1724 103.881 76.5052 104.054 76.8008C104.228 77.0964 104.47 77.3464 104.76 77.53L120.65 86.7C121.19 87.02 121.65 86.77 121.65 86.14V80.14C121.628 79.7993 121.527 79.4685 121.353 79.1748C121.179 78.881 120.938 78.6326 120.65 78.45L104.76 69.27Z" fill="black"/>
<g opacity="0.07">
<path d="M115.33 65.13C114.79 64.82 114.33 65.07 114.33 65.7V71.7C114.349 72.0424 114.45 72.3752 114.624 72.6708C114.798 72.9664 115.04 73.2164 115.33 73.4L131.23 82.58C131.77 82.89 132.23 82.64 132.23 82.01V76.01C132.21 75.6676 132.109 75.3348 131.935 75.0392C131.761 74.7436 131.519 74.4936 131.23 74.31L115.33 65.13Z" fill="black"/>
<path d="M115.33 85.84C114.79 85.53 114.33 85.78 114.33 86.4V92.4C114.349 92.7424 114.45 93.0752 114.624 93.3708C114.798 93.6664 115.04 93.9164 115.33 94.1L131.23 103.27C131.77 103.58 132.23 103.34 132.23 102.71V96.71C132.208 96.3693 132.107 96.0385 131.933 95.7448C131.759 95.451 131.518 95.2026 131.23 95.02L115.33 85.84Z" fill="black"/>
<path d="M124.76 81C124.22 80.68 123.76 80.93 123.76 81.56V87.56C123.781 87.9007 123.883 88.2314 124.057 88.5252C124.23 88.819 124.471 89.0674 124.76 89.25L140.65 98.43C141.19 98.74 141.65 98.49 141.65 97.87V91.87C141.63 91.5276 141.529 91.1948 141.355 90.8992C141.181 90.6036 140.939 90.3536 140.65 90.17L124.76 81Z" fill="black"/>
<path d="M104.76 69.27C104.22 68.96 103.76 69.21 103.76 69.83V75.83C103.78 76.1724 103.881 76.5052 104.054 76.8008C104.228 77.0964 104.47 77.3464 104.76 77.53L120.65 86.7C121.19 87.02 121.65 86.77 121.65 86.14V80.14C121.628 79.7993 121.527 79.4685 121.353 79.1748C121.179 78.881 120.938 78.6326 120.65 78.45L104.76 69.27Z" fill="black"/>
</g>
</g>
<g opacity="0.1">
<path d="M145.76 72.46C145.22 72.15 144.76 72.4 144.76 73.02V79.02C144.781 79.362 144.883 79.6942 145.057 79.9896C145.23 80.2849 145.471 80.5352 145.76 80.72L161.65 89.89C162.19 90.2 162.65 89.96 162.65 89.33V83.33C162.628 82.9893 162.527 82.6586 162.353 82.3648C162.179 82.071 161.938 81.8226 161.65 81.64L145.76 72.46Z" fill="black"/>
<path d="M145.76 93.17C145.22 92.86 144.76 93.1 144.76 93.73V99.73C144.781 100.071 144.883 100.401 145.057 100.695C145.23 100.989 145.471 101.237 145.76 101.42L161.65 110.6C162.19 110.91 162.65 110.66 162.65 110.04V104.04C162.628 103.698 162.527 103.366 162.353 103.07C162.179 102.775 161.938 102.525 161.65 102.34L145.76 93.17Z" fill="black"/>
<path d="M155.2 88.28C154.66 87.97 154.2 88.22 154.2 88.84V94.84C154.218 95.1828 154.318 95.5162 154.492 95.8121C154.666 96.1079 154.909 96.3576 155.2 96.54L171.09 105.72C171.63 106.03 172.09 105.78 172.09 105.15V99.15C172.07 98.8076 171.969 98.4748 171.795 98.1792C171.621 97.8836 171.379 97.6336 171.09 97.45L155.2 88.28Z" fill="black"/>
<path d="M135.2 76.6C134.66 76.29 134.2 76.54 134.2 77.16V83.16C134.22 83.5009 134.322 83.8319 134.495 84.1258C134.669 84.4197 134.911 84.668 135.2 84.85L151.1 94.03C151.64 94.34 152.1 94.1 152.1 93.47V87.47C152.078 87.1293 151.977 86.7986 151.803 86.5048C151.629 86.211 151.388 85.9626 151.1 85.78L135.2 76.6Z" fill="black"/>
<g opacity="0.07">
<path d="M145.76 72.46C145.22 72.15 144.76 72.4 144.76 73.02V79.02C144.781 79.362 144.883 79.6942 145.057 79.9896C145.23 80.2849 145.471 80.5352 145.76 80.72L161.65 89.89C162.19 90.2 162.65 89.96 162.65 89.33V83.33C162.628 82.9893 162.527 82.6586 162.353 82.3648C162.179 82.071 161.938 81.8226 161.65 81.64L145.76 72.46Z" fill="black"/>
<path d="M145.76 93.17C145.22 92.86 144.76 93.1 144.76 93.73V99.73C144.781 100.071 144.883 100.401 145.057 100.695C145.23 100.989 145.471 101.237 145.76 101.42L161.65 110.6C162.19 110.91 162.65 110.66 162.65 110.04V104.04C162.628 103.698 162.527 103.366 162.353 103.07C162.179 102.775 161.938 102.525 161.65 102.34L145.76 93.17Z" fill="black"/>
<path d="M155.2 88.28C154.66 87.97 154.2 88.22 154.2 88.84V94.84C154.218 95.1828 154.318 95.5162 154.492 95.8121C154.666 96.1079 154.909 96.3576 155.2 96.54L171.09 105.72C171.63 106.03 172.09 105.78 172.09 105.15V99.15C172.07 98.8076 171.969 98.4748 171.795 98.1792C171.621 97.8836 171.379 97.6336 171.09 97.45L155.2 88.28Z" fill="black"/>
<path d="M135.2 76.6C134.66 76.29 134.2 76.54 134.2 77.16V83.16C134.22 83.5009 134.322 83.8319 134.495 84.1258C134.669 84.4197 134.911 84.668 135.2 84.85L151.1 94.03C151.64 94.34 152.1 94.1 152.1 93.47V87.47C152.078 87.1293 151.977 86.7986 151.803 86.5048C151.629 86.211 151.388 85.9626 151.1 85.78L135.2 76.6Z" fill="black"/>
</g>
</g>
<g opacity="0.1">
<path d="M329.34 291.57C328.8 291.26 328.34 291.51 328.34 292.13V298.13C328.36 298.472 328.461 298.805 328.634 299.101C328.808 299.396 329.05 299.646 329.34 299.83L345.21 309C345.75 309.32 346.21 309.07 346.21 308.44V302.44C346.189 302.099 346.087 301.769 345.913 301.475C345.739 301.181 345.498 300.933 345.21 300.75L329.34 291.57Z" fill="black"/>
<path d="M329.34 312.28C328.8 311.97 328.34 312.22 328.34 312.84V318.84C328.361 319.182 328.463 319.514 328.637 319.81C328.81 320.105 329.051 320.355 329.34 320.54L345.23 329.71C345.77 330.02 346.23 329.78 346.23 329.15V323.15C346.209 322.809 346.107 322.479 345.933 322.185C345.759 321.891 345.518 321.643 345.23 321.46L329.34 312.28Z" fill="black"/>
<path d="M338.78 307.39C338.24 307.08 337.78 307.33 337.78 307.96V313.96C337.798 314.303 337.898 314.636 338.072 314.932C338.246 315.228 338.489 315.478 338.78 315.66L354.67 324.84C355.21 325.15 355.67 324.9 355.67 324.28V318.28C355.65 317.938 355.549 317.605 355.375 317.309C355.201 317.014 354.959 316.764 354.67 316.58L338.78 307.39Z" fill="black"/>
<path d="M318.78 295.71C318.24 295.4 317.78 295.65 317.78 296.27V302.27C317.8 302.612 317.902 302.945 318.076 303.24C318.249 303.536 318.491 303.786 318.78 303.97L334.68 313.14C335.22 313.45 335.68 313.21 335.68 312.58V306.58C335.658 306.239 335.557 305.909 335.383 305.615C335.209 305.321 334.968 305.073 334.68 304.89L318.78 295.71Z" fill="black"/>
<g opacity="0.07">
<path d="M329.34 291.57C328.8 291.26 328.34 291.51 328.34 292.13V298.13C328.36 298.472 328.461 298.805 328.634 299.101C328.808 299.396 329.05 299.646 329.34 299.83L345.21 309C345.75 309.32 346.21 309.07 346.21 308.44V302.44C346.189 302.099 346.087 301.769 345.913 301.475C345.739 301.181 345.498 300.933 345.21 300.75L329.34 291.57Z" fill="black"/>
<path d="M329.34 312.28C328.8 311.97 328.34 312.22 328.34 312.84V318.84C328.361 319.182 328.463 319.514 328.637 319.81C328.81 320.105 329.051 320.355 329.34 320.54L345.23 329.71C345.77 330.02 346.23 329.78 346.23 329.15V323.15C346.209 322.809 346.107 322.479 345.933 322.185C345.759 321.891 345.518 321.643 345.23 321.46L329.34 312.28Z" fill="black"/>
<path d="M338.78 307.39C338.24 307.08 337.78 307.33 337.78 307.96V313.96C337.798 314.303 337.898 314.636 338.072 314.932C338.246 315.228 338.489 315.478 338.78 315.66L354.67 324.84C355.21 325.15 355.67 324.9 355.67 324.28V318.28C355.65 317.938 355.549 317.605 355.375 317.309C355.201 317.014 354.959 316.764 354.67 316.58L338.78 307.39Z" fill="black"/>
<path d="M318.78 295.71C318.24 295.4 317.78 295.65 317.78 296.27V302.27C317.8 302.612 317.902 302.945 318.076 303.24C318.249 303.536 318.491 303.786 318.78 303.97L334.68 313.14C335.22 313.45 335.68 313.21 335.68 312.58V306.58C335.658 306.239 335.557 305.909 335.383 305.615C335.209 305.321 334.968 305.073 334.68 304.89L318.78 295.71Z" fill="black"/>
</g>
</g>
<g opacity="0.1">
<path d="M340.77 188.19C340.23 187.88 339.77 188.12 339.77 188.75V194.75C339.791 195.091 339.893 195.421 340.067 195.715C340.241 196.009 340.482 196.257 340.77 196.44L356.66 205.62C357.2 205.93 357.66 205.68 357.66 205.06V199.06C357.642 198.717 357.542 198.384 357.368 198.088C357.194 197.792 356.951 197.542 356.66 197.36L340.77 188.19Z" fill="black"/>
<path d="M330.21 192.33C329.67 192.01 329.21 192.26 329.21 192.89V198.89C329.231 199.231 329.333 199.561 329.507 199.855C329.681 200.149 329.922 200.397 330.21 200.58L346.11 209.76C346.65 210.07 347.11 209.82 347.11 209.2V203.2C347.09 202.858 346.989 202.525 346.815 202.229C346.641 201.934 346.4 201.684 346.11 201.5L330.21 192.33Z" fill="black"/>
<g opacity="0.07">
<path d="M340.77 188.19C340.23 187.88 339.77 188.12 339.77 188.75V194.75C339.791 195.091 339.893 195.421 340.067 195.715C340.241 196.009 340.482 196.257 340.77 196.44L356.66 205.62C357.2 205.93 357.66 205.68 357.66 205.06V199.06C357.642 198.717 357.542 198.384 357.368 198.088C357.194 197.792 356.951 197.542 356.66 197.36L340.77 188.19Z" fill="black"/>
<path d="M330.21 192.33C329.67 192.01 329.21 192.26 329.21 192.89V198.89C329.231 199.231 329.333 199.561 329.507 199.855C329.681 200.149 329.922 200.397 330.21 200.58L346.11 209.76C346.65 210.07 347.11 209.82 347.11 209.2V203.2C347.09 202.858 346.989 202.525 346.815 202.229C346.641 201.934 346.4 201.684 346.11 201.5L330.21 192.33Z" fill="black"/>
</g>
</g>
<g opacity="0.1">
<path d="M310.41 352.7C309.87 352.39 309.41 352.64 309.41 353.26V359.26C309.429 359.602 309.53 359.935 309.704 360.231C309.878 360.526 310.12 360.776 310.41 360.96L326.31 370.14C326.85 370.45 327.31 370.2 327.31 369.57V363.57C327.29 363.228 327.189 362.895 327.015 362.599C326.841 362.304 326.599 362.054 326.31 361.87L310.41 352.7Z" fill="black"/>
<path d="M310.41 373.41C309.87 373.1 309.41 373.35 309.41 373.97V379.97C309.431 380.312 309.533 380.644 309.706 380.94C309.88 381.235 310.121 381.485 310.41 381.67L326.31 390.84C326.85 391.15 327.31 390.91 327.31 390.28V384.28C327.288 383.939 327.187 383.609 327.013 383.315C326.839 383.021 326.598 382.773 326.31 382.59L310.41 373.41Z" fill="black"/>
<path d="M319.84 368.53C319.3 368.21 318.84 368.46 318.84 369.09V375.09C318.861 375.431 318.963 375.761 319.137 376.055C319.311 376.349 319.551 376.597 319.84 376.78L335.71 386C336.25 386.31 336.71 386.06 336.71 385.44V379.44C336.692 379.097 336.591 378.764 336.417 378.468C336.243 378.172 336.001 377.922 335.71 377.74L319.84 368.53Z" fill="black"/>
<path d="M299.84 356.84C299.3 356.53 298.84 356.78 298.84 357.4V363.4C298.86 363.742 298.961 364.075 299.134 364.371C299.308 364.666 299.55 364.916 299.84 365.1L315.73 374.27C316.27 374.59 316.73 374.34 316.73 373.71V367.71C316.709 367.369 316.607 367.039 316.433 366.745C316.259 366.451 316.018 366.203 315.73 366.02L299.84 356.84Z" fill="black"/>
<g opacity="0.07">
<path d="M310.41 352.7C309.87 352.39 309.41 352.64 309.41 353.26V359.26C309.429 359.602 309.53 359.935 309.704 360.231C309.878 360.526 310.12 360.776 310.41 360.96L326.31 370.14C326.85 370.45 327.31 370.2 327.31 369.57V363.57C327.29 363.228 327.189 362.895 327.015 362.599C326.841 362.304 326.599 362.054 326.31 361.87L310.41 352.7Z" fill="black"/>
<path d="M310.41 373.41C309.87 373.1 309.41 373.35 309.41 373.97V379.97C309.431 380.312 309.533 380.644 309.706 380.94C309.88 381.235 310.121 381.485 310.41 381.67L326.31 390.84C326.85 391.15 327.31 390.91 327.31 390.28V384.28C327.288 383.939 327.187 383.609 327.013 383.315C326.839 383.021 326.598 382.773 326.31 382.59L310.41 373.41Z" fill="black"/>
<path d="M319.84 368.53C319.3 368.21 318.84 368.46 318.84 369.09V375.09C318.861 375.431 318.963 375.761 319.137 376.055C319.311 376.349 319.551 376.597 319.84 376.78L335.71 386C336.25 386.31 336.71 386.06 336.71 385.44V379.44C336.692 379.097 336.591 378.764 336.417 378.468C336.243 378.172 336.001 377.922 335.71 377.74L319.84 368.53Z" fill="black"/>
<path d="M299.84 356.84C299.3 356.53 298.84 356.78 298.84 357.4V363.4C298.86 363.742 298.961 364.075 299.134 364.371C299.308 364.666 299.55 364.916 299.84 365.1L315.73 374.27C316.27 374.59 316.73 374.34 316.73 373.71V367.71C316.709 367.369 316.607 367.039 316.433 366.745C316.259 366.451 316.018 366.203 315.73 366.02L299.84 356.84Z" fill="black"/>
</g>
</g>
<g opacity="0.1">
<path d="M356.65 212.76C356.11 212.45 355.65 212.7 355.65 213.32V219.32C355.671 219.661 355.773 219.991 355.947 220.285C356.121 220.579 356.362 220.827 356.65 221.01L372.54 230.19C373.08 230.5 373.54 230.25 373.54 229.63V223.63C373.519 223.289 373.417 222.959 373.243 222.665C373.069 222.371 372.828 222.123 372.54 221.94L356.65 212.76Z" fill="black"/>
<path d="M356.65 233.47C356.11 233.16 355.65 233.4 355.65 234.03V240.03C355.671 240.371 355.773 240.701 355.947 240.995C356.121 241.289 356.362 241.537 356.65 241.72L372.54 250.9C373.08 251.21 373.54 250.96 373.54 250.34V244.34C373.52 243.998 373.419 243.665 373.245 243.369C373.071 243.074 372.83 242.824 372.54 242.64L356.65 233.47Z" fill="black"/>
<path d="M346.09 216.9C345.55 216.59 345.09 216.83 345.09 217.46V223.46C345.109 223.801 345.209 224.133 345.383 224.427C345.558 224.721 345.8 224.969 346.09 225.15L362 234.36C362.54 234.67 363 234.42 363 233.8V227.8C362.979 227.458 362.877 227.126 362.703 226.83C362.529 226.535 362.288 226.285 362 226.1L346.09 216.9Z" fill="black"/>
<g opacity="0.07">
<path d="M356.65 212.76C356.11 212.45 355.65 212.7 355.65 213.32V219.32C355.671 219.661 355.773 219.991 355.947 220.285C356.121 220.579 356.362 220.827 356.65 221.01L372.54 230.19C373.08 230.5 373.54 230.25 373.54 229.63V223.63C373.519 223.289 373.417 222.959 373.243 222.665C373.069 222.371 372.828 222.123 372.54 221.94L356.65 212.76Z" fill="black"/>
<path d="M356.65 233.47C356.11 233.16 355.65 233.4 355.65 234.03V240.03C355.671 240.371 355.773 240.701 355.947 240.995C356.121 241.289 356.362 241.537 356.65 241.72L372.54 250.9C373.08 251.21 373.54 250.96 373.54 250.34V244.34C373.52 243.998 373.419 243.665 373.245 243.369C373.071 243.074 372.83 242.824 372.54 242.64L356.65 233.47Z" fill="black"/>
<path d="M346.09 216.9C345.55 216.59 345.09 216.83 345.09 217.46V223.46C345.109 223.801 345.209 224.133 345.383 224.427C345.558 224.721 345.8 224.969 346.09 225.15L362 234.36C362.54 234.67 363 234.42 363 233.8V227.8C362.979 227.458 362.877 227.126 362.703 226.83C362.529 226.535 362.288 226.285 362 226.1L346.09 216.9Z" fill="black"/>
</g>
</g>
<path d="M91.0498 275.68L102.28 269.15L102.3 263.45L98.6998 260.46L87.4698 266.98L84.2798 269.51L87.4498 275.4L91.0498 275.68Z" fill="#6AFFAE"/>
<path opacity="0.3" d="M102.3 263.45L98.6997 260.46L87.4697 266.98L91.0697 269.97L102.3 263.45Z" fill="white"/>
<path opacity="0.2" d="M91.0498 275.68L102.28 269.15L102.3 263.45L91.0698 269.97L91.0498 275.68Z" fill="white"/>
<path d="M183.41 152.51L190.21 151.93L201.43 145.4L193.41 130.35L184.5 127.79L173.28 134.32L183.41 152.51Z" fill="#6AFFAE"/>
<path opacity="0.3" d="M190.21 151.93L201.43 145.4L193.41 130.35L182.18 136.87L190.21 151.93Z" fill="white"/>
<path opacity="0.4" d="M182.18 136.87L193.41 130.35L184.5 127.79L173.28 134.32L182.18 136.87Z" fill="white"/>
<path d="M100.33 309.73L100.34 307.59L97.9498 306.21L95.8898 297.44L88.4898 296.13L77.2598 302.65L75.5499 308.42L73.8398 311.59L78.8998 322.74L82.2999 322.53L89.8198 325.19L101.05 318.66L100.33 309.73Z" fill="#6AFFAE"/>
<path opacity="0.4" d="M100.33 309.73L89.1099 316.25L89.8199 325.19L101.05 318.66L100.33 309.73Z" fill="white"/>
<path opacity="0.4" d="M89.1097 314.12L100.34 307.59L97.9497 306.21L86.7197 312.73L89.1097 314.12Z" fill="white"/>
<path opacity="0.3" d="M89.1099 316.25L100.33 309.73L100.34 307.59L89.1099 314.12V316.25Z" fill="white"/>
<path opacity="0.3" d="M86.7199 312.73L97.9499 306.21L95.8899 297.44L84.6699 303.96L86.7199 312.73Z" fill="white"/>
<path opacity="0.4" d="M95.8898 297.44L88.4898 296.13L77.2598 302.65L84.6698 303.96L95.8898 297.44Z" fill="white"/>
<path d="M308.52 440.78L304.4 430.52L298.94 427.36L296.69 423.11L285.46 429.63L282.06 432.88L282.79 440.55L286.56 441.48L290.5 449.01L297.3 447.3L308.52 440.78Z" fill="#6AFFAE"/>
<path opacity="0.4" d="M298.94 427.36L296.69 423.11L285.46 429.63L287.71 433.88L298.94 427.36Z" fill="white"/>
<path opacity="0.3" d="M293.18 437.04L304.4 430.52L298.94 427.36L287.71 433.88L293.18 437.04Z" fill="white"/>
<path opacity="0.4" d="M297.3 447.3L308.52 440.78L304.4 430.52L293.18 437.04L297.3 447.3Z" fill="white"/>
<path d="M189.28 298.55L186.56 292.64L183.16 291.42L171.94 297.94L171.92 303.7L175.3 308.04L175.29 313.39L182.07 317.31L193.29 310.78L192.19 301.42L189.28 298.55Z" fill="#6AFFAE"/>
<path opacity="0.3" d="M178.05 305.07L189.28 298.55L186.56 292.64L175.33 299.17L178.05 305.07Z" fill="white"/>
<path opacity="0.4" d="M186.56 292.64L183.16 291.42L171.94 297.94L175.33 299.17L186.56 292.64Z" fill="white"/>
<path opacity="0.4" d="M180.96 307.94L192.19 301.42L189.28 298.55L178.05 305.07L180.96 307.94Z" fill="white"/>
<path opacity="0.3" d="M180.96 307.94L182.07 317.31L193.29 310.78L192.19 301.42L180.96 307.94Z" fill="white"/>
<path d="M116.01 217.58L112.23 222.62L118.37 230.04L129.59 223.51L130.99 218.96L127.24 211.06L116.01 217.58Z" fill="#6AFFAE"/>
<path opacity="0.3" d="M118.37 230.04L129.59 223.51L130.99 218.96L119.77 225.48L118.37 230.04Z" fill="white"/>
<path opacity="0.4" d="M116.01 217.58L119.77 225.48L130.99 218.96L127.24 211.06L116.01 217.58Z" fill="white"/>
<path d="M61.8899 327.58L59.2899 331.87L51.4499 335.14L51.4199 343.8L57.7599 351.23L66.8499 349.72L66.8599 346.08L75.9999 344.4L76.0299 335.74L75.8599 327.48L61.8899 327.58Z" fill="#6AFFAE"/>
<path opacity="0.2" d="M66.52 341.12L66.87 341.06L66.86 346.08L76 344.4L76.03 335.74L66.53 337.49L66.52 341.12Z" fill="white"/>
<path opacity="0.3" d="M66.5198 341.12L57.7798 342.57L57.7598 351.23L66.8498 349.72L66.8598 346.08L66.8698 341.06L66.5198 341.12Z" fill="white"/>
<path opacity="0.2" d="M51.4499 335.14L51.4199 343.8L57.7599 351.23L57.7799 342.57L51.4499 335.14Z" fill="white"/>
<path d="M217.07 414.3L217.09 405.65L205.97 401.81L205.49 413.87L205.47 422.52L216.13 424.18L217.07 414.3Z" fill="#6AFFAE"/>
<path opacity="0.3" d="M217.07 414.3L217.09 405.65L216.16 415.52L216.13 424.18L217.07 414.3Z" fill="white"/>
<path opacity="0.2" d="M216.16 415.52L205.49 413.87L205.47 422.52L216.13 424.18L216.16 415.52Z" fill="white"/>
<path d="M136.57 356.99L148.21 358.07L150.87 351.73L150.89 343.07L145.72 340.08L145.73 337.13L137.84 337.79L132.32 341.86L132.3 350.51L136.59 351.88L136.57 356.99Z" fill="#6AFFAE"/>
<path opacity="0.2" d="M136.59 348.33L137.16 348.38L137.18 343.4L132.32 341.86L132.3 350.51L136.59 351.88V348.33Z" fill="white"/>
<path opacity="0.2" d="M150.87 351.73L150.89 343.07L148.24 349.42L148.21 358.07L150.87 351.73Z" fill="white"/>
<path opacity="0.3" d="M136.59 351.88L136.57 356.99L148.21 358.07L148.24 349.42L137.16 348.38L136.59 348.33V351.88Z" fill="white"/>
<path d="M133.3 409.94L125.1 408.82L122.98 412.99L122.96 421.65L136.89 426.32L144.67 421.8L144.69 413.14L136.06 407.03L133.3 409.94Z" fill="#6AFFAE"/>
<path opacity="0.3" d="M136.89 426.32L144.67 421.8L144.69 413.14L136.91 417.66L136.89 426.32Z" fill="white"/>
<path opacity="0.2" d="M122.98 412.99L122.96 421.65L136.89 426.32L136.91 417.66L122.98 412.99Z" fill="white"/>
<path d="M230.41 406.65L230.86 402.22L230.88 393.56L229.07 389.7L223.38 390.31L223.09 392.44L219.13 392.78L219.12 396.71L214.75 399.26L214.72 407.92L219.4 409.12L223.05 408.97L230.41 406.65Z" fill="#6AFFAE"/>
<path opacity="0.3" d="M230.86 402.22L230.88 393.56L230.43 398L230.41 406.65L230.86 402.22Z" fill="white"/>
<path opacity="0.2" d="M230.41 406.65L230.43 398L223.07 400.31L223.05 408.97L230.41 406.65Z" fill="white"/>
<path opacity="0.3" d="M223.07 400.31L219.43 400.46L219.4 409.12L223.05 408.97L223.07 400.31Z" fill="white"/>
<path opacity="0.2" d="M219.4 400.46L219.11 400.38L214.75 399.26L214.72 407.92L219.4 409.12L219.43 400.46H219.4Z" fill="white"/>
<path d="M269.66 385.5L256.58 384.81L251.43 387.22L251.41 395.87L254.06 401.35L264.66 398.14L269.64 394.15L269.66 385.5Z" fill="#6AFFAE"/>
<path opacity="0.3" d="M269.66 385.5L264.69 389.48L264.66 398.14L269.64 394.15L269.66 385.5Z" fill="white"/>
<path opacity="0.2" d="M254.09 392.69L254.06 401.35L264.66 398.14L264.69 389.48L254.09 392.69Z" fill="white"/>
<path opacity="0.3" d="M251.43 387.22L251.41 395.87L254.06 401.35L254.09 392.69L251.43 387.22Z" fill="white"/>
<path d="M288.49 269.34L288.51 260.68L285.7 258.14L278.75 258.5L278.43 262.37L278.4 271.02L283.56 272.2L288.49 269.34Z" fill="#6AFFAE"/>
<path opacity="0.2" d="M288.49 269.34L288.51 260.68L283.58 263.55L283.56 272.2L288.49 269.34Z" fill="white"/>
<path opacity="0.3" d="M283.58 263.55L278.43 262.37L278.4 271.02L283.56 272.2L283.58 263.55Z" fill="white"/>
<path d="M293.68 319.72L282.59 314.81L277.58 315.67L274.54 328.73L279.66 333.78L282.24 343.09L293.61 341.74L298.62 340.88L298.69 331.5L293.83 329.63L293.68 319.72Z" fill="#6AFFAE"/>
<path opacity="0.3" d="M282.24 343.09L293.61 341.74L298.62 340.88L287.25 342.23L282.24 343.09Z" fill="white"/>
<path opacity="0.3" d="M284.68 332.92L279.66 333.78L282.24 343.09L287.25 342.23L284.68 332.92Z" fill="white"/>
<path opacity="0.2" d="M279.55 327.88L274.54 328.73L279.66 333.78L284.68 332.92L279.55 327.88Z" fill="white"/>
<path opacity="0.3" d="M282.59 314.81L277.58 315.67L274.54 328.73L279.55 327.88L282.59 314.81Z" fill="white"/>
<path d="M168.34 202.88L167.33 200.5L164.26 201.02L159.28 194.65L154.26 195.5L148.27 203.07L149.77 211.56L150.03 217.14L159.01 223.35L164.02 222.5L166.39 218.13L173.1 211.9L168.34 202.88Z" fill="#6AFFAE"/>
<path opacity="0.2" d="M153.28 202.22L148.27 203.07L149.77 211.56L154.78 210.7L153.28 202.22Z" fill="white"/>
<path opacity="0.3" d="M159.28 194.65L154.26 195.5L148.27 203.07L153.28 202.22L159.28 194.65Z" fill="white"/>
<path opacity="0.2" d="M150.03 217.14L159.01 223.35L164.02 222.5L155.04 216.28L150.03 217.14Z" fill="white"/>
<path opacity="0.3" d="M154.78 210.7L149.77 211.56L150.03 217.14L155.04 216.28L154.78 210.7Z" fill="white"/>
<path d="M148.25 257.24L143.24 258.1L136.17 262.18L136.52 270.87L145.13 273.1L150.14 272.25L152.45 267.12L147.8 263.81L148.25 257.24Z" fill="#6AFFAE"/>
<path opacity="0.2" d="M148.25 257.24L143.24 258.1L136.17 262.18L141.19 261.32L148.25 257.24Z" fill="white"/>
<path opacity="0.2" d="M136.52 270.87L145.13 273.1L150.14 272.25L141.53 270.02L136.52 270.87Z" fill="white"/>
<path opacity="0.3" d="M141.19 261.32L136.17 262.18L136.52 270.87L141.53 270.02L141.19 261.32Z" fill="white"/>
<path d="M261.87 320.21L266.52 311.29L253.55 304.36L248.53 305.22L240.85 313.23L256.86 321.06L261.87 320.21Z" fill="#6AFFAE"/>
<path opacity="0.3" d="M261.87 320.21L245.86 312.37L240.85 313.23L256.86 321.06L261.87 320.21Z" fill="white"/>
<path opacity="0.2" d="M253.55 304.36L248.53 305.22L240.85 313.23L245.86 312.37L253.55 304.36Z" fill="white"/>
<path d="M234.14 374.77L239.15 373.92L243.26 363.75L235.39 357.38L230.38 358.24L228.1 359.55L226.28 358.56L221.27 359.42L220.34 367.15L224.52 374.78L229.53 373.93L230.54 372.79L234.14 374.77Z" fill="#6AFFAE"/>
<path opacity="0.3" d="M228.01 371.17L225.35 366.3L220.34 367.15L224.52 374.78L229.53 373.93L228.2 371.5L228.01 371.17Z" fill="white"/>
<path opacity="0.2" d="M225.96 361.21L226.01 360.76L226.28 358.56L221.27 359.42L220.34 367.15L225.35 366.3L225.96 361.21Z" fill="white"/>
<path d="M154.33 160.26L149.32 161.11L148.74 174.7L153.75 173.84L160.41 171.57L161.35 164.96L154.33 160.26Z" fill="#6AFFAE"/>
<path opacity="0.2" d="M148.74 174.7L153.75 173.84L154.33 160.26L149.32 161.11L148.74 174.7Z" fill="white"/>
<path d="M263.94 347.64L258.94 348.49L258.36 362.08L263.37 361.23L270.02 358.95L270.96 352.34L263.94 347.64Z" fill="#6AFFAE"/>
<path opacity="0.2" d="M258.36 362.08L263.37 361.23L263.94 347.64L258.94 348.49L258.36 362.08Z" fill="white"/>
<path d="M165.32 372.72L155.18 377.02L158.44 381.36L155.06 388.3L160.16 392.84L165.17 391.99L174.59 381.87L170.33 371.86L165.32 372.72Z" fill="#6AFFAE"/>
<path opacity="0.3" d="M165.32 372.72L155.18 377.02L160.19 376.16L170.33 371.86L165.32 372.72Z" fill="white"/>
<path opacity="0.2" d="M158.44 381.36L163.46 380.51L160.19 376.16L155.18 377.02L158.44 381.36Z" fill="white"/>
<path opacity="0.2" d="M160.16 392.84L165.17 391.99L160.07 387.45L155.06 388.3L160.16 392.84Z" fill="white"/>
<path opacity="0.3" d="M155.06 388.3L160.07 387.45L163.46 380.51L158.44 381.36L155.06 388.3Z" fill="white"/>
<path d="M295.23 385.59L290.44 382.35L285.44 383.2L282.39 385.99L285.12 392.39L289.63 393.07L292.17 399.04L297.18 398.18L303.96 394.27L298.71 385.23L295.23 385.59Z" fill="#6AFFAE"/>
<path opacity="0.2" d="M289.63 393.07L292.17 399.04L297.18 398.18L294.64 392.22L289.63 393.07Z" fill="white"/>
<path opacity="0.3" d="M290.13 391.54L285.12 392.39L289.63 393.07L294.64 392.22L290.13 391.54Z" fill="white"/>
<path opacity="0.2" d="M287.41 385.13L282.39 385.99L285.12 392.39L290.13 391.54L287.41 385.13Z" fill="white"/>
<path opacity="0.3" d="M290.44 382.35L285.44 383.2L282.39 385.99L287.41 385.13L290.44 382.35Z" fill="white"/>
<path d="M133.04 133.06L128.26 129.82L123.25 130.67L120.21 133.45L122.94 139.86L127.45 140.54L129.99 146.5L135 145.65L141.78 141.74L136.52 132.7L133.04 133.06Z" fill="#6AFFAE"/>
<path opacity="0.2" d="M127.45 140.54L129.99 146.5L135 145.65L132.46 139.69L127.45 140.54Z" fill="white"/>
<path opacity="0.3" d="M127.95 139L122.94 139.86L127.45 140.54L132.46 139.69L127.95 139Z" fill="white"/>
<path opacity="0.2" d="M125.22 132.6L120.21 133.45L122.94 139.86L127.95 139L125.22 132.6Z" fill="white"/>
<path opacity="0.3" d="M128.26 129.82L123.25 130.67L120.21 133.45L125.22 132.6L128.26 129.82Z" fill="white"/>
<path d="M179.09 234.05L174.07 234.91L173.72 245.1L181.7 245.84L186.71 244.99L185.56 238.25L179.09 234.05Z" fill="#6AFFAE"/>
<path opacity="0.2" d="M173.72 245.1L181.7 245.84L186.71 244.99L178.74 244.25L173.72 245.1Z" fill="white"/>
<path opacity="0.3" d="M179.09 234.05L174.07 234.91L173.72 245.1L178.74 244.25L179.09 234.05Z" fill="white"/>
<path d="M150.68 318.27L153.23 324.28L158.24 323.43L160.92 319.8L161.56 316.32L160.15 308.06L154.32 304.91L148.75 304.24L143.74 305.1L143.26 310.77L146.04 312.34L145.58 316.22L150.68 318.27Z" fill="#6AFFAE"/>
<path opacity="0.3" d="M153.23 324.28L158.24 323.43L155.69 317.42L150.68 318.27L153.23 324.28Z" fill="white"/>
<path opacity="0.2" d="M150.68 318.27L155.69 317.42L150.59 315.37L145.58 316.22L150.68 318.27Z" fill="white"/>
<path opacity="0.3" d="M150.59 315.37L151.05 311.49L146.04 312.34L145.58 316.22L150.59 315.37Z" fill="white"/>
<path opacity="0.2" d="M148.27 309.92L143.26 310.77L146.04 312.34L151.05 311.49L148.27 309.92Z" fill="white"/>
<path opacity="0.3" d="M148.75 304.24L143.74 305.1L143.26 310.77L148.27 309.92L148.75 304.24Z" fill="white"/>
<path d="M270.46 203.87L275.47 203.01L273.62 191.19L269.43 184.11L264.42 184.97L260.5 196.72L262.54 202.98L270.46 203.87Z" fill="#6AFFAE"/>
<path opacity="0.2" d="M270.46 203.87L275.47 203.01L267.55 202.12L262.54 202.98L270.46 203.87Z" fill="white"/>
<path opacity="0.3" d="M267.55 202.12L265.51 195.86L260.5 196.72L262.54 202.98L267.55 202.12Z" fill="white"/>
<path opacity="0.2" d="M269.43 184.11L264.42 184.97L260.5 196.72L265.51 195.86L269.43 184.11Z" fill="white"/>
<path d="M253.53 167.03L256.28 162.95L253.58 156.61L248.57 157.46L244.54 158.54L243.42 165.22L248.52 167.89L253.53 167.03Z" fill="#6AFFAE"/>
<path opacity="0.3" d="M253.58 156.61L248.57 157.46L244.54 158.54L249.55 157.68L253.58 156.61Z" fill="white"/>
<path opacity="0.2" d="M253.53 167.03L248.43 164.36L243.42 165.22L248.52 167.89L253.53 167.03Z" fill="white"/>
<path opacity="0.3" d="M249.55 157.68L244.54 158.54L243.42 165.22L248.43 164.36L249.55 157.68Z" fill="white"/>
<path d="M182.93 355.95L182.73 350.33L186.69 345.31L177.71 342.03L172.7 342.89L171.8 355.66L177.92 356.8L182.93 355.95Z" fill="#6AFFAE"/>
<path opacity="0.3" d="M182.93 355.95L176.81 354.81L171.8 355.66L177.92 356.8L182.93 355.95Z" fill="white"/>
<path opacity="0.2" d="M177.71 342.03L172.7 342.89L171.8 355.66L176.81 354.81L177.71 342.03Z" fill="white"/>
<path d="M133.8 360.58L133.81 356.5L135.87 354.19L135.9 345.54L125.95 342.76L118.42 345.17L113.14 346.27L111.12 353.34L111.09 361.99L116.36 362.86L125.34 366.35L131.96 361.65L133.8 360.58Z" fill="#6AFFAE"/>
<path opacity="0.2" d="M133.82 351.92L133.81 356.5L135.87 354.19L135.9 345.54L131.43 350.54L131.42 353.39L131.98 353L133.82 351.92Z" fill="white"/>
<path opacity="0.3" d="M131.98 353L131.96 361.65L133.8 360.58L133.81 356.5L133.82 351.92L131.98 353Z" fill="white"/>
<path opacity="0.3" d="M111.12 353.34L111.09 361.99L116.36 362.86L116.38 354.21L111.12 353.34Z" fill="white"/>
<path opacity="0.3" d="M131.98 353L131.42 353.39L125.36 357.7L125.34 366.35L131.96 361.65L131.98 353Z" fill="white"/>
<path opacity="0.2" d="M116.38 354.21L116.36 362.86L125.34 366.35L125.36 357.7L116.38 354.21Z" fill="white"/>
<path d="M265.16 233.41L244.43 217.22L242.41 220.87L263.45 237.36L265.16 233.41Z" fill="#263238"/>
<path d="M227 248L215.37 246.93C216.84 254.32 219.43 264.55 219.43 264.55L233.43 260.47L227 248Z" fill="#455A64"/>
<path d="M193.08 358.45C195.697 358.917 198.395 358.513 200.76 357.3C202.423 356.299 204.032 355.211 205.58 354.04C206.751 353.201 208.105 352.653 209.53 352.44C211.119 352.27 212.673 351.862 214.14 351.23C215.839 350.554 217.214 349.251 217.98 347.59C218.123 347.266 218.197 346.915 218.197 346.56C218.197 346.205 218.123 345.854 217.98 345.53L218.35 345.94C218.673 346.314 218.884 346.771 218.958 347.259C219.032 347.748 218.967 348.247 218.77 348.7C217.982 350.39 216.58 351.716 214.85 352.41C213.355 353.058 211.77 353.473 210.15 353.64C208.706 353.865 207.336 354.426 206.15 355.28C204.49 356.37 202.98 357.69 201.22 358.61C198.805 359.846 196.051 360.257 193.38 359.78C192.821 359.725 192.28 359.559 191.787 359.291C191.294 359.023 190.859 358.659 190.51 358.22C190.209 357.725 190.069 357.148 190.11 356.57C190.17 356.69 190.23 356.81 190.3 356.93C190.64 357.354 191.061 357.706 191.538 357.967C192.015 358.228 192.539 358.392 193.08 358.45Z" fill="black"/>
<path d="M217.57 344.89C217.729 345.086 217.863 345.301 217.97 345.53C218.114 345.854 218.188 346.205 218.188 346.56C218.188 346.915 218.114 347.266 217.97 347.59C217.204 349.251 215.83 350.554 214.13 351.23C212.663 351.862 211.109 352.27 209.52 352.44C208.095 352.653 206.742 353.201 205.57 354.04C204.022 355.211 202.413 356.299 200.75 357.3C198.385 358.513 195.687 358.917 193.07 358.45C192.523 358.397 191.991 358.236 191.507 357.975C191.023 357.714 190.595 357.358 190.25 356.93C190.18 356.81 190.12 356.69 190.06 356.57C189.892 356.123 189.826 355.645 189.866 355.169C189.905 354.693 190.05 354.233 190.29 353.82C190.861 352.885 191.677 352.124 192.65 351.62C193.65 351.08 194.65 350.62 195.55 350.12C197.071 349.171 198.483 348.058 199.76 346.8C200.98 345.68 202.204 344.563 203.43 343.45L216.71 343.98C216.71 343.98 217.13 344.39 217.57 344.89Z" fill="#263238"/>
<path d="M290.89 295.61C290.892 292.951 290.02 290.366 288.41 288.25C287.132 286.789 285.78 285.393 284.36 284.07C283.325 283.066 282.547 281.828 282.09 280.46C281.64 278.929 280.966 277.474 280.09 276.14C279.124 274.585 277.6 273.458 275.83 272.99C275.489 272.91 275.136 272.901 274.791 272.965C274.447 273.029 274.12 273.163 273.83 273.36L274.17 272.93C274.48 272.546 274.893 272.257 275.36 272.098C275.827 271.938 276.33 271.915 276.81 272.03C278.614 272.505 280.167 273.654 281.15 275.24C282.028 276.605 282.701 278.091 283.15 279.65C283.617 281.042 284.409 282.304 285.46 283.33C286.913 284.681 288.295 286.106 289.6 287.6C291.24 289.76 292.129 292.398 292.13 295.11C292.178 295.667 292.115 296.229 291.943 296.761C291.771 297.293 291.495 297.786 291.13 298.21C290.697 298.6 290.15 298.842 289.57 298.9C289.68 298.825 289.783 298.741 289.88 298.65C290.244 298.237 290.521 297.755 290.694 297.233C290.868 296.71 290.934 296.159 290.89 295.61Z" fill="black"/>
<path d="M273.25 273.87C273.409 273.672 273.598 273.5 273.81 273.36C274.1 273.163 274.427 273.029 274.771 272.965C275.115 272.901 275.469 272.91 275.81 272.99C277.58 273.458 279.104 274.585 280.07 276.14C280.946 277.474 281.62 278.929 282.07 280.46C282.527 281.828 283.305 283.066 284.34 284.07C285.76 285.393 287.112 286.789 288.39 288.25C290 290.366 290.872 292.951 290.87 295.61C290.91 296.151 290.842 296.695 290.671 297.21C290.499 297.725 290.227 298.201 289.87 298.61C289.773 298.701 289.67 298.785 289.56 298.86C289.149 299.102 288.689 299.25 288.213 299.294C287.738 299.337 287.258 299.274 286.81 299.11C285.791 298.708 284.899 298.037 284.23 297.17C283.53 296.34 282.95 295.41 282.23 294.58C281.03 293.252 279.689 292.058 278.23 291.02L274.28 288.02L272.48 274.85C272.48 274.85 272.83 274.39 273.25 273.87Z" fill="#263238"/>
<path d="M245.09 271.65L245.7 287.93C253.08 280.45 272.3 273.47 272.3 273.47C279.58 278.83 277.96 285 275.23 287.93C260.16 296.13 242.97 307.15 239.02 306.24C235.07 305.33 229.87 299.35 226.02 288.08L229.44 269.19L245.09 271.65Z" fill="#37474F"/>
<path d="M252.88 245.76C255.31 257.7 254.39 262.95 245.09 271.65C235.79 280.35 220.52 292.59 220.52 292.59C224.26 304.72 218.7 320.7 218.52 326.87C218.34 333.04 217.47 344.38 217.47 344.38C208.97 348.93 203.47 343.45 203.47 343.45L203.76 289.86C203.758 285.164 205.46 280.626 208.55 277.09L227 255.87V248L252.88 245.76Z" fill="#455A64"/>
<path d="M187.43 214.28C185.821 214.823 184.1 214.946 182.43 214.64C182.43 211.41 182.43 207.81 182.17 203.12C181.56 193 184.29 187.44 186.55 185.42C188.81 183.4 192.68 183.36 194.13 184.64C195.58 185.92 192.04 190.58 191.54 194.64C193.54 192.28 194.54 191.47 196.49 192.92C195.381 194.213 194.544 195.716 194.03 197.34C193.63 199.34 191.47 200.78 190.86 202.46C190.4 203.75 190.86 207.93 191.63 211.51C190.491 212.779 189.045 213.733 187.43 214.28Z" fill="#FFA8A7"/>
<path d="M187.43 214.28C189.054 213.73 190.508 212.769 191.65 211.49C191.88 212.56 192.12 213.58 192.37 214.44C192.37 214.44 200.19 203.72 201.94 201.7C203.69 199.68 205.31 194.82 212.94 193.93L212.01 212.83C212.01 212.83 196.51 230.49 191.18 233.46C185.85 236.43 184.1 232.58 183.02 225.46C182.536 221.885 182.332 218.277 182.41 214.67C184.089 214.97 185.817 214.836 187.43 214.28Z" fill="#E0E0E0"/>
<path opacity="0.1" d="M193.56 225.89C194.78 221.49 192.96 216.03 192.37 214.44L193.7 212.62C194.668 214.702 195.158 216.975 195.134 219.271C195.11 221.567 194.572 223.829 193.56 225.89Z" fill="black"/>
<path d="M235.89 193.53C240.34 192.92 245.09 193.68 249.95 194.53C251.06 207.67 250.57 221.35 249.95 226.28L253.79 246.91C238.72 256.02 219.5 251.97 215.66 249.34C209.59 225.68 208.08 203.34 212.98 193.97L224.98 191.97L235.89 193.53Z" fill="#F0F0F0"/>
<path d="M237.78 192.27C242.23 191.67 245.09 193.68 249.95 194.49C251.06 207.63 250.57 221.31 249.95 226.24L253.79 246.87C238.72 255.98 219.5 251.93 215.66 249.3C209.59 225.64 208.08 203.3 212.98 193.93L224.98 191.93L237.78 192.27Z" fill="#E6E6E6"/>
<path d="M226.28 202.73L229.8 199.94C228.696 199.396 227.544 198.954 226.36 198.62L224.96 199.31L226.28 202.73Z" fill="#6AFFAE"/>
<path d="M222.5 202.44L221.72 201.96L220.43 199.13L221.93 198.62L222.84 199.31L222.5 202.44Z" fill="#6AFFAE"/>
<path d="M225.34 204.67C227.99 215.22 240.34 222.11 250.57 221.37C252.016 221.23 253.464 221.606 254.66 222.43C256.181 223.503 257.53 224.801 258.66 226.28C258.809 226.477 258.91 226.706 258.957 226.948C259.004 227.191 258.994 227.441 258.93 227.679C258.865 227.917 258.747 228.138 258.584 228.323C258.421 228.509 258.218 228.655 257.99 228.75C255.722 229.661 253.38 230.377 250.99 230.89C248.508 231.466 245.92 231.401 243.47 230.7C224.94 225.33 222.37 213.46 222.87 204.7L225.34 204.67Z" fill="#6AFFAE"/>
<path opacity="0.3" d="M222.84 205.14C222.84 204.99 222.84 204.83 222.84 204.67H225.32C225.32 204.72 225.32 204.77 225.32 204.83C224.98 205.105 224.572 205.284 224.14 205.35C223.695 205.405 223.244 205.332 222.84 205.14Z" fill="black"/>
<path d="M225 199.31C224.298 199.195 223.582 199.195 222.88 199.31C222.278 200.078 221.891 200.993 221.76 201.96C221.947 202.933 222.336 203.856 222.9 204.67C223.54 205.16 225.38 204.67 225.38 204.67C225.845 204.039 226.257 203.37 226.61 202.67C226.714 202.453 226.768 202.216 226.768 201.975C226.768 201.734 226.714 201.497 226.61 201.28C226.218 200.517 225.669 199.846 225 199.31Z" fill="#6AFFAE"/>
<path opacity="0.3" d="M218.26 253C220.155 255.29 222.803 256.832 225.73 257.35L219.47 264.52C220.133 262.252 221.192 260.119 222.6 258.22C220.618 257.006 219.092 255.171 218.26 253Z" fill="black"/>
<path d="M224 199C221.15 198.24 219.33 201.4 219.33 201.4C219.15 194.4 222.79 191.72 222.79 191.72L224 199Z" fill="#E0E0E0"/>
<path d="M236.16 164.4L239.98 161.88C239.655 161.5 239.252 161.196 238.798 160.987C238.344 160.778 237.85 160.67 237.35 160.67C236.778 160.719 236.247 160.99 235.873 161.426C235.499 161.862 235.311 162.427 235.35 163C235.23 160.71 233.26 158.66 231.2 157.66C229.087 156.753 226.775 156.409 224.49 156.66C222.21 156.81 219.95 157.25 217.66 157.33C215.019 157.426 212.381 157.053 209.87 156.23C209.588 156.13 209.284 156.11 208.992 156.173C208.7 156.237 208.432 156.381 208.218 156.589C208.003 156.797 207.851 157.061 207.779 157.351C207.707 157.641 207.718 157.946 207.81 158.23C208.249 159.684 208.989 161.029 209.98 162.18C209.451 162.336 208.9 162.397 208.35 162.36C208.056 162.344 207.763 162.408 207.503 162.545C207.243 162.682 207.025 162.888 206.873 163.14C206.721 163.392 206.64 163.68 206.64 163.974C206.639 164.269 206.719 164.558 206.87 164.81C207.873 166.287 209.294 167.432 210.95 168.1C217.01 177.68 233.37 186.22 233.37 186.22C233.924 186.153 234.454 185.949 234.909 185.626C235.365 185.303 235.733 184.871 235.98 184.37C236.465 183.369 236.779 182.294 236.91 181.19C237.577 176.99 238.157 172.773 238.65 168.54C238.811 167.652 238.77 166.74 238.53 165.87C238.402 165.437 238.139 165.055 237.779 164.782C237.42 164.508 236.982 164.357 236.53 164.35" fill="#37474F"/>
<path d="M234.57 179.22C235.01 183.16 235.89 189.99 235.89 189.99C232.45 194.64 225.77 195.65 224 198.99C222.856 195.287 222.111 191.472 221.78 187.61L233.16 178.61L234.57 179.22Z" fill="#FFA8A7"/>
<path d="M233.16 178.66L233.45 178.77C233.597 181.959 232.534 185.086 230.474 187.524C228.414 189.962 225.508 191.533 222.34 191.92C222.076 190.494 221.89 189.056 221.78 187.61L233.16 178.66Z" fill="#F28F8F"/>
<path d="M210.94 168.08C210.081 174.659 210.808 181.349 213.06 187.59C213.347 188.366 213.868 189.033 214.55 189.5C215.232 189.968 216.043 190.212 216.87 190.2C225.51 190.2 232.32 187.25 233.51 179.57C233.943 180.125 234.546 180.523 235.227 180.703C235.907 180.884 236.628 180.837 237.28 180.57C238.189 180.085 238.975 179.398 239.578 178.563C240.181 177.728 240.585 176.765 240.76 175.75C240.834 175.275 240.777 174.788 240.593 174.343C240.409 173.898 240.107 173.513 239.718 173.229C239.33 172.945 238.871 172.773 238.391 172.733C237.912 172.692 237.43 172.785 237 173C235.908 173.51 235.053 174.419 234.61 175.54C234.42 175.96 234.18 176.47 233.72 176.48C233.26 176.49 232.98 175.96 232.84 175.48C232.289 173.677 232.049 171.793 232.13 169.91C231.458 170.057 230.764 170.068 230.088 169.943C229.412 169.817 228.767 169.558 228.193 169.179C227.619 168.801 227.127 168.311 226.745 167.74C226.363 167.168 226.099 166.525 225.97 165.85C225.61 166.535 225.093 167.125 224.463 167.573C223.832 168.021 223.105 168.315 222.34 168.43C221.586 168.537 220.817 168.463 220.097 168.215C219.377 167.966 218.727 167.55 218.2 167C217.31 167.903 216.153 168.496 214.9 168.69C213.548 168.888 212.169 168.675 210.94 168.08Z" fill="#FFA8A7"/>
<path d="M218.8 175.54L214.85 180.52L218.59 181.76L218.8 175.54Z" fill="#F28F8F"/>
<path d="M222 184.13L218.89 185.13C219.097 185.494 219.417 185.782 219.8 185.949C220.184 186.117 220.612 186.156 221.02 186.06C221.377 185.896 221.669 185.616 221.847 185.266C222.025 184.915 222.079 184.515 222 184.13Z" fill="#F28F8F"/>
<path opacity="0.3" d="M222 184.13L218.89 185.13C219.097 185.494 219.417 185.782 219.8 185.949C220.184 186.117 220.612 186.156 221.02 186.06C221.377 185.896 221.669 185.616 221.847 185.266C222.025 184.915 222.079 184.515 222 184.13Z" fill="black"/>
<path d="M220 186C220.327 186.093 220.673 186.093 221 186C221.29 185.888 221.54 185.693 221.719 185.438C221.897 185.183 221.995 184.881 222 184.57C221.581 184.508 221.153 184.592 220.79 184.81C220.38 185.087 220.097 185.515 220 186Z" fill="#F28F8F"/>
<path d="M224.33 176.51C224.324 176.732 224.252 176.947 224.124 177.128C223.995 177.309 223.816 177.447 223.608 177.526C223.401 177.605 223.175 177.621 222.959 177.571C222.742 177.521 222.546 177.408 222.394 177.246C222.242 177.084 222.142 176.881 222.105 176.662C222.069 176.443 222.099 176.218 222.19 176.016C222.282 175.814 222.432 175.644 222.62 175.527C222.809 175.41 223.028 175.352 223.25 175.36C223.397 175.364 223.541 175.397 223.675 175.457C223.809 175.517 223.929 175.603 224.03 175.71C224.13 175.817 224.208 175.942 224.26 176.08C224.311 176.217 224.335 176.363 224.33 176.51Z" fill="#263238"/>
<path d="M215 175.83C214.994 176.052 214.922 176.267 214.793 176.448C214.665 176.629 214.486 176.767 214.278 176.846C214.071 176.925 213.845 176.941 213.628 176.891C213.412 176.841 213.216 176.728 213.064 176.566C212.912 176.404 212.812 176.201 212.775 175.982C212.739 175.763 212.769 175.538 212.86 175.336C212.952 175.134 213.102 174.964 213.29 174.847C213.479 174.73 213.698 174.672 213.92 174.68C214.066 174.684 214.211 174.717 214.345 174.777C214.479 174.837 214.599 174.923 214.7 175.03C214.8 175.137 214.878 175.262 214.93 175.4C214.981 175.537 215.005 175.683 215 175.83Z" fill="#263238"/>
<path d="M215.3 172.14L212.49 171.14C212.681 170.879 212.947 170.682 213.252 170.575C213.557 170.467 213.888 170.455 214.2 170.54C214.511 170.682 214.778 170.906 214.971 171.188C215.165 171.47 215.279 171.799 215.3 172.14Z" fill="#263238"/>
<path d="M221.74 172.72L224.69 172.17C224.548 171.879 224.321 171.638 224.038 171.48C223.756 171.321 223.433 171.251 223.11 171.28C222.771 171.37 222.464 171.552 222.222 171.807C221.98 172.061 221.813 172.377 221.74 172.72Z" fill="#263238"/>
<path d="M235.89 190L235.66 188.24C235.812 188.236 235.964 188.256 236.11 188.3C237.31 188.95 239.6 192.51 239.6 192.51C238.79 194.4 234.94 200.3 231.91 202.32C228.4 200.57 225.91 198.1 224 199C224.73 194.89 235.89 190 235.89 190Z" fill="#E0E0E0"/>
<path d="M242.69 254.79C234.27 242.97 215.69 215.62 216.81 193.29L212.98 193.93C211.39 215.93 228.83 244.65 240.98 259.54L242.69 254.79Z" fill="#263238"/>
<path d="M245.34 264.16L271.08 242.48L275.61 258.48C275.64 258.581 275.644 258.689 275.622 258.792C275.599 258.895 275.55 258.991 275.48 259.07L275.4 259.15L250 281.91C250.087 281.825 250.15 281.718 250.182 281.6C250.213 281.482 250.213 281.358 250.18 281.24L245.34 264.16Z" fill="#6AFFAE"/>
<path opacity="0.15" d="M245.34 264.16L271.08 242.48L275.61 258.48C275.64 258.581 275.644 258.689 275.622 258.792C275.599 258.895 275.55 258.991 275.48 259.07L275.4 259.15L250 281.91C250.087 281.825 250.15 281.718 250.182 281.6C250.213 281.482 250.213 281.358 250.18 281.24L245.34 264.16Z" fill="black"/>
<path d="M246.44 268.07L242.41 253.82L246.44 268.07Z" fill="#6AFFAE"/>
<path d="M239.39 253.1C239.371 252.963 239.384 252.823 239.427 252.691C239.47 252.559 239.543 252.439 239.64 252.34C239.746 252.247 239.87 252.178 240.004 252.137C240.139 252.095 240.28 252.083 240.42 252.1C240.879 252.176 241.308 252.382 241.653 252.694C241.999 253.006 242.248 253.411 242.37 253.86L246.37 268.11L250.1 281.28C250.133 281.398 250.133 281.522 250.102 281.64C250.07 281.758 250.007 281.865 249.92 281.95C249.835 282.034 249.728 282.093 249.612 282.121C249.496 282.15 249.374 282.146 249.26 282.11L244.26 280.59C243.881 280.483 243.543 280.266 243.286 279.967C243.03 279.668 242.868 279.301 242.82 278.91L239.39 253.1Z" fill="#6AFFAE"/>
<path opacity="0.3" d="M239.39 253.1C239.371 252.963 239.384 252.823 239.427 252.691C239.47 252.559 239.543 252.439 239.64 252.34C239.746 252.247 239.87 252.178 240.004 252.137C240.139 252.095 240.28 252.083 240.42 252.1C240.879 252.176 241.308 252.382 241.653 252.694C241.999 253.006 242.248 253.411 242.37 253.86L246.37 268.11L250.1 281.28C250.133 281.398 250.133 281.522 250.102 281.64C250.07 281.758 250.007 281.865 249.92 281.95C249.835 282.034 249.728 282.093 249.612 282.121C249.496 282.15 249.374 282.146 249.26 282.11L244.26 280.59C243.881 280.483 243.543 280.266 243.286 279.967C243.03 279.668 242.868 279.301 242.82 278.91L239.39 253.1Z" fill="black"/>
<path d="M254.37 254.91L258.92 271.24L258.2 271.92L253.8 255.73L254.37 254.91Z" fill="#6AFFAE"/>
<path d="M264.02 246.28L268.57 262.61L267.85 263.29L263.45 247.1L264.02 246.28Z" fill="#6AFFAE"/>
<path d="M265.1 229.6C265.201 229.51 265.32 229.443 265.45 229.405C265.58 229.367 265.716 229.359 265.85 229.38C266.318 229.448 266.756 229.65 267.111 229.963C267.466 230.275 267.723 230.684 267.85 231.14L271.32 243.43C271.523 244.155 271.517 244.923 271.303 245.644C271.088 246.366 270.675 247.013 270.11 247.51L267.43 249.84L249.11 265.78C248.824 266.028 248.481 266.201 248.111 266.281C247.741 266.361 247.356 266.347 246.993 266.239C246.631 266.132 246.301 265.934 246.034 265.665C245.768 265.396 245.574 265.064 245.47 264.7L242.4 253.86C242.278 253.411 242.029 253.006 241.683 252.694C241.338 252.382 240.909 252.176 240.45 252.1C240.31 252.083 240.169 252.095 240.034 252.137C239.9 252.178 239.776 252.247 239.67 252.34L265.1 229.6Z" fill="#6AFFAE"/>
<path opacity="0.2" d="M265.1 229.6C265.201 229.51 265.32 229.443 265.45 229.405C265.58 229.367 265.716 229.359 265.85 229.38C266.318 229.448 266.756 229.65 267.111 229.963C267.466 230.275 267.723 230.684 267.85 231.14L271.32 243.43C271.523 244.155 271.517 244.923 271.303 245.644C271.088 246.366 270.675 247.013 270.11 247.51L267.43 249.84L249.11 265.78C248.824 266.028 248.481 266.201 248.111 266.281C247.741 266.361 247.356 266.347 246.993 266.239C246.631 266.132 246.301 265.934 246.034 265.665C245.768 265.396 245.574 265.064 245.47 264.7L242.4 253.86C242.278 253.411 242.029 253.006 241.683 252.694C241.338 252.382 240.909 252.176 240.45 252.1C240.31 252.083 240.169 252.095 240.034 252.137C239.9 252.178 239.776 252.247 239.67 252.34L265.1 229.6Z" fill="white"/>
<path d="M280.84 230.79L280 243.23C278.24 255.64 276 257.59 270.29 259.23C264.58 260.87 267.93 253.78 268.67 252.46C269.215 251.28 269.598 250.032 269.81 248.75C267.02 251.27 266.31 251 265.2 250.23C264.76 249.89 266.85 248.07 266.85 248.07C267.955 245.686 269.396 243.474 271.13 241.5L270.47 230.74L280.84 230.79Z" fill="#FFA8A7"/>
<path d="M244 193.6C252 192.26 257.24 196.29 260.88 198.6C263.51 200.29 273.17 207.6 278.32 211.49C279.344 212.257 280.169 213.259 280.726 214.411C281.282 215.562 281.555 216.831 281.52 218.11L281.24 231.26C279.541 232.151 277.637 232.578 275.72 232.499C273.803 232.42 271.94 231.838 270.32 230.81L269.37 221.17C269.37 221.17 258.15 215.71 250.61 212.27C243.07 208.83 242.12 199.22 244 193.6Z" fill="#E0E0E0"/>
<path d="M381.77 61.9C376.57 58.9 372.18 60.37 370.77 65.03C369.51 62.4698 367.565 60.3096 365.15 58.79C361.08 56.44 357.77 58.32 357.76 63V65.15L352.31 62C349.46 60.36 347.14 61.68 347.13 65C347.223 66.7854 347.737 68.5234 348.63 70.0719C349.524 71.6205 350.771 72.9357 352.27 73.91L398.56 100.63C401.42 102.28 403.74 100.96 403.75 97.69C403.655 95.9026 403.139 94.1629 402.244 92.6128C401.349 91.0627 400.1 89.746 398.6 88.77L393.13 85.61V81.61C393.17 74.37 388.07 65.54 381.77 61.9Z" fill="#E6E6E6"/>
<path d="M336.4 79.41C332.67 77.26 329.52 78.31 328.52 81.66C327.63 79.8209 326.245 78.2661 324.52 77.17C321.6 75.49 319.22 76.84 319.22 80.17V81.71L315.3 79.45C313.25 78.26 311.59 79.22 311.58 81.57C311.649 82.8514 312.021 84.0982 312.664 85.2087C313.307 86.3192 314.203 87.2619 315.28 87.96L348.5 107.15C350.55 108.33 352.21 107.38 352.22 105.03C352.153 103.747 351.783 102.498 351.14 101.385C350.496 100.273 349.599 99.3285 348.52 98.63L344.6 96.36V93.56C344.58 88.36 340.93 82 336.4 79.41Z" fill="#E6E6E6"/>
</svg>
