<svg width="660" height="162" viewBox="0 0 660 162" fill="none" xmlns="http://www.w3.org/2000/svg">
<path d="M13.376 62.32V55.024H25.088C27.2213 55.024 28.8427 54.448 29.952 53.296C31.0613 52.1013 31.616 50.48 31.616 48.432C31.616 46.384 31.0613 44.8053 29.952 43.696C28.8427 42.544 27.2213 41.968 25.088 41.968H13.376V36.4H24.448C27.5627 36.4 30.336 36.784 32.768 37.552C35.2427 38.2773 37.1627 39.5147 38.528 41.264C39.936 43.0133 40.64 45.36 40.64 48.304V49.2C40.64 51.9733 40.0213 54.3413 38.784 56.304C37.5893 58.224 35.776 59.7173 33.344 60.784C30.9547 61.808 27.9893 62.32 24.448 62.32H13.376ZM5.76 62.32V14.96H14.656V62.32H5.76ZM13.376 40.496V34.928H23.36C25.536 34.928 27.136 34.352 28.16 33.2C29.184 32.048 29.696 30.512 29.696 28.592C29.696 26.672 29.184 25.136 28.16 23.984C27.136 22.832 25.536 22.256 23.36 22.256H13.376V14.96H22.528C27.8187 14.96 31.8293 16.0693 34.56 18.288C37.3333 20.5067 38.72 23.6853 38.72 27.824V28.72C38.72 31.6213 38.016 33.9467 36.608 35.696C35.2427 37.4027 33.344 38.64 30.912 39.408C28.48 40.1333 25.6853 40.496 22.528 40.496H13.376ZM65.51 63.216C62.438 63.216 59.7287 62.7253 57.382 61.744C55.0353 60.7627 53.0513 59.44 51.43 57.776C49.8087 56.0693 48.5713 54.1493 47.718 52.016C46.9073 49.8827 46.502 47.664 46.502 45.36V44.016C46.502 41.6267 46.9287 39.3653 47.782 37.232C48.678 35.056 49.9367 33.136 51.558 31.472C53.222 29.7653 55.2273 28.4427 57.574 27.504C59.9207 26.5227 62.566 26.032 65.51 26.032C68.454 26.032 71.0993 26.5227 73.446 27.504C75.7927 28.4427 77.7767 29.7653 79.398 31.472C81.062 33.136 82.3207 35.056 83.174 37.232C84.0273 39.3653 84.454 41.6267 84.454 44.016V45.36C84.454 47.664 84.0273 49.8827 83.174 52.016C82.3633 54.1493 81.1473 56.0693 79.526 57.776C77.9047 59.44 75.9207 60.7627 73.574 61.744C71.2273 62.7253 68.5393 63.216 65.51 63.216ZM65.51 55.6C67.686 55.6 69.5207 55.1307 71.014 54.192C72.5073 53.2107 73.638 51.9093 74.406 50.288C75.174 48.624 75.558 46.7467 75.558 44.656C75.558 42.5227 75.1527 40.6453 74.342 39.024C73.574 37.36 72.422 36.0587 70.886 35.12C69.3927 34.1387 67.6007 33.648 65.51 33.648C63.4193 33.648 61.606 34.1387 60.07 35.12C58.5767 36.0587 57.4247 37.36 56.614 39.024C55.8033 40.6453 55.398 42.5227 55.398 44.656C55.398 46.7467 55.782 48.624 56.55 50.288C57.3607 51.9093 58.5127 53.2107 60.006 54.192C61.4993 55.1307 63.334 55.6 65.51 55.6ZM108.948 63.216C105.876 63.216 103.166 62.7253 100.82 61.744C98.4728 60.7627 96.4888 59.44 94.8675 57.776C93.2462 56.0693 92.0088 54.1493 91.1555 52.016C90.3448 49.8827 89.9395 47.664 89.9395 45.36V44.016C89.9395 41.6267 90.3662 39.3653 91.2195 37.232C92.1155 35.056 93.3742 33.136 94.9955 31.472C96.6595 29.7653 98.6648 28.4427 101.012 27.504C103.358 26.5227 106.004 26.032 108.948 26.032C111.892 26.032 114.537 26.5227 116.884 27.504C119.23 28.4427 121.214 29.7653 122.836 31.472C124.5 33.136 125.758 35.056 126.612 37.232C127.465 39.3653 127.892 41.6267 127.892 44.016V45.36C127.892 47.664 127.465 49.8827 126.612 52.016C125.801 54.1493 124.585 56.0693 122.964 57.776C121.342 59.44 119.358 60.7627 117.012 61.744C114.665 62.7253 111.977 63.216 108.948 63.216ZM108.948 55.6C111.124 55.6 112.958 55.1307 114.452 54.192C115.945 53.2107 117.076 51.9093 117.844 50.288C118.612 48.624 118.996 46.7467 118.996 44.656C118.996 42.5227 118.59 40.6453 117.78 39.024C117.012 37.36 115.86 36.0587 114.324 35.12C112.83 34.1387 111.038 33.648 108.948 33.648C106.857 33.648 105.044 34.1387 103.508 35.12C102.014 36.0587 100.862 37.36 100.052 39.024C99.2408 40.6453 98.8355 42.5227 98.8355 44.656C98.8355 46.7467 99.2195 48.624 99.9875 50.288C100.798 51.9093 101.95 53.2107 103.444 54.192C104.937 55.1307 106.772 55.6 108.948 55.6ZM160.001 62L148.353 45.744H143.169L157.953 27.248H167.233L153.601 44.336L153.793 39.856L170.049 62H160.001ZM135.681 62V15.28H144.577V62H135.681Z" fill="url(#paint0_linear_52_473)"/>
<path d="M200.898 62L207.49 28.4H217.729L225.346 62H218.306L210.562 28.592H214.274L207.426 62H200.898ZM198.274 62L198.21 54.704H205.314V62H198.274ZM194.69 62L185.218 27.248H193.858L202.882 62H194.69ZM220.546 62V54.704H227.65L227.586 62H220.546ZM223.362 62L231.362 27.248H239.426L231.042 62H223.362ZM248.095 62V27.248H256.991V62H248.095ZM243.231 33.904V27.248H256.991V33.904H243.231ZM251.359 23.088C249.61 23.088 248.308 22.64 247.455 21.744C246.644 20.8053 246.239 19.6533 246.239 18.288C246.239 16.8373 246.644 15.664 247.455 14.768C248.308 13.872 249.61 13.424 251.359 13.424C253.108 13.424 254.388 13.872 255.199 14.768C256.01 15.664 256.415 16.8373 256.415 18.288C256.415 19.6533 256.01 20.8053 255.199 21.744C254.388 22.64 253.108 23.088 251.359 23.088ZM282.348 62.448C279.148 62.448 276.502 62.0427 274.412 61.232C272.364 60.3787 270.828 58.9707 269.804 57.008C268.78 55.0027 268.268 52.3147 268.268 48.944L268.332 17.456H276.652L276.588 49.52C276.588 51.2267 277.036 52.5493 277.932 53.488C278.87 54.384 280.193 54.832 281.9 54.832H287.34V62.448H282.348ZM262.764 33.776V27.248H287.34V33.776H262.764ZM294.806 62V15.28H303.702V42.544H302.166C302.166 39.0453 302.614 36.08 303.51 33.648C304.406 31.216 305.729 29.36 307.478 28.08C309.27 26.8 311.531 26.16 314.262 26.16H314.646C318.614 26.16 321.622 27.5253 323.67 30.256C325.718 32.9867 326.742 36.9547 326.742 42.16V62H317.846V41.328C317.846 39.1093 317.206 37.36 315.926 36.08C314.689 34.8 313.046 34.16 310.998 34.16C308.822 34.16 307.051 34.8853 305.686 36.336C304.363 37.744 303.702 39.6 303.702 41.904V62H294.806ZM5.76 143V96.28H14.656V143H5.76ZM13.376 143V135.32H34.56V143H13.376ZM13.376 123.096V115.416H32.896V123.096H13.376ZM13.376 103.96V96.28H34.048V103.96H13.376ZM43.181 143V108.248H50.221V123.16H49.581C49.581 119.619 50.0503 116.675 50.989 114.328C51.9277 111.939 53.3143 110.147 55.149 108.952C57.0263 107.757 59.3517 107.16 62.125 107.16H62.509C66.6477 107.16 69.7837 108.504 71.917 111.192C74.0503 113.837 75.117 117.805 75.117 123.096V143H66.221V122.328C66.221 120.195 65.6023 118.467 64.365 117.144C63.1703 115.821 61.5063 115.16 59.373 115.16C57.197 115.16 55.4263 115.843 54.061 117.208C52.7383 118.531 52.077 120.323 52.077 122.584V143H43.181ZM79.753 156.12V148.504H82.441C84.0197 148.504 85.2357 148.077 86.089 147.224C86.9423 146.371 87.369 145.155 87.369 143.576V108.248H95.945V143.064C95.945 146.264 95.4543 148.803 94.473 150.68C93.4917 152.6 91.977 153.987 89.929 154.84C87.881 155.693 85.193 156.12 81.865 156.12H79.753ZM82.313 114.904V108.248H95.945V114.904H82.313ZM90.249 103.832C88.5423 103.832 87.2623 103.384 86.409 102.488C85.5983 101.549 85.193 100.376 85.193 98.968C85.193 97.56 85.5983 96.408 86.409 95.512C87.2623 94.616 88.5423 94.168 90.249 94.168C91.9983 94.168 93.2783 94.616 94.089 95.512C94.9423 96.408 95.369 97.56 95.369 98.968C95.369 100.376 94.9423 101.549 94.089 102.488C93.2783 103.384 91.9983 103.832 90.249 103.832ZM122.635 144.216C119.563 144.216 116.854 143.725 114.507 142.744C112.16 141.763 110.176 140.44 108.555 138.776C106.934 137.069 105.696 135.149 104.843 133.016C104.032 130.883 103.627 128.664 103.627 126.36V125.016C103.627 122.627 104.054 120.365 104.907 118.232C105.803 116.056 107.062 114.136 108.683 112.472C110.347 110.765 112.352 109.443 114.699 108.504C117.046 107.523 119.691 107.032 122.635 107.032C125.579 107.032 128.224 107.523 130.571 108.504C132.918 109.443 134.902 110.765 136.523 112.472C138.187 114.136 139.446 116.056 140.299 118.232C141.152 120.365 141.579 122.627 141.579 125.016V126.36C141.579 128.664 141.152 130.883 140.299 133.016C139.488 135.149 138.272 137.069 136.651 138.776C135.03 140.44 133.046 141.763 130.699 142.744C128.352 143.725 125.664 144.216 122.635 144.216ZM122.635 136.6C124.811 136.6 126.646 136.131 128.139 135.192C129.632 134.211 130.763 132.909 131.531 131.288C132.299 129.624 132.683 127.747 132.683 125.656C132.683 123.523 132.278 121.645 131.467 120.024C130.699 118.36 129.547 117.059 128.011 116.12C126.518 115.139 124.726 114.648 122.635 114.648C120.544 114.648 118.731 115.139 117.195 116.12C115.702 117.059 114.55 118.36 113.739 120.024C112.928 121.645 112.523 123.523 112.523 125.656C112.523 127.747 112.907 129.624 113.675 131.288C114.486 132.909 115.638 134.211 117.131 135.192C118.624 136.131 120.459 136.6 122.635 136.6ZM147.595 156.696V149.08H154.123C155.36 149.08 156.384 148.909 157.195 148.568C158.048 148.269 158.752 147.757 159.307 147.032C159.861 146.349 160.288 145.389 160.587 144.152L169.931 108.248H178.443L168.139 146.072C167.456 148.675 166.496 150.744 165.259 152.28C164.021 153.859 162.421 154.989 160.458 155.672C158.539 156.355 156.149 156.696 153.291 156.696H147.595ZM158.411 142.232V135.192H165.835V142.232H158.411ZM155.403 142.232L144.139 108.248H153.099L163.787 142.232H155.403ZM210.273 143L216.865 109.4H227.104L234.721 143H227.681L219.937 109.592H223.649L216.801 143H210.273ZM207.649 143L207.585 135.704H214.689V143H207.649ZM204.065 143L194.593 108.248H203.233L212.257 143H204.065ZM229.921 143V135.704H237.025L236.961 143H229.921ZM232.737 143L240.737 108.248H248.801L240.417 143H232.737ZM257.47 143V108.248H266.366V143H257.47ZM252.606 114.904V108.248H266.366V114.904H252.606ZM260.734 104.088C258.985 104.088 257.683 103.64 256.83 102.744C256.019 101.805 255.614 100.653 255.614 99.288C255.614 97.8373 256.019 96.664 256.83 95.768C257.683 94.872 258.985 94.424 260.734 94.424C262.483 94.424 263.763 94.872 264.574 95.768C265.385 96.664 265.79 97.8373 265.79 99.288C265.79 100.653 265.385 101.805 264.574 102.744C263.763 103.64 262.483 104.088 260.734 104.088ZM291.723 143.448C288.523 143.448 285.877 143.043 283.787 142.232C281.739 141.379 280.203 139.971 279.179 138.008C278.155 136.003 277.643 133.315 277.643 129.944L277.707 98.456H286.027L285.963 130.52C285.963 132.227 286.411 133.549 287.307 134.488C288.245 135.384 289.568 135.832 291.275 135.832H296.715V143.448H291.723ZM272.139 114.776V108.248H296.715V114.776H272.139ZM304.181 143V96.28H313.077V123.544H311.541C311.541 120.045 311.989 117.08 312.885 114.648C313.781 112.216 315.104 110.36 316.853 109.08C318.645 107.8 320.906 107.16 323.637 107.16H324.021C327.989 107.16 330.997 108.525 333.045 111.256C335.093 113.987 336.117 117.955 336.117 123.16V143H327.221V122.328C327.221 120.109 326.581 118.36 325.301 117.08C324.064 115.8 322.421 115.16 320.373 115.16C318.197 115.16 316.426 115.885 315.061 117.336C313.738 118.744 313.077 120.6 313.077 122.904V143H304.181Z" fill="white"/>
<path d="M510.178 33.496H510.368V32.9436C510.306 33.1285 510.242 33.3127 510.178 33.496Z" fill="url(#paint1_linear_52_473)"/>
<path d="M505.789 26.968H499.66L499.68 17.176H491.36L491.34 26.968H485.792V33.496H491.326L491.299 46.7589C494.825 44.745 497.534 42.5333 499.634 40.0941L499.647 33.496H503.74C503.817 33.3185 503.892 33.1401 503.965 32.9606C504.728 31.0977 505.324 29.1069 505.789 26.968Z" fill="url(#paint2_linear_52_473)"/>
<path d="M482.883 50.5085C482.66 47.8465 481.5 45.6957 479.403 44.056C477.099 42.2213 473.899 41.0907 469.803 40.664L466.731 40.344C464.853 40.1307 463.488 39.7253 462.635 39.128C461.824 38.5307 461.419 37.6773 461.419 36.568C461.419 35.416 461.931 34.4773 462.955 33.752C463.979 33.0267 465.429 32.664 467.307 32.664C469.397 32.664 470.997 33.0907 472.107 33.944C473.216 34.7973 473.813 35.8213 473.899 37.016H481.899C481.771 33.3893 480.384 30.6373 477.739 28.76C475.093 26.8827 471.637 25.944 467.371 25.944C464.64 25.944 462.208 26.3707 460.075 27.224C457.984 28.0347 456.341 29.2507 455.147 30.872C453.952 32.4933 453.355 34.4987 453.355 36.888C453.355 39.0038 453.879 40.8199 454.928 42.3362C457.139 43.8982 459.285 45.3424 461.405 46.5997C462.624 46.9601 463.972 47.2215 465.451 47.384L468.523 47.704C470.827 47.9173 472.448 48.3653 473.387 49.048C474.255 49.6523 474.739 50.4406 474.839 51.4127C477.416 51.6067 480.076 51.3426 482.883 50.5085Z" fill="url(#paint3_linear_52_473)"/>
<path d="M467.706 56.0872C471.941 57.4204 476.445 57.9178 481.323 57.0424C481.221 57.1958 481.114 57.3471 481.003 57.496C479.765 59.16 478.016 60.4613 475.755 61.4C473.493 62.3387 470.827 62.808 467.755 62.808C462.976 62.808 459.221 61.8053 456.491 59.8C453.803 57.752 452.395 54.936 452.267 51.352H457.66C458.746 52.0125 459.847 52.6421 460.963 53.229C461.285 53.7128 461.714 54.1752 462.251 54.616C463.418 55.5747 465.236 56.0651 467.706 56.0872Z" fill="url(#paint4_linear_52_473)"/>
<path d="M444.928 42.5355V61.72H437.888V53.6274C437.708 54.3635 437.495 55.0557 437.248 55.704C436.352 58.0507 435.008 59.8213 433.216 61.016C431.424 62.2107 429.184 62.808 426.496 62.808H426.112C422.101 62.808 418.986 61.4853 416.768 58.84C414.592 56.1947 413.504 52.2693 413.504 47.064V30.1492C414.585 30.1377 415.688 30.1591 416.814 30.2162C418.742 30.3138 420.6 30.57 422.4 30.9601V47.832C422.4 49.9653 422.997 51.672 424.192 52.952C425.386 54.1893 427.008 54.808 429.056 54.808C431.104 54.808 432.768 54.1467 434.048 52.824C435.37 51.5013 436.032 49.7093 436.032 47.448V36.6057C439.052 38.395 441.987 40.4292 444.928 42.5355Z" fill="url(#paint5_linear_52_473)"/>
<path d="M436.032 29.7357C439.159 31.3744 442.111 33.249 444.928 35.1799V26.904H436.032V29.7357Z" fill="url(#paint6_linear_52_473)"/>
<path d="M408.32 30.4616V34.264H405.888C402.901 34.264 400.576 35.0747 398.912 36.696C397.291 38.2747 396.48 40.5787 396.48 43.608V61.72H387.584V36.5442C389.913 35.5369 392.245 34.5843 394.624 33.7369V38.2384C394.845 36.3765 395.258 34.7328 395.862 33.3071C399.808 31.974 403.898 30.95 408.32 30.4616Z" fill="url(#paint7_linear_52_473)"/>
<path d="M394.624 27.3943V26.968H387.584V30.0245C389.863 29.0817 392.201 28.1875 394.624 27.3943Z" fill="url(#paint8_linear_52_473)"/>
<path d="M369.592 44.2539C366.692 45.3032 363.679 46.2265 360.504 46.9272V61.72H369.592V44.2539Z" fill="url(#paint9_linear_52_473)"/>
<path d="M360.504 40.7686C363.636 40.0003 366.637 38.991 369.592 37.8417V23H383.096V15H347V23H360.504V40.7686Z" fill="url(#paint10_linear_52_473)"/>
<path d="M491.705 53.3407C494.727 51.8294 497.349 50.1795 499.617 48.3757L499.616 49.24C499.616 50.9467 500.064 52.2693 500.96 53.208C501.898 54.104 503.221 54.552 504.928 54.552H510.368V62.168H505.376C502.176 62.168 499.53 61.7627 497.44 60.952C495.392 60.0987 493.856 58.6907 492.832 56.728C492.336 55.7585 491.961 54.6294 491.705 53.3407Z" fill="url(#paint11_linear_52_473)"/>
<path d="M513.61 69.72L520.522 72.344L527.562 53.912L520.138 51.16L513.61 69.72Z" fill="url(#paint12_linear_52_473)"/>
<path d="M360 127.335V142.72H369.088V125.978C366.162 126.559 363.147 127.032 360 127.335Z" fill="url(#paint13_linear_52_473)"/>
<path d="M380.482 123.221L386.496 123.2V121.565C385.63 121.802 384.765 122.042 383.898 122.281C383.11 122.499 382.321 122.717 381.529 122.934C381.18 123.03 380.831 123.125 380.482 123.221Z" fill="url(#paint14_linear_52_473)"/>
<path d="M385.843 115.522C384.681 115.838 383.53 116.157 382.386 116.474C381.568 116.7 380.753 116.925 379.942 117.148C373.394 118.945 366.988 120.578 360 121.306V96H387.392V103.68H369.088V115.58L385.843 115.522Z" fill="url(#paint15_linear_52_473)"/>
<path d="M394.671 119.454V142.72H403.567V124.608C403.567 121.579 404.378 119.275 405.999 117.696C406.131 117.567 406.268 117.443 406.408 117.325C404.873 117.509 403.372 117.729 401.896 117.979C401.824 118.387 401.762 118.807 401.711 119.238V118.011C399.306 118.423 396.969 118.914 394.671 119.454Z" fill="url(#paint16_linear_52_473)"/>
<path d="M401.711 111.93C399.289 112.32 396.949 112.785 394.671 113.297V107.968H401.711V111.93Z" fill="url(#paint17_linear_52_473)"/>
<path d="M404.599 111.507C408.017 111.058 411.603 110.771 415.407 110.72V107.52H414.127C409.988 107.52 406.852 108.8 404.719 111.36C404.678 111.409 404.638 111.458 404.599 111.507Z" fill="url(#paint18_linear_52_473)"/>
<path d="M420.401 116.79C420.217 117.21 420.048 117.64 419.892 118.08C419.167 120.213 418.805 122.432 418.805 124.736V125.952C418.805 128.171 419.167 130.347 419.892 132.48C420.66 134.613 421.77 136.555 423.22 138.304C424.714 140.011 426.57 141.376 428.788 142.4C431.05 143.424 433.674 143.936 436.66 143.936C439.519 143.936 442.058 143.445 444.276 142.464C446.538 141.483 448.394 140.096 449.844 138.304C451.295 136.512 452.276 134.421 452.788 132.032H444.596C444.212 133.312 443.338 134.4 441.973 135.296C440.607 136.149 438.836 136.576 436.66 136.576C434.484 136.576 432.693 136.107 431.284 135.168C429.876 134.187 428.831 132.864 428.148 131.2C427.695 130.066 427.392 128.829 427.24 127.488H453.365V124.288C453.365 123.939 453.356 123.593 453.34 123.249C450.449 122.37 447.561 121.51 444.616 120.717C444.717 121.143 444.801 121.586 444.867 122.048H427.392C427.562 121.07 427.814 120.174 428.148 119.36C428.433 118.691 428.767 118.084 429.149 117.539C426.355 117.172 423.45 116.913 420.401 116.79Z" fill="url(#paint19_linear_52_473)"/>
<path d="M451.814 116.524C443.547 114.073 434.8 111.826 424.498 111.023C425.724 109.917 427.133 109.006 428.724 108.288C430.9 107.264 433.418 106.752 436.276 106.752C440.031 106.752 443.167 107.584 445.684 109.248C448.244 110.869 450.164 113.024 451.444 115.712C451.574 115.98 451.698 116.251 451.814 116.524Z" fill="url(#paint20_linear_52_473)"/>
<path d="M458.492 124.821V125.952C458.492 128.171 458.855 130.347 459.58 132.48C460.348 134.613 461.457 136.555 462.908 138.304C464.401 140.011 466.257 141.376 468.476 142.4C470.737 143.424 473.361 143.936 476.348 143.936C479.207 143.936 481.745 143.445 483.964 142.464C486.225 141.483 488.081 140.096 489.532 138.304C490.983 136.512 491.964 134.421 492.476 132.032H484.284C483.9 133.312 483.025 134.4 481.66 135.296C480.295 136.149 478.524 136.576 476.348 136.576C474.172 136.576 472.38 136.107 470.972 135.168C469.564 134.187 468.519 132.864 467.836 131.2C467.382 130.066 467.08 128.829 466.927 127.488H467.795C464.621 126.656 461.539 125.746 458.492 124.821Z" fill="url(#paint21_linear_52_473)"/>
<path d="M493.052 125.224V124.288C493.052 121.216 492.412 118.357 491.132 115.712C489.852 113.024 487.932 110.869 485.372 109.248C482.855 107.584 479.719 106.752 475.964 106.752C473.105 106.752 470.588 107.264 468.412 108.288C466.236 109.269 464.401 110.613 462.908 112.32C461.457 113.984 460.348 115.904 459.58 118.08C459.498 118.322 459.42 118.566 459.347 118.81C461.986 119.614 464.612 120.401 467.268 121.132C467.42 120.504 467.609 119.913 467.836 119.36C468.561 117.653 469.607 116.352 470.972 115.456C472.337 114.56 474.001 114.112 475.964 114.112C477.927 114.112 479.548 114.539 480.828 115.392C482.151 116.245 483.132 117.461 483.772 119.04C484.136 119.939 484.397 120.942 484.554 122.048H470.737C477.611 123.778 484.807 125.044 493.052 125.224Z" fill="url(#paint22_linear_52_473)"/>
<path d="M498.79 131.174C498.957 131.837 499.159 132.486 499.395 133.12C500.206 135.253 501.358 137.131 502.852 138.752C504.345 140.373 506.115 141.632 508.163 142.528C510.211 143.424 512.451 143.872 514.883 143.872C517.614 143.872 520.046 143.296 522.18 142.144C524.355 140.949 526.105 139.179 527.427 136.832C527.659 136.414 527.872 135.977 528.068 135.524V142.72H535.107V123.161C532.958 123.747 530.828 124.383 528.679 125.036C528.212 125.178 527.743 125.321 527.274 125.464C527.005 125.546 526.737 125.628 526.467 125.71V126.4C526.467 128.448 526.019 130.24 525.123 131.776C524.27 133.269 523.118 134.421 521.667 135.232C520.217 136 518.617 136.384 516.867 136.384C514.99 136.384 513.305 135.936 511.811 135.04C510.361 134.144 509.209 132.885 508.355 131.264C508.194 130.948 508.047 130.623 507.916 130.287C505.041 130.73 502.014 131.044 498.79 131.174Z" fill="url(#paint23_linear_52_473)"/>
<path d="M507.11 124.342C504.294 124.78 501.34 125.082 498.18 125.193V124.736C498.18 122.261 498.563 119.936 499.331 117.76C500.142 115.584 501.251 113.685 502.659 112.064C504.11 110.443 505.838 109.184 507.844 108.288C509.891 107.349 512.153 106.88 514.628 106.88C517.358 106.88 519.747 107.477 521.795 108.672C523.577 109.654 525.049 111.07 526.211 112.92V96H535.107V116.952C532.31 117.677 529.607 118.483 526.934 119.296C526.508 119.425 526.082 119.555 525.656 119.685C525.501 119.346 525.323 119.025 525.123 118.72C524.227 117.312 523.054 116.245 521.604 115.52C520.153 114.752 518.574 114.368 516.867 114.368C514.947 114.368 513.241 114.837 511.747 115.776C510.297 116.672 509.145 117.952 508.292 119.616C507.617 121 507.224 122.575 507.11 124.342Z" fill="url(#paint24_linear_52_473)"/>
<path d="M543.242 121.286C543.034 122.405 542.93 123.555 542.93 124.736V126.08C542.93 128.384 543.335 130.603 544.146 132.736C544.999 134.869 546.236 136.789 547.857 138.496C549.479 140.16 551.463 141.483 553.81 142.464C556.156 143.445 558.865 143.936 561.938 143.936C564.967 143.936 567.655 143.445 570.001 142.464C572.348 141.483 574.332 140.16 575.953 138.496C577.575 136.789 578.791 134.869 579.602 132.736C580.455 130.603 580.881 128.384 580.881 126.08V125.705C577.833 124.568 574.842 123.454 571.715 122.528C571.895 123.421 571.985 124.37 571.985 125.376C571.985 127.467 571.602 129.344 570.833 131.008C570.065 132.629 568.935 133.931 567.441 134.912C565.948 135.851 564.113 136.32 561.938 136.32C559.761 136.32 557.927 135.851 556.433 134.912C554.94 133.931 553.788 132.629 552.977 131.008C552.209 129.344 551.826 127.467 551.826 125.376C551.826 123.448 552.156 121.73 552.818 120.22C549.434 120.355 546.275 120.738 543.242 121.286Z" fill="url(#paint25_linear_52_473)"/>
<path d="M561.15 114.392C560.258 114.315 559.348 114.258 558.417 114.222C553.889 114.049 549.75 114.291 545.876 114.803C546.494 113.872 547.197 113.002 547.985 112.192C549.649 110.485 551.655 109.163 554.001 108.224C556.348 107.243 558.993 106.752 561.938 106.752C564.881 106.752 567.527 107.243 569.873 108.224C572.22 109.163 574.204 110.485 575.826 112.192C577.49 113.856 578.748 115.776 579.602 117.952C579.736 118.288 579.859 118.627 579.973 118.969C575.571 117.363 570.869 115.817 565.482 114.934C564.415 114.557 563.234 114.368 561.938 114.368C561.67 114.368 561.408 114.376 561.15 114.392Z" fill="url(#paint26_linear_52_473)"/>
<path d="M588.671 128.465V142.72H597.567V130.638C594.409 130.127 591.476 129.355 588.671 128.465Z" fill="url(#paint27_linear_52_473)"/>
<path d="M597.567 124.551C594.475 123.983 591.565 123.132 588.671 122.146V107.968H595.711V116.46C595.903 115.622 596.137 114.839 596.415 114.112C597.311 111.723 598.634 109.931 600.383 108.736C602.175 107.499 604.394 106.88 607.039 106.88H607.423C610.111 106.88 612.33 107.499 614.079 108.736C615.871 109.931 617.194 111.723 618.047 114.112C618.125 114.316 618.2 114.525 618.271 114.739C618.342 114.525 618.417 114.316 618.495 114.112C619.434 111.723 620.778 109.931 622.527 108.736C624.319 107.499 626.538 106.88 629.183 106.88H629.567C632.255 106.88 634.495 107.499 636.287 108.736C638.079 109.931 639.423 111.723 640.319 114.112C640.748 115.184 641.078 116.375 641.311 117.687C638.978 118.802 636.653 119.768 634.29 120.602C633.794 120.777 633.296 120.946 632.794 121.11C632.654 119.37 632.112 117.954 631.167 116.864C630.058 115.541 628.479 114.88 626.431 114.88C624.383 114.88 622.74 115.563 621.503 116.928C620.266 118.251 619.647 120.043 619.647 122.304V124.129C616.851 124.537 613.903 124.843 610.751 125.064V122.048C610.751 119.872 610.196 118.144 609.087 116.864C607.978 115.541 606.399 114.88 604.351 114.88C602.303 114.88 600.66 115.563 599.423 116.928C598.186 118.251 597.567 120.043 597.567 122.304V124.551Z" fill="url(#paint28_linear_52_473)"/>
<path d="M610.751 131.078V142.72H619.647V130.189C616.819 130.577 613.867 130.868 610.751 131.078Z" fill="url(#paint29_linear_52_473)"/>
<path d="M632.831 127.386V142.72H641.727V124.099C639.931 124.893 638.123 125.611 636.287 126.259C635.145 126.663 633.994 127.038 632.831 127.386Z" fill="url(#paint30_linear_52_473)"/>
<path d="M649.826 132.48V142.72H659.81V132.48H649.826Z" fill="url(#paint31_linear_52_473)"/>
<defs>
<linearGradient id="paint0_linear_52_473" x1="87.7535" y1="10.5" x2="69.6182" y2="80.1318" gradientUnits="userSpaceOnUse">
<stop stop-color="#5CE2FF"/>
<stop offset="0.992814" stop-color="#6AFFAE"/>
</linearGradient>
<linearGradient id="paint1_linear_52_473" x1="527.562" y1="15" x2="534.016" y2="50.3166" gradientUnits="userSpaceOnUse">
<stop stop-color="#5CE2FF"/>
<stop offset="1" stop-color="#6AFFAE"/>
</linearGradient>
<linearGradient id="paint2_linear_52_473" x1="527.562" y1="15" x2="534.016" y2="50.3166" gradientUnits="userSpaceOnUse">
<stop stop-color="#5CE2FF"/>
<stop offset="1" stop-color="#6AFFAE"/>
</linearGradient>
<linearGradient id="paint3_linear_52_473" x1="527.562" y1="15" x2="534.016" y2="50.3166" gradientUnits="userSpaceOnUse">
<stop stop-color="#5CE2FF"/>
<stop offset="1" stop-color="#6AFFAE"/>
</linearGradient>
<linearGradient id="paint4_linear_52_473" x1="527.562" y1="15" x2="534.016" y2="50.3166" gradientUnits="userSpaceOnUse">
<stop stop-color="#5CE2FF"/>
<stop offset="1" stop-color="#6AFFAE"/>
</linearGradient>
<linearGradient id="paint5_linear_52_473" x1="527.562" y1="15" x2="534.016" y2="50.3166" gradientUnits="userSpaceOnUse">
<stop stop-color="#5CE2FF"/>
<stop offset="1" stop-color="#6AFFAE"/>
</linearGradient>
<linearGradient id="paint6_linear_52_473" x1="527.562" y1="15" x2="534.016" y2="50.3166" gradientUnits="userSpaceOnUse">
<stop stop-color="#5CE2FF"/>
<stop offset="1" stop-color="#6AFFAE"/>
</linearGradient>
<linearGradient id="paint7_linear_52_473" x1="527.562" y1="15" x2="534.016" y2="50.3166" gradientUnits="userSpaceOnUse">
<stop stop-color="#5CE2FF"/>
<stop offset="1" stop-color="#6AFFAE"/>
</linearGradient>
<linearGradient id="paint8_linear_52_473" x1="527.562" y1="15" x2="534.016" y2="50.3166" gradientUnits="userSpaceOnUse">
<stop stop-color="#5CE2FF"/>
<stop offset="1" stop-color="#6AFFAE"/>
</linearGradient>
<linearGradient id="paint9_linear_52_473" x1="527.562" y1="15" x2="534.016" y2="50.3166" gradientUnits="userSpaceOnUse">
<stop stop-color="#5CE2FF"/>
<stop offset="1" stop-color="#6AFFAE"/>
</linearGradient>
<linearGradient id="paint10_linear_52_473" x1="527.562" y1="15" x2="534.016" y2="50.3166" gradientUnits="userSpaceOnUse">
<stop stop-color="#5CE2FF"/>
<stop offset="1" stop-color="#6AFFAE"/>
</linearGradient>
<linearGradient id="paint11_linear_52_473" x1="527.562" y1="15" x2="534.016" y2="50.3166" gradientUnits="userSpaceOnUse">
<stop stop-color="#5CE2FF"/>
<stop offset="1" stop-color="#6AFFAE"/>
</linearGradient>
<linearGradient id="paint12_linear_52_473" x1="527.562" y1="15" x2="534.016" y2="50.3166" gradientUnits="userSpaceOnUse">
<stop stop-color="#5CE2FF"/>
<stop offset="1" stop-color="#6AFFAE"/>
</linearGradient>
<linearGradient id="paint13_linear_52_473" x1="659.806" y1="95.8712" x2="659.34" y2="135.449" gradientUnits="userSpaceOnUse">
<stop stop-color="#5CE2FF"/>
<stop offset="1" stop-color="#6AFFAE"/>
</linearGradient>
<linearGradient id="paint14_linear_52_473" x1="659.806" y1="95.8712" x2="659.34" y2="135.449" gradientUnits="userSpaceOnUse">
<stop stop-color="#5CE2FF"/>
<stop offset="1" stop-color="#6AFFAE"/>
</linearGradient>
<linearGradient id="paint15_linear_52_473" x1="659.806" y1="95.8712" x2="659.34" y2="135.449" gradientUnits="userSpaceOnUse">
<stop stop-color="#5CE2FF"/>
<stop offset="1" stop-color="#6AFFAE"/>
</linearGradient>
<linearGradient id="paint16_linear_52_473" x1="659.806" y1="95.8712" x2="659.34" y2="135.449" gradientUnits="userSpaceOnUse">
<stop stop-color="#5CE2FF"/>
<stop offset="1" stop-color="#6AFFAE"/>
</linearGradient>
<linearGradient id="paint17_linear_52_473" x1="659.806" y1="95.8712" x2="659.34" y2="135.449" gradientUnits="userSpaceOnUse">
<stop stop-color="#5CE2FF"/>
<stop offset="1" stop-color="#6AFFAE"/>
</linearGradient>
<linearGradient id="paint18_linear_52_473" x1="659.806" y1="95.8712" x2="659.34" y2="135.449" gradientUnits="userSpaceOnUse">
<stop stop-color="#5CE2FF"/>
<stop offset="1" stop-color="#6AFFAE"/>
</linearGradient>
<linearGradient id="paint19_linear_52_473" x1="659.806" y1="95.8712" x2="659.34" y2="135.449" gradientUnits="userSpaceOnUse">
<stop stop-color="#5CE2FF"/>
<stop offset="1" stop-color="#6AFFAE"/>
</linearGradient>
<linearGradient id="paint20_linear_52_473" x1="659.806" y1="95.8712" x2="659.34" y2="135.449" gradientUnits="userSpaceOnUse">
<stop stop-color="#5CE2FF"/>
<stop offset="1" stop-color="#6AFFAE"/>
</linearGradient>
<linearGradient id="paint21_linear_52_473" x1="659.806" y1="95.8712" x2="659.34" y2="135.449" gradientUnits="userSpaceOnUse">
<stop stop-color="#5CE2FF"/>
<stop offset="1" stop-color="#6AFFAE"/>
</linearGradient>
<linearGradient id="paint22_linear_52_473" x1="659.806" y1="95.8712" x2="659.34" y2="135.449" gradientUnits="userSpaceOnUse">
<stop stop-color="#5CE2FF"/>
<stop offset="1" stop-color="#6AFFAE"/>
</linearGradient>
<linearGradient id="paint23_linear_52_473" x1="659.806" y1="95.8712" x2="659.34" y2="135.449" gradientUnits="userSpaceOnUse">
<stop stop-color="#5CE2FF"/>
<stop offset="1" stop-color="#6AFFAE"/>
</linearGradient>
<linearGradient id="paint24_linear_52_473" x1="659.806" y1="95.8712" x2="659.34" y2="135.449" gradientUnits="userSpaceOnUse">
<stop stop-color="#5CE2FF"/>
<stop offset="1" stop-color="#6AFFAE"/>
</linearGradient>
<linearGradient id="paint25_linear_52_473" x1="659.806" y1="95.8712" x2="659.34" y2="135.449" gradientUnits="userSpaceOnUse">
<stop stop-color="#5CE2FF"/>
<stop offset="1" stop-color="#6AFFAE"/>
</linearGradient>
<linearGradient id="paint26_linear_52_473" x1="659.806" y1="95.8712" x2="659.34" y2="135.449" gradientUnits="userSpaceOnUse">
<stop stop-color="#5CE2FF"/>
<stop offset="1" stop-color="#6AFFAE"/>
</linearGradient>
<linearGradient id="paint27_linear_52_473" x1="659.806" y1="95.8712" x2="659.34" y2="135.449" gradientUnits="userSpaceOnUse">
<stop stop-color="#5CE2FF"/>
<stop offset="1" stop-color="#6AFFAE"/>
</linearGradient>
<linearGradient id="paint28_linear_52_473" x1="659.806" y1="95.8712" x2="659.34" y2="135.449" gradientUnits="userSpaceOnUse">
<stop stop-color="#5CE2FF"/>
<stop offset="1" stop-color="#6AFFAE"/>
</linearGradient>
<linearGradient id="paint29_linear_52_473" x1="659.806" y1="95.8712" x2="659.34" y2="135.449" gradientUnits="userSpaceOnUse">
<stop stop-color="#5CE2FF"/>
<stop offset="1" stop-color="#6AFFAE"/>
</linearGradient>
<linearGradient id="paint30_linear_52_473" x1="659.806" y1="95.8712" x2="659.34" y2="135.449" gradientUnits="userSpaceOnUse">
<stop stop-color="#5CE2FF"/>
<stop offset="1" stop-color="#6AFFAE"/>
</linearGradient>
<linearGradient id="paint31_linear_52_473" x1="659.806" y1="95.8712" x2="659.34" y2="135.449" gradientUnits="userSpaceOnUse">
<stop stop-color="#5CE2FF"/>
<stop offset="1" stop-color="#6AFFAE"/>
</linearGradient>
</defs>
</svg>
