<svg width="1241" height="619" viewBox="0 0 1241 619" fill="none" xmlns="http://www.w3.org/2000/svg">
<g filter="url(#filter0_bd_51_13)">
<path d="M4.00488 39.0052C4.00488 39.0052 3.51754 16.5054 12.2897 8.00547C21.0618 -0.494455 46.8908 0.00553519 48.8401 0.00554185L291.048 0.00554164C292.023 0.00554164 317.852 0.0055418 329.061 7.50547C343.348 17.0651 375.376 71.505 375.845 72.005C375.845 72.005 380.241 78.9107 388.516 84.0049C396.791 89.0991 405.086 88.005 407.522 88.005H1201.5C1201.5 88.005 1219.05 86.3005 1228.5 96C1237.95 105.699 1235.99 117 1235.99 117V495.5C1235.99 495.5 1237.26 514.5 1228 524C1218.74 533.5 1194 533 1194 533L593.5 532.933C593.5 532.933 574.243 532.301 564 538C555.56 542.696 548.5 552.608 548.5 552.608L518.5 592C518.5 592 513.704 599.505 503 605C492.296 610.495 478 609.995 478 609.995H415.5C415.5 609.995 401.297 610.86 394 603C387.226 595.703 388.038 584.5 388.038 584.5V554C388.038 554 387.962 545.62 382.5 539.5C376.38 532.642 364.5 532.994 364.5 532.994H147C147 532.994 134.146 532.504 129 537.5C123.854 542.496 123.905 553 123.905 553V588.5C123.905 588.5 124.83 597.005 118.5 603.5C111.545 610.636 98 609.995 98 609.995H39C39 609.995 24.0297 610.663 14 600C3.97031 589.337 4 573 4 573C4 341.888 4.00488 39.0052 4.00488 39.0052Z" fill="#B7B7B7" fill-opacity="0.08" shape-rendering="crispEdges"/>
<path d="M4.00488 39.0052L4.505 39.0052L4.50477 38.9944L4.00488 39.0052ZM4.00488 39.0052C4.50488 39.0052 4.50488 39.0063 4.50488 39.0087L4.50488 39.019L4.50488 39.0605L4.50488 39.2256L4.50487 39.8811L4.50483 42.4631L4.50467 52.4711L4.50412 89.9417L4.50244 219.336C4.50122 323.945 4.5 457.444 4.5 573.001H4.4956C4.5 573.001 4.5 573.001 4.5 573.001L4.5 573.003L4.50001 573.01L4.5002 573.043C4.50044 573.073 4.50095 573.118 4.50203 573.177C4.5042 573.296 4.50867 573.473 4.51791 573.703C4.53638 574.163 4.57389 574.834 4.65003 575.674C4.80236 577.355 5.10905 579.707 5.72614 582.389C6.96206 587.761 9.43372 594.415 14.3642 599.657C19.2895 604.894 25.4373 607.357 30.3747 608.509C32.8415 609.085 34.9987 609.331 36.5374 609.434C37.3065 609.485 37.9203 609.5 38.3401 609.503C38.55 609.504 38.7113 609.502 38.8192 609.5C38.8731 609.499 38.9137 609.497 38.9403 609.497L38.9697 609.495L38.9764 609.495L38.9777 609.495L38.9888 609.495H39H98H98.0118L98.0237 609.495L98.0233 609.503C98.0237 609.495 98.0237 609.495 98.0237 609.495L98.025 609.495L98.0313 609.496L98.0583 609.497C98.0827 609.498 98.1196 609.499 98.1685 609.5C98.2662 609.503 98.4118 609.507 98.6003 609.508C98.9773 609.512 99.5258 609.509 100.206 609.484C101.569 609.433 103.456 609.292 105.557 608.93C109.777 608.205 114.775 606.606 118.142 603.151C121.22 599.993 122.538 596.343 123.085 593.471C123.358 592.036 123.438 590.799 123.45 589.924C123.456 589.486 123.445 589.14 123.433 588.905C123.429 588.827 123.424 588.761 123.42 588.709C123.419 588.682 123.417 588.658 123.415 588.638C123.413 588.608 123.411 588.586 123.409 588.572L123.408 588.557L123.407 588.554L518.079 591.731L518.09 591.713L518.102 591.697L548.093 552.318L548.093 552.317L548.094 552.316L548.099 552.31L548.102 552.305L548.115 552.287C548.129 552.268 548.15 552.239 548.177 552.201C548.232 552.126 548.313 552.015 548.419 551.874C548.631 551.59 548.943 551.181 549.343 550.676C550.143 549.665 551.297 548.27 552.717 546.726C555.551 543.646 559.469 539.949 563.757 537.563C568.976 534.659 576.441 533.387 582.546 532.831C585.609 532.553 588.349 532.453 590.323 532.423C591.311 532.408 592.108 532.411 592.658 532.417C592.933 532.42 593.147 532.424 593.292 532.427C593.365 532.429 593.421 532.43 593.458 532.431L593.501 532.433L593.508 532.433L593.512 532.433L593.515 532.433H593.516L1194 532.5H1194.01L1194 533L1194.01 532.5L1194.01 532.5L1194.03 532.5L1194.08 532.501C1194.12 532.502 1194.19 532.503 1194.28 532.503C1194.46 532.505 1194.73 532.505 1195.08 532.503C1195.77 532.498 1196.76 532.481 1197.99 532.43C1200.44 532.329 1203.81 532.096 1207.46 531.568C1211.11 531.039 1215.03 530.217 1218.61 528.943C1222.2 527.667 1225.4 525.95 1227.64 523.651C1232.16 519.017 1234.14 512.024 1234.97 506.117C1235.39 503.175 1235.52 500.525 1235.55 498.61C1235.56 497.654 1235.55 496.882 1235.53 496.35C1235.52 496.085 1235.51 495.879 1235.51 495.74C1235.5 495.671 1235.5 495.619 1235.5 495.584L1235.5 495.545L1235.5 495.536L1235.5 495.533L1235.49 495.517V495.5V117V116.957L1235.5 116.915L1235.5 116.91L1235.51 116.889C1235.51 116.87 1235.51 116.841 1235.52 116.801C1235.53 116.721 1235.55 116.6 1235.56 116.442C1235.6 116.126 1235.64 115.659 1235.65 115.068C1235.69 113.884 1235.64 112.202 1235.3 110.222C1234.62 106.263 1232.78 101.112 1228.14 96.349C1223.53 91.6158 1216.91 89.6405 1211.38 88.8603C1208.63 88.4713 1206.17 88.382 1204.39 88.3902C1203.5 88.3943 1202.79 88.4227 1202.3 88.4499C1202.05 88.4635 1201.87 88.4769 1201.74 88.4867C1201.67 88.4916 1201.63 88.4957 1201.59 88.4985L1201.56 88.5017L1201.55 88.5024L1201.55 88.5026L1201.52 88.505H1201.5H407.522C407.239 88.505 406.869 88.5207 406.424 88.5398C403.128 88.6804 395.674 88.9985 388.254 84.4307C384.065 81.8523 380.862 78.8179 378.706 76.4297C377.628 75.2349 376.81 74.2001 376.26 73.4622C375.985 73.0932 375.778 72.7983 375.638 72.5945C375.568 72.4926 375.515 72.4135 375.479 72.3593C375.461 72.3322 375.448 72.3113 375.438 72.2969L375.438 72.2966C375.416 72.2672 375.397 72.239 375.387 72.2237L375.384 72.2201C375.359 72.1814 375.326 72.131 375.288 72.0708C375.211 71.95 375.106 71.78 374.974 71.5654C374.717 71.1488 374.356 70.5568 373.902 69.8129L373.859 69.7424C372.911 68.1875 371.566 65.9836 369.921 63.3233C366.631 58.0024 362.14 50.8565 357.218 43.4288C352.295 35.9998 346.945 28.2947 341.937 21.8531C336.916 15.394 332.279 10.2606 328.782 7.92103C323.288 4.24442 314.138 2.37711 306.158 1.43962C298.206 0.505457 291.528 0.505542 291.048 0.505542L48.8401 0.505542C48.7671 0.505542 48.6611 0.50485 48.5242 0.503956C46.8249 0.492865 40.3671 0.450714 33.1831 1.31446C29.3014 1.78116 25.2221 2.5108 21.576 3.64694C17.9216 4.78568 14.7488 6.31882 12.6376 8.36455C10.5209 10.4156 8.9395 13.3367 7.76495 16.6042C6.59212 19.867 5.83694 23.4411 5.3525 26.7649C4.86832 30.087 4.65627 33.1471 4.56538 35.3771C4.51996 36.4918 4.50484 37.3981 4.50107 38.0248C4.49918 38.3382 4.50012 38.5816 4.50153 38.7461C4.50224 38.8284 4.50306 38.891 4.50369 38.9327L4.50448 38.9796L4.5047 38.991L4.50475 38.9937L4.50476 38.9943L4.00488 39.0052Z" stroke="#4B5563" shape-rendering="crispEdges"/>
</g>
<defs>
<filter id="filter0_bd_51_13" x="-8" y="-12" width="1256.16" height="634.023" filterUnits="userSpaceOnUse" color-interpolation-filters="sRGB">
<feFlood flood-opacity="0" result="BackgroundImageFix"/>
<feGaussianBlur in="BackgroundImageFix" stdDeviation="6"/>
<feComposite in2="SourceAlpha" operator="in" result="effect1_backgroundBlur_51_13"/>
<feColorMatrix in="SourceAlpha" type="matrix" values="0 0 0 0 0 0 0 0 0 0 0 0 0 0 0 0 0 0 127 0" result="hardAlpha"/>
<feOffset dy="4"/>
<feGaussianBlur stdDeviation="2"/>
<feComposite in2="hardAlpha" operator="out"/>
<feColorMatrix type="matrix" values="0 0 0 0 0 0 0 0 0 0 0 0 0 0 0 0 0 0 0.1 0"/>
<feBlend mode="normal" in2="effect1_backgroundBlur_51_13" result="effect2_dropShadow_51_13"/>
<feBlend mode="normal" in="SourceGraphic" in2="effect2_dropShadow_51_13" result="shape"/>
</filter>
</defs>
</svg>
