<svg width="500" height="500" viewBox="0 0 500 500" fill="none" xmlns="http://www.w3.org/2000/svg">
<path d="M500 382.4H0V382.65H500V382.4Z" fill="#EBEBEB"/>
<path d="M449.9 398.49H416.78V398.74H449.9V398.49Z" fill="#EBEBEB"/>
<path d="M331.22 401.21H322.53V401.46H331.22V401.21Z" fill="#EBEBEB"/>
<path d="M415.78 389.21H396.59V389.46H415.78V389.21Z" fill="#EBEBEB"/>
<path d="M95.65 390.89H52.46V391.14H95.65V390.89Z" fill="#EBEBEB"/>
<path d="M110.89 390.89H104.56V391.14H110.89V390.89Z" fill="#EBEBEB"/>
<path d="M225.15 395.11H131.47V395.36H225.15V395.11Z" fill="#EBEBEB"/>
<path d="M237 337.8H43.91C42.3973 337.797 40.9475 337.195 39.8788 336.124C38.8102 335.053 38.21 333.603 38.21 332.09V60.66C38.2231 59.156 38.8292 57.718 39.8964 56.6582C40.9637 55.5985 42.4059 55.0026 43.91 55H237C238.514 55 239.967 55.6016 241.038 56.6724C242.108 57.7433 242.71 59.1956 242.71 60.71V332.09C242.71 333.604 242.108 335.057 241.038 336.128C239.967 337.198 238.514 337.8 237 337.8ZM43.91 55.2C42.4636 55.2026 41.0774 55.7791 40.0556 56.8027C39.0338 57.8264 38.46 59.2136 38.46 60.66V332.09C38.46 333.536 39.0338 334.924 40.0556 335.947C41.0774 336.971 42.4636 337.547 43.91 337.55H237C238.447 337.547 239.834 336.971 240.858 335.948C241.881 334.924 242.457 333.537 242.46 332.09V60.66C242.457 59.2127 241.881 57.8255 240.858 56.8021C239.834 55.7787 238.447 55.2026 237 55.2H43.91Z" fill="#EBEBEB"/>
<path d="M453.31 337.8H260.21C258.696 337.797 257.246 337.195 256.175 336.125C255.105 335.054 254.503 333.604 254.5 332.09V60.66C254.516 59.1551 255.124 57.7171 256.193 56.6576C257.262 55.5981 258.705 55.0025 260.21 55H453.31C454.812 55.0052 456.252 55.6022 457.317 56.6617C458.382 57.7212 458.987 59.1578 459 60.66V332.09C459 333.601 458.401 335.05 457.335 336.121C456.268 337.191 454.821 337.795 453.31 337.8ZM260.21 55.2C258.763 55.2026 257.375 55.7787 256.352 56.8021C255.329 57.8255 254.753 59.2127 254.75 60.66V332.09C254.753 333.537 255.329 334.924 256.352 335.948C257.375 336.971 258.763 337.547 260.21 337.55H453.31C454.757 337.547 456.145 336.971 457.168 335.948C458.191 334.924 458.767 333.537 458.77 332.09V60.66C458.767 59.2127 458.191 57.8255 457.168 56.8021C456.145 55.7787 454.757 55.2026 453.31 55.2H260.21Z" fill="#EBEBEB"/>
<path d="M216.27 90.06H73.1399V237.96H216.27V90.06Z" fill="#EBEBEB"/>
<path d="M221.27 90.06H78.1399V237.96H221.27V90.06Z" fill="#F0F0F0"/>
<path d="M217.48 93.57H81.75V234.52H217.48V93.57Z" fill="#E0E0E0"/>
<path d="M214.09 93.56H81.75V234.51H214.09V93.56Z" fill="#F5F5F5"/>
<path d="M149.29 93.57H146.6V234.52H149.29V93.57Z" fill="#EBEBEB"/>
<path d="M131.13 93.56L93.41 234.51H89.79L127.51 93.56H131.13Z" fill="white"/>
<path d="M150.44 91.39H148.14V237.22H150.44V91.39Z" fill="#F0F0F0"/>
<path d="M117.44 93.56L81.75 226.95V153.63L97.82 93.56H117.44Z" fill="white"/>
<path d="M214.09 106.35V119.88L183.41 234.51H179.79L214.09 106.35Z" fill="white"/>
<path d="M214.09 133.67V206.99L206.73 234.51H187.11L214.09 133.67Z" fill="white"/>
<path d="M323.73 283.11H443.87C443.869 285.233 443.05 287.273 441.582 288.806C440.114 290.34 438.111 291.247 435.99 291.34C423.08 291.92 403.22 293.96 396.92 301.11C385.18 314.43 386.31 361.2 400.38 372.04C404.79 375.43 417.64 382.18 417.64 382.18H350C350 382.18 362 375.3 366.19 372.04C380.19 361.11 380.58 314.36 368.78 301.11C362.73 294.31 344.11 292.11 331.62 291.42C329.49 291.31 327.485 290.386 326.016 288.84C324.548 287.293 323.73 285.242 323.73 283.11Z" fill="#F5F5F5"/>
<path d="M429 291.78C416.79 292.78 402.17 295.17 396.93 301.11C395.217 303.16 393.864 305.487 392.93 307.99H372.77C371.833 305.488 370.481 303.162 368.77 301.11C363.51 295.2 348.77 292.77 336.77 291.78H429Z" fill="#E6E6E6"/>
<path d="M374.9 283.17L376.54 264.49H352.86L351.22 283.17H374.9Z" fill="#EBEBEB"/>
<path d="M374.9 283.17L376.54 264.49H377.81L376.18 283.17H374.9Z" fill="#E0E0E0"/>
<path d="M372.66 281.26L373.96 266.4H355.1L353.8 281.26H372.66Z" fill="#F0F0F0"/>
<path d="M371.21 280.04L372.3 267.62H356.55L355.46 280.04H371.21Z" fill="#FAFAFA"/>
<path d="M382.59 283.11H406.38L403.74 252.94H379.95L382.59 283.11Z" fill="#E6E6E6"/>
<path d="M382.59 283.11H381.45L378.81 252.94H379.95L382.59 283.11Z" fill="#E0E0E0"/>
<path d="M384.74 280.03H403.68L401.58 256.01H382.64L384.74 280.03Z" fill="#F0F0F0"/>
<path d="M386.13 278.06H401.95L400.19 257.99H384.37L386.13 278.06Z" fill="#FAFAFA"/>
<path d="M394.12 267C393.603 267.514 392.904 267.802 392.175 267.802C391.446 267.802 390.747 267.514 390.23 267C389.973 266.745 389.77 266.442 389.631 266.108C389.491 265.775 389.42 265.417 389.42 265.055C389.42 264.693 389.491 264.335 389.631 264.002C389.77 263.668 389.973 263.365 390.23 263.11C390.485 262.853 390.788 262.65 391.122 262.511C391.455 262.371 391.813 262.3 392.175 262.3C392.537 262.3 392.895 262.371 393.228 262.511C393.562 262.65 393.865 262.853 394.12 263.11C394.634 263.627 394.922 264.326 394.922 265.055C394.922 265.784 394.634 266.483 394.12 267Z" fill="#EBEBEB"/>
<path d="M393 270.39C393.186 270.201 393.408 270.051 393.653 269.949C393.897 269.846 394.16 269.793 394.425 269.793C394.69 269.793 394.953 269.846 395.197 269.949C395.442 270.051 395.664 270.201 395.85 270.39C396.139 270.669 396.338 271.028 396.42 271.421C396.502 271.814 396.464 272.222 396.311 272.593C396.158 272.964 395.896 273.281 395.561 273.501C395.226 273.722 394.831 273.836 394.43 273.83C394.028 273.839 393.632 273.726 393.295 273.506C392.958 273.286 392.695 272.97 392.541 272.598C392.386 272.227 392.347 271.817 392.429 271.423C392.511 271.029 392.71 270.669 393 270.39Z" fill="#F0F0F0"/>
<path d="M191.34 376H214.51L202.32 276.8C202.029 274.728 201.012 272.827 199.45 271.435C197.887 270.043 195.882 269.251 193.79 269.2H92.6899L107.51 376H191.34Z" fill="#F5F5F5"/>
<path d="M117.85 376H94.6801L82.5001 276.8C82.3502 275.847 82.4117 274.872 82.6804 273.946C82.949 273.019 83.4182 272.163 84.0547 271.437C84.6911 270.712 85.4793 270.136 86.3633 269.749C87.2473 269.363 88.2055 269.175 89.17 269.2H97.17C99.2623 269.252 101.268 270.045 102.832 271.436C104.395 272.827 105.415 274.728 105.71 276.8L117.85 376Z" fill="#F0F0F0"/>
<path d="M126.39 375.89L122.19 327.89C122.097 326.847 121.65 325.866 120.922 325.113C120.194 324.36 119.23 323.879 118.19 323.75L116.46 323.53C115.072 323.351 113.787 322.703 112.818 321.694C111.848 320.684 111.253 319.374 111.13 317.98L110.36 309.23C110.285 308.382 110.387 307.529 110.66 306.723C110.934 305.917 111.371 305.177 111.946 304.549C112.521 303.922 113.22 303.421 113.999 303.079C114.778 302.736 115.619 302.559 116.47 302.56H77.7701C76.9192 302.559 76.0776 302.736 75.2987 303.079C74.5198 303.421 73.8208 303.922 73.2461 304.549C72.6713 305.177 72.2335 305.917 71.9605 306.723C71.6874 307.529 71.5851 308.382 71.6601 309.23L72.4201 317.98C72.547 319.374 73.1451 320.684 74.1157 321.692C75.0864 322.701 76.3718 323.349 77.7601 323.53L79.4901 323.75C80.5311 323.875 81.4974 324.355 82.2259 325.109C82.9545 325.863 83.401 326.845 83.4901 327.89L87.6901 375.89C87.8399 377.577 88.6158 379.147 89.8651 380.291C91.1143 381.434 92.7463 382.069 94.4401 382.07H133.16C131.462 382.079 129.822 381.448 128.568 380.303C127.313 379.158 126.536 377.582 126.39 375.89Z" fill="#E6E6E6"/>
<path d="M233 315.9C233.318 312.265 234.986 308.881 237.675 306.415C240.365 303.95 243.881 302.581 247.53 302.58H213.77C210.12 302.579 206.603 303.946 203.913 306.413C201.223 308.879 199.555 312.264 199.24 315.9L195.91 353.9H229.62L233 315.9Z" fill="#E6E6E6"/>
<path d="M262.46 302.58H247.46C243.823 302.599 240.325 303.975 237.65 306.439C234.975 308.903 233.317 312.277 233 315.9L229.67 353.9H149.33L146 315.9C145.682 312.265 144.014 308.881 141.325 306.415C138.635 303.95 135.119 302.581 131.47 302.58H116.47C115.619 302.579 114.778 302.756 113.999 303.099C113.22 303.441 112.521 303.942 111.946 304.569C111.371 305.197 110.933 305.937 110.66 306.743C110.387 307.549 110.285 308.402 110.36 309.25L111.13 318C111.253 319.394 111.848 320.704 112.818 321.714C113.787 322.723 115.072 323.371 116.46 323.55L118.19 323.77C119.23 323.899 120.194 324.38 120.922 325.133C121.65 325.886 122.097 326.867 122.19 327.91L126.39 375.91C126.535 377.597 127.308 379.168 128.557 380.313C129.805 381.457 131.437 382.091 133.13 382.09H245.82C247.513 382.091 249.145 381.457 250.394 380.313C251.642 379.168 252.415 377.597 252.56 375.91L256.76 327.91C256.853 326.867 257.3 325.886 258.028 325.133C258.756 324.38 259.72 323.899 260.76 323.77L262.49 323.55C263.874 323.367 265.155 322.717 266.12 321.708C267.085 320.699 267.678 319.391 267.8 318L268.57 309.25C268.645 308.402 268.543 307.549 268.27 306.743C267.997 305.937 267.559 305.197 266.984 304.569C266.409 303.942 265.71 303.441 264.931 303.099C264.153 302.756 263.311 302.579 262.46 302.58Z" fill="#F0F0F0"/>
<path d="M418.74 144.02V113.02H374.87V144.02H418.74Z" fill="#E0E0E0"/>
<path d="M416.67 142.01V115.05H376.92V142.01H416.67Z" fill="#EBEBEB"/>
<path d="M403.52 182.99V151.98H359.65V182.99H403.52Z" fill="#E0E0E0"/>
<path d="M401.45 180.96V154H361.7V180.96H401.45Z" fill="#EBEBEB"/>
<path d="M338.62 144.03H366.54V104.53H338.62V144.03Z" fill="#E0E0E0"/>
<path d="M340.44 142.17H364.72V106.38H340.44V142.17Z" fill="#EBEBEB"/>
<path d="M322.73 195.85H353.74V151.98H322.73V195.85Z" fill="#E0E0E0"/>
<path d="M324.76 193.79H351.72V154.04H324.76V193.79Z" fill="#EBEBEB"/>
<path d="M294.79 119.75V144.03H329.14V119.75H294.79Z" fill="#E0E0E0"/>
<path d="M296.4 121.34V142.45H327.52V121.34H296.4Z" fill="#EBEBEB"/>
<path d="M250 427.56C357.083 427.56 443.89 422.492 443.89 416.24C443.89 409.988 357.083 404.92 250 404.92C142.918 404.92 56.1101 409.988 56.1101 416.24C56.1101 422.492 142.918 427.56 250 427.56Z" fill="#6AFFAE"/>
<path d="M250 427.56C357.083 427.56 443.89 422.492 443.89 416.24C443.89 409.988 357.083 404.92 250 404.92C142.918 404.92 56.1101 409.988 56.1101 416.24C56.1101 422.492 142.918 427.56 250 427.56Z" fill="white" fill-opacity="0.7"/>
<path d="M342.29 133.46H198.62C192.876 133.46 188.22 138.116 188.22 143.86V398.89C188.22 404.634 192.876 409.29 198.62 409.29H342.29C348.034 409.29 352.69 404.634 352.69 398.89V143.86C352.69 138.116 348.034 133.46 342.29 133.46Z" fill="#263238"/>
<path d="M347.14 143.37V398.85C347.14 399.383 347.034 399.911 346.827 400.402C346.62 400.893 346.318 401.338 345.937 401.711C345.556 402.083 345.104 402.376 344.608 402.572C344.113 402.767 343.583 402.862 343.05 402.85H197.42C196.935 402.857 196.454 402.766 196.006 402.582C195.557 402.399 195.15 402.127 194.809 401.782C194.469 401.437 194.201 401.028 194.022 400.577C193.844 400.126 193.758 399.645 193.77 399.16V143C193.751 142.573 193.817 142.146 193.964 141.745C194.111 141.343 194.336 140.974 194.626 140.66C194.916 140.346 195.265 140.092 195.654 139.914C196.043 139.735 196.463 139.635 196.89 139.62H233.3C233.809 139.63 234.303 139.79 234.721 140.08C235.14 140.37 235.463 140.777 235.65 141.25L237.15 144.97C237.338 145.442 237.661 145.848 238.079 146.136C238.498 146.425 238.992 146.582 239.5 146.59H301.5C302.006 146.587 302.5 146.433 302.919 146.148C303.337 145.863 303.661 145.46 303.85 144.99L305.36 141.26C305.544 140.786 305.864 140.377 306.281 140.085C306.698 139.793 307.191 139.631 307.7 139.62H343.59C344.556 139.651 345.471 140.063 346.136 140.765C346.801 141.467 347.162 142.403 347.14 143.37Z" fill="#6AFFAE"/>
<path opacity="0.3" d="M347.14 143.37V398.85C347.14 399.383 347.034 399.911 346.827 400.402C346.62 400.893 346.318 401.338 345.937 401.711C345.556 402.083 345.104 402.376 344.608 402.572C344.113 402.767 343.583 402.862 343.05 402.85H197.42C196.935 402.857 196.454 402.766 196.006 402.582C195.557 402.399 195.15 402.127 194.809 401.782C194.469 401.437 194.201 401.028 194.022 400.577C193.844 400.126 193.758 399.645 193.77 399.16V143C193.751 142.573 193.817 142.146 193.964 141.745C194.111 141.343 194.336 140.974 194.626 140.66C194.916 140.346 195.265 140.092 195.654 139.914C196.043 139.735 196.463 139.635 196.89 139.62H233.3C233.809 139.63 234.303 139.79 234.721 140.08C235.14 140.37 235.463 140.777 235.65 141.25L237.15 144.97C237.338 145.442 237.661 145.848 238.079 146.136C238.498 146.425 238.992 146.582 239.5 146.59H301.5C302.006 146.587 302.5 146.433 302.919 146.148C303.337 145.863 303.661 145.46 303.85 144.99L305.36 141.26C305.544 140.786 305.864 140.377 306.281 140.085C306.698 139.793 307.191 139.631 307.7 139.62H343.59C344.556 139.651 345.471 140.063 346.136 140.765C346.801 141.467 347.162 142.403 347.14 143.37Z" fill="black"/>
<path opacity="0.7" d="M347.14 156.87H193.77V384.08H347.14V156.87Z" fill="white"/>
<path opacity="0.6" d="M210.67 150.76H212.56V148.23H210.67V150.76Z" fill="white"/>
<path opacity="0.6" d="M207.59 150.76H209.48V147.39H207.59V150.76Z" fill="white"/>
<path opacity="0.6" d="M204.5 150.76H206.39V146.55H204.5V150.76Z" fill="white"/>
<path opacity="0.6" d="M201.41 150.76H203.3V145.71H201.41V150.76Z" fill="white"/>
<path opacity="0.6" d="M329.78 147.31H328.66V149.84H329.78V147.31Z" fill="white"/>
<path opacity="0.6" d="M330.55 150.76H339.5V146.39H330.55V150.76Z" fill="white"/>
<path d="M241 356.85V357.43H236.53V351.12H240.86V351.69H237.2V353.94H240.46V354.51H237.2V356.85H241Z" fill="#6AFFAE"/>
<path d="M246.75 354.68V357.43H246.11V354.74C246.14 354.542 246.124 354.339 246.064 354.148C246.004 353.957 245.901 353.782 245.763 353.636C245.625 353.491 245.456 353.379 245.268 353.308C245.081 353.238 244.879 353.211 244.68 353.23C244.453 353.213 244.225 353.245 244.013 353.326C243.8 353.406 243.607 353.533 243.449 353.696C243.291 353.859 243.17 354.055 243.096 354.27C243.022 354.485 242.996 354.714 243.02 354.94V357.43H242.38V352.68H243V353.56C243.192 353.262 243.46 353.021 243.777 352.861C244.093 352.702 244.446 352.629 244.8 352.65C245.068 352.629 245.338 352.668 245.59 352.763C245.841 352.859 246.069 353.009 246.255 353.204C246.442 353.398 246.583 353.631 246.668 353.886C246.754 354.142 246.782 354.413 246.75 354.68Z" fill="#6AFFAE"/>
<path d="M248 355.06C247.99 354.737 248.047 354.416 248.167 354.117C248.287 353.817 248.468 353.546 248.698 353.319C248.928 353.093 249.202 352.917 249.504 352.801C249.805 352.686 250.128 352.635 250.45 352.65C250.815 352.628 251.18 352.704 251.507 352.869C251.834 353.034 252.111 353.283 252.31 353.59L251.83 353.91C251.677 353.687 251.471 353.506 251.23 353.383C250.988 353.261 250.72 353.201 250.45 353.21C249.984 353.244 249.548 353.454 249.23 353.796C248.913 354.138 248.736 354.588 248.736 355.055C248.736 355.522 248.913 355.972 249.23 356.314C249.548 356.656 249.984 356.866 250.45 356.9C250.719 356.911 250.987 356.853 251.229 356.732C251.47 356.612 251.677 356.432 251.83 356.21L252.31 356.54C252.107 356.843 251.829 357.088 251.503 357.251C251.177 357.414 250.814 357.49 250.45 357.47C250.128 357.485 249.805 357.434 249.504 357.319C249.202 357.203 248.928 357.027 248.698 356.801C248.468 356.575 248.287 356.303 248.167 356.003C248.047 355.704 247.99 355.383 248 355.06Z" fill="#6AFFAE"/>
<path d="M256 352.65V353.27H255.85C255.624 353.259 255.398 353.298 255.189 353.384C254.979 353.471 254.791 353.602 254.639 353.769C254.486 353.936 254.372 354.135 254.305 354.351C254.237 354.567 254.219 354.796 254.25 355.02V357.44H253.61V352.69H254.23V353.62C254.392 353.298 254.648 353.033 254.964 352.86C255.28 352.687 255.641 352.613 256 352.65Z" fill="#6AFFAE"/>
<path d="M261.33 352.68L259 358C258.61 358.92 258.1 359.22 257.42 359.22C256.995 359.234 256.582 359.08 256.27 358.79L256.57 358.31C256.68 358.427 256.814 358.519 256.962 358.581C257.11 358.643 257.269 358.673 257.43 358.67C257.86 358.67 258.15 358.47 258.43 357.88L258.63 357.42L256.51 352.68H257.18L258.97 356.68L260.75 352.68H261.33Z" fill="#6AFFAE"/>
<path d="M267.05 355.06C267.067 355.378 267.017 355.695 266.905 355.992C266.792 356.29 266.619 356.56 266.396 356.787C266.173 357.014 265.905 357.192 265.61 357.309C265.314 357.427 264.998 357.482 264.68 357.47C264.326 357.481 263.974 357.402 263.659 357.239C263.344 357.076 263.076 356.836 262.88 356.54V359.18H262.24V352.68H262.85V353.62C263.039 353.306 263.308 353.048 263.63 352.873C263.951 352.697 264.314 352.61 264.68 352.62C265 352.608 265.32 352.664 265.617 352.783C265.915 352.902 266.184 353.083 266.408 353.313C266.631 353.543 266.804 353.817 266.914 354.118C267.025 354.419 267.071 354.74 267.05 355.06ZM266.41 355.06C266.41 354.591 266.224 354.14 265.892 353.808C265.56 353.476 265.109 353.29 264.64 353.29C264.171 353.29 263.72 353.476 263.388 353.808C263.056 354.14 262.87 354.591 262.87 355.06C262.87 355.529 263.056 355.98 263.388 356.312C263.72 356.644 264.171 356.83 264.64 356.83C265.109 356.83 265.56 356.644 265.892 356.312C266.224 355.98 266.41 355.529 266.41 355.06Z" fill="#6AFFAE"/>
<path d="M270.86 357.14C270.575 357.363 270.221 357.479 269.86 357.47C269.673 357.492 269.483 357.472 269.305 357.411C269.127 357.349 268.965 357.249 268.831 357.116C268.698 356.983 268.596 356.822 268.533 356.644C268.471 356.467 268.449 356.277 268.47 356.09V353.23H267.62V352.68H268.47V351.68H269.11V352.68H270.55V353.23H269.11V356.06C269.094 356.173 269.105 356.288 269.14 356.397C269.175 356.506 269.234 356.605 269.313 356.687C269.392 356.77 269.488 356.834 269.595 356.874C269.702 356.914 269.816 356.93 269.93 356.92C270.184 356.927 270.433 356.841 270.63 356.68L270.86 357.14Z" fill="#6AFFAE"/>
<path d="M271.88 351.19C271.881 351.13 271.894 351.07 271.919 351.015C271.943 350.959 271.978 350.909 272.022 350.868C272.065 350.826 272.117 350.793 272.173 350.771C272.229 350.749 272.289 350.739 272.35 350.74C272.41 350.737 272.47 350.747 272.526 350.767C272.582 350.788 272.634 350.82 272.678 350.861C272.721 350.902 272.756 350.951 272.781 351.006C272.805 351.061 272.819 351.12 272.82 351.18C272.82 351.305 272.77 351.424 272.682 351.512C272.594 351.6 272.475 351.65 272.35 351.65C272.225 351.65 272.106 351.6 272.018 351.512C271.929 351.424 271.88 351.305 271.88 351.18V351.19ZM272.02 352.68H272.66V357.43H272L272.02 352.68Z" fill="#6AFFAE"/>
<path d="M278.82 354.68V357.43H278.18V354.74C278.208 354.542 278.191 354.341 278.13 354.15C278.069 353.96 277.966 353.786 277.829 353.641C277.691 353.496 277.523 353.383 277.336 353.312C277.149 353.241 276.949 353.213 276.75 353.23C276.523 353.213 276.295 353.245 276.083 353.326C275.87 353.406 275.677 353.533 275.519 353.696C275.361 353.859 275.24 354.055 275.166 354.27C275.092 354.485 275.066 354.714 275.09 354.94V357.43H274.45V352.68H275.06V353.56C275.253 353.261 275.523 353.019 275.841 352.859C276.159 352.699 276.515 352.627 276.87 352.65C277.138 352.629 277.408 352.668 277.66 352.763C277.911 352.859 278.139 353.009 278.325 353.204C278.512 353.398 278.653 353.631 278.738 353.886C278.824 354.142 278.852 354.413 278.82 354.68Z" fill="#6AFFAE"/>
<path d="M285 352.68V356.85C285.049 357.173 285.022 357.502 284.92 357.812C284.818 358.122 284.645 358.404 284.415 358.635C284.184 358.865 283.902 359.038 283.592 359.14C283.282 359.242 282.953 359.269 282.63 359.22C281.829 359.253 281.044 358.994 280.42 358.49L280.74 358C281.264 358.436 281.928 358.667 282.61 358.65C283.81 358.65 284.36 358.1 284.36 356.93V356.33C284.154 356.626 283.876 356.866 283.553 357.027C283.229 357.188 282.871 357.264 282.51 357.25C281.9 357.25 281.315 357.008 280.884 356.576C280.452 356.145 280.21 355.56 280.21 354.95C280.21 354.34 280.452 353.755 280.884 353.324C281.315 352.892 281.9 352.65 282.51 352.65C282.878 352.632 283.244 352.709 283.573 352.873C283.903 353.038 284.184 353.285 284.39 353.59V352.68H285ZM284.38 354.94C284.392 354.582 284.297 354.229 284.107 353.925C283.917 353.622 283.641 353.382 283.314 353.236C282.987 353.09 282.623 353.045 282.271 353.107C281.918 353.169 281.592 353.334 281.334 353.582C281.075 353.831 280.897 354.15 280.822 354.5C280.746 354.85 280.776 355.215 280.909 355.547C281.042 355.88 281.271 356.165 281.567 356.367C281.863 356.569 282.212 356.678 282.57 356.68C282.803 356.691 283.036 356.654 283.255 356.571C283.473 356.488 283.672 356.361 283.839 356.198C284.006 356.034 284.137 355.838 284.225 355.622C284.313 355.406 284.356 355.173 284.35 354.94H284.38Z" fill="#6AFFAE"/>
<path d="M293.17 351.12V351.58L290.52 357.43H289.82L292.42 351.69H289.17V352.87H288.53V351.12H293.17Z" fill="#6AFFAE"/>
<path d="M298.14 355.57C298.14 356.64 297.39 357.48 295.85 357.48C295.018 357.51 294.205 357.22 293.58 356.67L293.9 356.16C294.428 356.645 295.123 356.907 295.84 356.89C296.91 356.89 297.48 356.36 297.48 355.6C297.48 354.84 296.98 354.28 295.37 354.28H294L294.32 351.12H297.78V351.69H294.89L294.67 353.69H295.48C297.42 353.7 298.14 354.45 298.14 355.57Z" fill="#6AFFAE"/>
<path d="M298.78 352.78C298.78 351.78 299.36 351.07 300.21 351.07C301.06 351.07 301.63 351.75 301.63 352.78C301.63 353.81 301.05 354.5 300.21 354.5C299.37 354.5 298.78 353.81 298.78 352.78ZM301.18 352.78C301.18 351.96 300.79 351.48 300.18 351.48C299.57 351.48 299.18 351.97 299.18 352.78C299.18 353.59 299.56 354.09 300.18 354.09C300.8 354.09 301.18 353.6 301.18 352.78ZM304.03 351.12H304.56L300.25 357.43H299.72L304.03 351.12ZM302.65 355.76C302.65 354.76 303.24 354.05 304.08 354.05C304.92 354.05 305.5 354.73 305.5 355.76C305.5 356.79 304.92 357.47 304.08 357.47C303.24 357.47 302.65 356.79 302.65 355.76ZM305.05 355.76C305.05 354.95 304.67 354.45 304.05 354.45C303.43 354.45 303.05 354.94 303.05 355.76C303.05 356.58 303.44 357.07 304.05 357.07C304.66 357.07 305.05 356.57 305.05 355.76Z" fill="#6AFFAE"/>
<path opacity="0.6" d="M270.43 140C270.43 140.417 270.306 140.825 270.074 141.172C269.843 141.519 269.513 141.79 269.127 141.949C268.742 142.109 268.318 142.151 267.908 142.069C267.499 141.988 267.123 141.787 266.828 141.492C266.533 141.197 266.332 140.821 266.251 140.412C266.169 140.002 266.211 139.578 266.371 139.193C266.53 138.807 266.801 138.477 267.148 138.246C267.495 138.014 267.903 137.89 268.32 137.89C268.88 137.89 269.416 138.112 269.812 138.508C270.208 138.904 270.43 139.44 270.43 140Z" fill="white"/>
<path opacity="0.6" d="M274.69 140C274.69 140.267 274.611 140.528 274.462 140.75C274.314 140.972 274.103 141.145 273.857 141.247C273.61 141.349 273.338 141.376 273.077 141.324C272.815 141.272 272.574 141.143 272.385 140.955C272.197 140.766 272.068 140.525 272.016 140.263C271.964 140.001 271.991 139.73 272.093 139.483C272.195 139.237 272.368 139.026 272.59 138.878C272.812 138.729 273.073 138.65 273.34 138.65C273.697 138.653 274.039 138.796 274.292 139.048C274.544 139.301 274.687 139.643 274.69 140Z" fill="white"/>
<path d="M347.14 156.87H193.77V183.1H347.14V156.87Z" fill="#6AFFAE"/>
<g opacity="0.2">
<path d="M263.47 202L262.27 202.15C262.059 202.373 261.805 202.551 261.523 202.671C261.241 202.791 260.937 202.852 260.63 202.85C260.263 202.85 259.901 202.768 259.57 202.61L258.45 202.83C259.041 203.383 259.821 203.687 260.63 203.68C261.211 203.684 261.783 203.53 262.283 203.234C262.784 202.938 263.194 202.512 263.47 202Z" fill="black"/>
<path d="M269 203.69C269.652 203.681 270.286 203.478 270.82 203.105C271.355 202.733 271.766 202.208 272 201.6H271C270.813 201.976 270.528 202.294 270.174 202.52C269.821 202.746 269.412 202.871 268.993 202.882C268.574 202.894 268.159 202.79 267.794 202.584C267.428 202.377 267.126 202.075 266.92 201.71L265.92 201.78C266.183 202.37 266.618 202.867 267.167 203.208C267.716 203.548 268.354 203.716 269 203.69Z" fill="black"/>
<path d="M276.19 203.61V201.84L275.28 201.77V203.61H276.19Z" fill="black"/>
<path d="M280.73 203.61V202.47L279.83 202.31V203.61H280.73Z" fill="black"/>
<path d="M284.88 203.35C285.225 203.516 285.598 203.618 285.98 203.65C285.62 203.55 285.25 203.44 284.88 203.35Z" fill="black"/>
<path d="M225.84 227.89C227.84 227.89 229.36 226.22 229.36 223.41C229.43 222.139 229.003 220.891 228.17 219.93L227.57 220.56C228.193 221.374 228.498 222.387 228.43 223.41C228.43 225.77 227.37 227.06 225.84 227.06C225.342 227.061 224.857 226.903 224.454 226.61C224.052 226.317 223.753 225.904 223.6 225.43C223.4 225.7 223.21 225.98 223.02 226.25C223.297 226.753 223.706 227.172 224.203 227.461C224.7 227.749 225.265 227.898 225.84 227.89Z" fill="black"/>
<path d="M232.16 227.82H233.07V219.01H230.09V219.81H232.16V227.82Z" fill="black"/>
<path d="M236.71 227.82H237.61V219.01H234.63V219.81H236.71V227.82Z" fill="black"/>
<path d="M241.25 227.82H242.16V219.01H239.17V219.81H241.25V227.82Z" fill="black"/>
<path d="M245.79 227.82H246.7V219.01H243.71V219.81H245.79V227.82Z" fill="black"/>
<path d="M248.8 223.41C248.8 226.22 250.27 227.89 252.31 227.89C254.35 227.89 255.83 226.22 255.83 223.41C255.83 220.6 254.35 218.93 252.31 218.93C250.27 218.93 248.8 220.61 248.8 223.41ZM252.31 219.76C253.85 219.76 254.9 221.06 254.9 223.41C254.9 225.76 253.85 227.06 252.31 227.06C250.77 227.06 249.72 225.77 249.72 223.41C249.72 221.05 250.77 219.76 252.31 219.76Z" fill="black"/>
<path d="M260.64 218.93C258.64 218.93 257.13 220.61 257.13 223.41C257.13 226.21 258.6 227.89 260.64 227.89C262.68 227.89 264.16 226.22 264.16 223.41C264.16 220.6 262.68 218.93 260.64 218.93ZM260.64 227.06C259.1 227.06 258.05 225.77 258.05 223.41C258.05 221.05 259.1 219.76 260.64 219.76C262.18 219.76 263.23 221.06 263.23 223.41C263.23 225.76 262.18 227.06 260.64 227.06Z" fill="black"/>
<path d="M269 218.93C267 218.93 265.49 220.61 265.49 223.41C265.49 226.21 266.96 227.89 269 227.89C271.04 227.89 272.52 226.22 272.52 223.41C272.52 220.6 271 218.93 269 218.93ZM269 227.06C267.46 227.06 266.41 225.77 266.41 223.41C266.41 221.05 267.46 219.76 269 219.76C270.54 219.76 271.59 221.06 271.59 223.41C271.59 225.76 270.5 227.06 269 227.06Z" fill="black"/>
<path d="M275.3 227.82H276.2V219.01H273.22V219.81H275.3V227.82Z" fill="black"/>
<path d="M280.75 227.82V219.01H277.76V219.81H279.84V227.82H280.75Z" fill="black"/>
<path d="M286.36 227.89C288.36 227.89 289.88 226.22 289.88 223.41C289.88 220.6 288.4 218.93 286.36 218.93C284.32 218.93 282.85 220.61 282.85 223.41C282.85 226.21 284.32 227.89 286.36 227.89ZM286.36 219.76C287.89 219.76 288.95 221.06 288.95 223.41C288.95 225.76 287.89 227.06 286.36 227.06C284.83 227.06 283.76 225.77 283.76 223.41C283.76 221.05 284.82 219.76 286.36 219.76Z" fill="black"/>
<path d="M290.61 219.81H292.69V227.82H293.59V219.01H290.61V219.81Z" fill="black"/>
<path d="M299.2 227.89C301.2 227.89 302.73 226.22 302.73 223.41C302.73 220.6 301.24 218.93 299.2 218.93C297.16 218.93 295.69 220.61 295.69 223.41C295.69 226.21 297.17 227.89 299.2 227.89ZM299.2 219.76C300.74 219.76 301.8 221.06 301.8 223.41C301.8 225.76 300.74 227.06 299.2 227.06C297.66 227.06 296.61 225.77 296.61 223.41C296.61 221.05 297.67 219.76 299.2 219.76Z" fill="black"/>
<path d="M305.53 227.82H306.44V219.01H303.46V219.81H305.53V227.82Z" fill="black"/>
<path d="M308.54 223.41C308.54 226.22 310.01 227.89 312.05 227.89C314.09 227.89 315.58 226.22 315.58 223.41C315.58 223.22 315.58 223.04 315.58 222.86C315.18 222.37 314.76 221.86 314.34 221.42C314.586 222.058 314.705 222.737 314.69 223.42C314.69 225.78 313.63 227.07 312.09 227.07C310.55 227.07 309.5 225.78 309.5 223.42C309.5 221.06 310.56 219.77 312.09 219.77C312.41 219.77 312.726 219.835 313.02 219.96C312.69 219.62 312.37 219.28 312.02 218.96C310 219 308.54 220.63 308.54 223.41Z" fill="black"/>
<path d="M319.18 227.82C318.92 227.42 318.65 227.03 318.38 226.64V227.82H319.18Z" fill="black"/>
<path d="M233.08 215.27L232.56 215.71H233.08V215.27Z" fill="black"/>
<path d="M238.7 215.79C240.7 215.79 242.22 214.12 242.22 211.31C242.229 210.577 242.104 209.848 241.85 209.16L241.05 209.61C241.214 210.161 241.295 210.735 241.29 211.31C241.29 213.66 240.23 214.96 238.7 214.96C238.098 214.947 237.521 214.718 237.074 214.314C236.628 213.91 236.342 213.358 236.27 212.76C236.01 212.95 235.75 213.13 235.5 213.33C235.689 214.035 236.105 214.657 236.683 215.102C237.262 215.547 237.97 215.789 238.7 215.79Z" fill="black"/>
<path d="M245 215.71H245.91V207C245.45 207.21 244.99 207.44 244.53 207.67H245V215.71Z" fill="black"/>
<path d="M249.57 215.71H250.47V206.9H247.49V207.71H249.57V215.71Z" fill="black"/>
<path d="M256.08 215.79C258.08 215.79 259.61 214.12 259.61 211.31C259.61 208.5 258.12 206.83 256.08 206.83C254.04 206.83 252.57 208.5 252.57 211.31C252.57 214.12 254.05 215.79 256.08 215.79ZM256.08 207.66C257.62 207.66 258.68 208.95 258.68 211.31C258.68 213.67 257.62 214.96 256.08 214.96C254.54 214.96 253.49 213.66 253.49 211.31C253.49 208.96 254.55 207.66 256.08 207.66Z" fill="black"/>
<path d="M262.41 215.71H263.32V206.9H260.33V207.71H262.41V215.71Z" fill="black"/>
<path d="M268.93 215.79C270.93 215.79 272.46 214.12 272.46 211.31C272.46 208.5 270.97 206.83 268.93 206.83C266.89 206.83 265.42 208.5 265.42 211.31C265.42 214.12 266.89 215.79 268.93 215.79ZM268.93 207.66C270.47 207.66 271.52 208.95 271.52 211.31C271.52 213.67 270.52 214.96 268.93 214.96C267.34 214.96 266.34 213.66 266.34 211.31C266.34 208.96 267.4 207.66 268.93 207.66Z" fill="black"/>
<path d="M277.26 215.79C279.26 215.79 280.79 214.12 280.79 211.31C280.79 208.5 279.3 206.83 277.26 206.83C275.22 206.83 273.75 208.5 273.75 211.31C273.75 214.12 275.22 215.79 277.26 215.79ZM277.26 207.66C278.8 207.66 279.85 208.95 279.85 211.31C279.85 213.67 278.8 215 277.26 215C275.72 215 274.67 213.7 274.67 211.35C274.67 209 275.72 207.66 277.26 207.66Z" fill="black"/>
<path d="M285.59 215.79C287.59 215.79 289.12 214.12 289.12 211.31C289.12 208.5 287.63 206.83 285.59 206.83C283.55 206.83 282.08 208.5 282.08 211.31C282.08 214.12 283.55 215.79 285.59 215.79ZM285.59 207.66C287.13 207.66 288.18 208.95 288.18 211.31C288.18 213.67 287.13 214.96 285.59 214.96C284.05 214.96 283 213.66 283 211.31C283 208.96 284.05 207.66 285.59 207.66Z" fill="black"/>
<path d="M291.92 215.71H292.82V206.9H289.84V207.71H291.92V215.71Z" fill="black"/>
<path d="M294.38 207.71H296.46V215.71H297.37V208.12C296.55 207.69 295.73 207.29 294.89 206.9H294.38V207.71Z" fill="black"/>
<path d="M303 215.79C303.668 215.791 304.32 215.587 304.869 215.207C305.418 214.826 305.837 214.286 306.07 213.66L305.33 213.08C305.217 213.617 304.925 214.099 304.501 214.448C304.078 214.797 303.549 214.991 303 215C301.46 215 300.41 213.7 300.41 211.35C300.408 210.872 300.461 210.395 300.57 209.93L299.75 209.46C299.569 210.073 299.482 210.711 299.49 211.35C299.47 214.12 300.94 215.79 303 215.79Z" fill="black"/>
<path d="M220.21 239.92V231.11H219.94C219.72 231.48 219.51 231.85 219.31 232.23V239.92H220.21Z" fill="black"/>
<path d="M225.82 240C227.82 240 229.35 238.32 229.35 235.52C229.35 232.72 227.86 231.03 225.82 231.03C223.78 231.03 222.31 232.71 222.31 235.52C222.31 238.33 223.78 240 225.82 240ZM225.82 231.86C227.36 231.86 228.42 233.16 228.42 235.52C228.42 237.88 227.36 239.17 225.82 239.17C224.28 239.17 223.23 237.87 223.23 235.52C223.23 233.17 224.29 231.86 225.82 231.86Z" fill="black"/>
<path d="M232.15 239.92H233.06V231.11H230.07V231.91H232.15V239.92Z" fill="black"/>
<path d="M236.69 239.92H237.6V231.11H234.62V231.91H236.69V239.92Z" fill="black"/>
<path d="M241.24 239.92H242.14V231.11H239.16V231.91H241.24V239.92Z" fill="black"/>
<path d="M245.78 239.92H246.69V231.11H243.7V231.91H245.78V239.92Z" fill="black"/>
<path d="M252.3 231C250.3 231 248.79 232.68 248.79 235.49C248.79 238.3 250.26 239.97 252.3 239.97C254.34 239.97 255.82 238.29 255.82 235.49C255.82 232.69 254.34 231 252.3 231ZM252.3 239.14C250.76 239.14 249.7 237.84 249.7 235.49C249.7 233.14 250.76 231.83 252.3 231.83C253.84 231.83 254.89 233.13 254.89 235.49C254.89 237.85 253.83 239.17 252.3 239.17V239.14Z" fill="black"/>
<path d="M260.63 231C258.63 231 257.12 232.68 257.12 235.49C257.12 238.3 258.59 239.97 260.63 239.97C262.67 239.97 264.15 238.29 264.15 235.49C264.15 232.69 262.67 231 260.63 231ZM260.63 239.14C259.09 239.14 258.03 237.84 258.03 235.49C258.03 233.14 259.09 231.83 260.63 231.83C262.17 231.83 263.22 233.13 263.22 235.49C263.22 237.85 262.16 239.17 260.63 239.17V239.14Z" fill="black"/>
<path d="M269 231C267 231 265.48 232.68 265.48 235.49C265.48 238.3 266.92 240 269 240C271.08 240 272.52 238.32 272.52 235.52C272.52 232.72 271 231 269 231ZM269 239.14C267.46 239.14 266.4 237.84 266.4 235.49C266.4 233.14 267.46 231.83 269 231.83C270.54 231.83 271.59 233.13 271.59 235.49C271.59 237.85 270.49 239.17 269 239.17V239.14Z" fill="black"/>
<path d="M275.29 239.92H276.19V231.11H273.21V231.91H275.29V239.92Z" fill="black"/>
<path d="M277.75 231.91H279.83V239.92H280.73V231.11H277.75V231.91Z" fill="black"/>
<path d="M286.35 240C288.35 240 289.87 238.32 289.87 235.52C289.87 232.72 288.39 231.03 286.35 231.03C284.31 231.03 282.83 232.71 282.83 235.52C282.83 238.33 284.31 240 286.35 240ZM286.35 231.86C287.88 231.86 288.94 233.16 288.94 235.52C288.94 237.88 287.88 239.17 286.35 239.17C284.82 239.17 283.75 237.87 283.75 235.52C283.75 233.17 284.81 231.86 286.35 231.86Z" fill="black"/>
<path d="M293.58 239.92V231.11H290.6V231.91H292.67V239.92H293.58Z" fill="black"/>
<path d="M299.19 240C301.19 240 302.72 238.32 302.72 235.52C302.72 232.72 301.23 231.03 299.19 231.03C297.15 231.03 295.68 232.71 295.68 235.52C295.68 238.33 297.15 240 299.19 240ZM299.19 231.86C300.73 231.86 301.79 233.16 301.79 235.52C301.79 237.88 300.73 239.17 299.19 239.17C297.65 239.17 296.6 237.87 296.6 235.52C296.6 233.17 297.66 231.86 299.19 231.86Z" fill="black"/>
<path d="M305.52 239.92H306.43V231.11H303.44V231.91H305.52V239.92Z" fill="black"/>
<path d="M312 240C314 240 315.52 238.32 315.52 235.52C315.52 232.72 314.08 231 312 231C309.92 231 308.49 232.68 308.49 235.49C308.49 238.3 310 240 312 240ZM312 231.86C313.53 231.86 314.59 233.16 314.59 235.52C314.59 237.88 313.53 239.17 312 239.17C310.47 239.17 309.41 237.87 309.41 235.52C309.41 233.17 310.5 231.86 312 231.86Z" fill="black"/>
<path d="M318.37 239.92H319.27V231.11H316.29V231.91H318.37V239.92Z" fill="black"/>
<path d="M324.89 240C325.02 240 325.14 240 325.27 240C325.17 239.73 325.07 239.46 324.96 239.2H324.89C323.35 239.2 322.29 237.9 322.29 235.55C322.283 234.935 322.378 234.324 322.57 233.74L322.06 232.74C321.581 233.601 321.343 234.575 321.37 235.56C321.37 238.32 322.85 240 324.89 240Z" fill="black"/>
<path d="M217.51 255.24C215.51 255.24 213.99 256.92 213.99 259.72C213.99 262.52 215.47 264.21 217.51 264.21C219.55 264.21 221.03 262.53 221.03 259.72C221.03 256.91 219.55 255.24 217.51 255.24ZM217.51 263.37C215.97 263.37 214.91 262.08 214.91 259.72C214.91 257.36 215.97 256.07 217.51 256.07C219.05 256.07 220.1 257.37 220.1 259.72C220.1 262.07 219 263.37 217.51 263.37Z" fill="black"/>
<path d="M225.84 255.24C223.84 255.24 222.32 256.92 222.32 259.72C222.32 262.52 223.8 264.21 225.84 264.21C227.88 264.21 229.36 262.53 229.36 259.72C229.36 256.91 227.87 255.24 225.84 255.24ZM225.84 263.37C224.3 263.37 223.24 262.08 223.24 259.72C223.24 257.36 224.3 256.07 225.84 256.07C227.38 256.07 228.43 257.37 228.43 259.72C228.43 262.07 227.37 263.37 225.84 263.37Z" fill="black"/>
<path d="M233.07 264.13V255.32H230.09V256.12H232.16V264.13H233.07Z" fill="black"/>
<path d="M237.61 264.13V255.32H234.63V256.12H236.71V264.13H237.61Z" fill="black"/>
<path d="M242.16 264.13V255.32H239.17V256.12H241.25V264.13H242.16Z" fill="black"/>
<path d="M246.7 264.13V255.32H243.71V256.12H245.79V264.13H246.7Z" fill="black"/>
<path d="M248.8 259.72C248.8 262.53 250.27 264.21 252.31 264.21C254.35 264.21 255.83 262.53 255.83 259.72C255.83 256.91 254.35 255.24 252.31 255.24C250.27 255.24 248.8 256.92 248.8 259.72ZM252.31 256.07C253.85 256.07 254.9 257.37 254.9 259.72C254.9 262.07 253.85 263.37 252.31 263.37C250.77 263.37 249.72 262.08 249.72 259.72C249.72 257.36 250.77 256.07 252.31 256.07Z" fill="black"/>
<path d="M260.64 255.24C258.64 255.24 257.13 256.92 257.13 259.72C257.13 262.52 258.6 264.21 260.64 264.21C262.68 264.21 264.16 262.53 264.16 259.72C264.16 256.91 262.68 255.24 260.64 255.24ZM260.64 263.37C259.1 263.37 258.05 262.08 258.05 259.72C258.05 257.36 259.1 256.07 260.64 256.07C262.18 256.07 263.23 257.37 263.23 259.72C263.23 262.07 262.17 263.37 260.64 263.37Z" fill="black"/>
<path d="M269 264.21C271 264.21 272.52 262.53 272.52 259.72C272.52 256.91 271.04 255.24 269 255.24C266.96 255.24 265.49 256.92 265.49 259.72C265.49 262.52 266.93 264.21 269 264.21ZM269 256.07C270.53 256.07 271.59 257.37 271.59 259.72C271.59 262.07 270.53 263.37 269 263.37C267.47 263.37 266.41 262.08 266.41 259.72C266.41 257.36 267.43 256.07 269 256.07Z" fill="black"/>
<path d="M276.2 264.13V255.32H273.22V256.12H275.3V264.13H276.2Z" fill="black"/>
<path d="M280.75 255.32H277.76V256.12H279.84V264.13H280.75V255.32Z" fill="black"/>
<path d="M286.36 255.24C284.36 255.24 282.85 256.92 282.85 259.72C282.85 262.52 284.32 264.21 286.36 264.21C288.4 264.21 289.88 262.53 289.88 259.72C289.88 256.91 288.4 255.24 286.36 255.24ZM286.36 263.37C284.82 263.37 283.76 262.08 283.76 259.72C283.76 257.36 284.82 256.07 286.36 256.07C287.9 256.07 288.95 257.37 288.95 259.72C288.95 262.07 287.89 263.37 286.36 263.37Z" fill="black"/>
<path d="M290.61 256.12H292.69V264.13H293.59V255.32H290.61V256.12Z" fill="black"/>
<path d="M299.2 264.21C301.2 264.21 302.73 262.53 302.73 259.72C302.73 256.91 301.24 255.24 299.2 255.24C297.16 255.24 295.69 256.92 295.69 259.72C295.69 262.52 297.16 264.21 299.2 264.21ZM299.2 256.07C300.74 256.07 301.8 257.37 301.8 259.72C301.8 262.07 300.74 263.37 299.2 263.37C297.66 263.37 296.61 262.08 296.61 259.72C296.61 257.36 297.67 256.07 299.2 256.07Z" fill="black"/>
<path d="M306.44 264.13V255.32H303.46V256.12H305.53V264.13H306.44Z" fill="black"/>
<path d="M312.05 264.21C314.05 264.21 315.58 262.53 315.58 259.72C315.58 256.91 314.09 255.24 312.05 255.24C310.01 255.24 308.54 256.92 308.54 259.72C308.54 262.52 310 264.21 312.05 264.21ZM312.05 256.07C313.59 256.07 314.65 257.37 314.65 259.72C314.65 262.07 313.59 263.37 312.05 263.37C310.51 263.37 309.46 262.08 309.46 259.72C309.46 257.36 310.52 256.07 312.05 256.07Z" fill="black"/>
<path d="M319.29 264.13V255.32H316.3V256.12H318.38V264.13H319.29Z" fill="black"/>
<path d="M321.39 259.72C321.39 262.53 322.86 264.21 324.9 264.21C326.94 264.21 328.42 262.53 328.42 259.72C328.42 256.91 326.94 255.24 324.9 255.24C322.86 255.24 321.39 256.92 321.39 259.72ZM324.9 256.07C326.43 256.07 327.49 257.37 327.49 259.72C327.49 262.07 326.43 263.37 324.9 263.37C323.37 263.37 322.31 262.08 322.31 259.72C322.31 257.36 323.36 256.07 324.9 256.07Z" fill="black"/>
<path d="M216.53 247.62C216.596 246.85 216.461 246.076 216.136 245.374C215.812 244.673 215.31 244.068 214.68 243.62L214.44 244.48C214.857 244.884 215.178 245.377 215.379 245.923C215.58 246.468 215.655 247.052 215.6 247.63C215.6 249.97 214.6 251.27 213.02 251.28C213.02 251.55 212.95 251.83 212.92 252.1H213C215 252.1 216.53 250.43 216.53 247.62Z" fill="black"/>
<path d="M219.33 252.03H220.24V243.21H217.25V244.02H219.33V252.03Z" fill="black"/>
<path d="M225.85 243.14C223.85 243.14 222.34 244.81 222.34 247.62C222.34 250.43 223.81 252.1 225.85 252.1C227.89 252.1 229.37 250.43 229.37 247.62C229.37 244.81 227.89 243.14 225.85 243.14ZM225.85 251.27C224.31 251.27 223.26 249.97 223.26 247.62C223.26 245.27 224.31 243.97 225.85 243.97C227.39 243.97 228.44 245.27 228.44 247.62C228.44 249.97 227.38 251.27 225.85 251.27Z" fill="black"/>
<path d="M230.1 244.02H232.18V252.03H233.08V243.21H230.1V244.02Z" fill="black"/>
<path d="M235.18 247.62C235.18 250.43 236.66 252.1 238.7 252.1C240.74 252.1 242.22 250.43 242.22 247.62C242.22 244.81 240.73 243.14 238.7 243.14C236.67 243.14 235.18 244.81 235.18 247.62ZM238.7 244C240.23 244 241.29 245.3 241.29 247.65C241.29 250 240.23 251.3 238.7 251.3C237.17 251.3 236.1 250 236.1 247.65C236.1 245.3 237.16 244 238.7 244Z" fill="black"/>
<path d="M245.02 252.03H245.93V243.21H242.95V244.02H245.02V252.03Z" fill="black"/>
<path d="M249.56 252.03H250.47V243.21H247.49V244.02H249.56V252.03Z" fill="black"/>
<path d="M252.57 247.62C252.57 250.43 254.04 252.1 256.08 252.1C258.12 252.1 259.61 250.43 259.61 247.62C259.61 244.81 258.12 243.14 256.08 243.14C254.04 243.14 252.57 244.81 252.57 247.62ZM258.68 247.62C258.68 249.97 257.62 251.27 256.08 251.27C254.54 251.27 253.49 249.97 253.49 247.62C253.49 245.27 254.55 243.97 256.08 243.97C257.61 243.97 258.68 245.27 258.68 247.62Z" fill="black"/>
<path d="M263.32 252.03V243.21H260.33V244.02H262.41V252.03H263.32Z" fill="black"/>
<path d="M268.93 252.1C270.93 252.1 272.46 250.43 272.46 247.62C272.46 244.81 270.97 243.14 268.93 243.14C266.89 243.14 265.42 244.81 265.42 247.62C265.42 250.43 266.89 252.1 268.93 252.1ZM268.93 243.97C270.47 243.97 271.52 245.27 271.52 247.62C271.52 249.97 270.52 251.27 268.93 251.27C267.34 251.27 266.34 249.97 266.34 247.62C266.34 245.27 267.4 244 268.93 244V243.97Z" fill="black"/>
<path d="M273.75 247.62C273.75 250.43 275.22 252.1 277.26 252.1C279.3 252.1 280.78 250.43 280.78 247.62C280.78 244.81 279.3 243.14 277.26 243.14C275.22 243.14 273.75 244.81 273.75 247.62ZM279.85 247.62C279.85 249.97 278.8 251.27 277.26 251.27C275.72 251.27 274.67 249.97 274.67 247.62C274.67 245.27 275.72 243.97 277.26 243.97C278.8 243.97 279.85 245.27 279.85 247.62Z" fill="black"/>
<path d="M285.59 252.1C287.59 252.1 289.12 250.43 289.12 247.62C289.12 244.81 287.63 243.14 285.59 243.14C283.55 243.14 282.08 244.81 282.08 247.62C282.08 250.43 283.55 252.1 285.59 252.1ZM285.59 243.97C287.13 243.97 288.18 245.27 288.18 247.62C288.18 249.97 287.13 251.27 285.59 251.27C284.05 251.27 283 250 283 247.62C283 245.24 284.05 244 285.59 244V243.97Z" fill="black"/>
<path d="M291.92 252.03H292.82V243.21H289.84V244.02H291.92V252.03Z" fill="black"/>
<path d="M296.46 252.03H297.37V243.21H294.38V244.02H296.46V252.03Z" fill="black"/>
<path d="M299.47 247.62C299.47 250.43 300.94 252.1 302.98 252.1C305.02 252.1 306.5 250.43 306.5 247.62C306.5 244.81 305.02 243.14 302.98 243.14C300.94 243.14 299.47 244.81 299.47 247.62ZM303 244C304.54 244 305.59 245.3 305.59 247.65C305.59 250 304.54 251.3 303 251.3C301.46 251.3 300.41 250 300.41 247.65C300.41 245.3 301.44 244 303 244Z" fill="black"/>
<path d="M309.31 252.03H310.21V243.21H307.23V244.02H309.31V252.03Z" fill="black"/>
<path d="M312.31 247.62C312.31 250.43 313.79 252.1 315.83 252.1C317.87 252.1 319.35 250.43 319.35 247.62C319.35 244.81 317.87 243.14 315.83 243.14C313.79 243.14 312.31 244.81 312.31 247.62ZM315.83 243.97C317.36 243.97 318.42 245.27 318.42 247.62C318.42 249.97 317.36 251.27 315.83 251.27C314.3 251.27 313.23 249.97 313.23 247.62C313.23 245.27 314.29 244 315.83 244V243.97Z" fill="black"/>
<path d="M322.15 252.03H323.06V243.21H320.08V244.02H322.15V252.03Z" fill="black"/>
<path d="M325.16 247.62C325.16 250.2 326.41 251.81 328.16 252.05C328.16 251.77 328.09 251.48 328.05 251.2C326.84 250.9 326.05 249.66 326.05 247.62C325.997 246.662 326.253 245.712 326.78 244.91C326.69 244.58 326.59 244.27 326.5 243.91C326.026 244.398 325.661 244.981 325.43 245.621C325.199 246.26 325.107 246.942 325.16 247.62Z" fill="black"/>
<path d="M216.5 271.83C216.5 269.02 215.02 267.35 212.98 267.35H212.92C212.92 267.63 212.98 267.91 213.02 268.18C214.53 268.18 215.57 269.5 215.57 271.83C215.619 272.404 215.543 272.982 215.348 273.523C215.153 274.065 214.843 274.559 214.44 274.97C214.51 275.25 214.6 275.54 214.68 275.82C215.303 275.37 215.799 274.766 216.118 274.066C216.437 273.366 216.569 272.596 216.5 271.83Z" fill="black"/>
<path d="M217.23 268.23H219.31V276.23H220.21V267.42H217.23V268.23Z" fill="black"/>
<path d="M225.82 276.31C227.82 276.31 229.35 274.63 229.35 271.83C229.35 269.03 227.86 267.35 225.82 267.35C223.78 267.35 222.31 269.02 222.31 271.83C222.31 274.64 223.78 276.31 225.82 276.31ZM225.82 268.18C227.36 268.18 228.42 269.47 228.42 271.83C228.42 274.19 227.36 275.48 225.82 275.48C224.28 275.48 223.23 274.18 223.23 271.83C223.23 269.48 224.29 268.18 225.82 268.18Z" fill="black"/>
<path d="M232.15 276.23H233.06V267.42H230.07V268.23H232.15V276.23Z" fill="black"/>
<path d="M236.69 276.23H237.6V267.42H234.62V268.23H236.69V276.23Z" fill="black"/>
<path d="M239.16 268.23H241.24V276.23H242.14V267.42H239.16V268.23Z" fill="black"/>
<path d="M243.7 268.23H245.78V276.23H246.69V267.42H243.7V268.23Z" fill="black"/>
<path d="M252.3 276.31C254.3 276.31 255.82 274.63 255.82 271.83C255.82 269.03 254.34 267.35 252.3 267.35C250.26 267.35 248.79 269.02 248.79 271.83C248.79 274.64 250.26 276.31 252.3 276.31ZM252.3 268.18C253.83 268.18 254.89 269.47 254.89 271.83C254.89 274.19 253.83 275.48 252.3 275.48C250.77 275.48 249.7 274.18 249.7 271.83C249.7 269.48 250.76 268.18 252.3 268.18Z" fill="black"/>
<path d="M260.63 267.35C258.63 267.35 257.12 269.02 257.12 271.83C257.12 274.64 258.59 276.31 260.63 276.31C262.67 276.31 264.15 274.63 264.15 271.83C264.15 269.03 262.67 267.35 260.63 267.35ZM260.63 275.48C259.09 275.48 258.03 274.18 258.03 271.83C258.03 269.48 259.09 268.18 260.63 268.18C262.17 268.18 263.22 269.47 263.22 271.83C263.22 274.19 262.16 275.48 260.63 275.48Z" fill="black"/>
<path d="M269 276.31C271 276.31 272.52 274.63 272.52 271.83C272.52 269.03 271.04 267.35 269 267.35C266.96 267.35 265.48 269.02 265.48 271.83C265.48 274.64 266.92 276.31 269 276.31ZM269 268.18C270.53 268.18 271.59 269.47 271.59 271.83C271.59 274.19 270.53 275.48 269 275.48C267.47 275.48 266.4 274.18 266.4 271.83C266.4 269.48 267.42 268.18 269 268.18Z" fill="black"/>
<path d="M275.29 276.23H276.19V267.42H273.21V268.23H275.29V276.23Z" fill="black"/>
<path d="M280.73 276.23V267.42H277.75V268.23H279.83V276.23H280.73Z" fill="black"/>
<path d="M286.35 276.31C288.35 276.31 289.87 274.63 289.87 271.83C289.87 269.03 288.39 267.35 286.35 267.35C284.31 267.35 282.83 269.02 282.83 271.83C282.83 274.64 284.31 276.31 286.35 276.31ZM286.35 268.18C287.88 268.18 288.94 269.47 288.94 271.83C288.94 274.19 287.88 275.48 286.35 275.48C284.82 275.48 283.75 274.18 283.75 271.83C283.75 269.48 284.81 268.18 286.35 268.18Z" fill="black"/>
<path d="M293.58 267.42H290.6V268.23H292.67V276.23H293.58V267.42Z" fill="black"/>
<path d="M299.19 276.31C301.19 276.31 302.72 274.63 302.72 271.83C302.72 269.03 301.23 267.35 299.19 267.35C297.15 267.35 295.68 269.02 295.68 271.83C295.68 274.64 297.15 276.31 299.19 276.31ZM299.19 268.18C300.73 268.18 301.79 269.47 301.79 271.83C301.79 274.19 300.73 275.48 299.19 275.48C297.65 275.48 296.6 274.18 296.6 271.83C296.6 269.48 297.66 268.18 299.19 268.18Z" fill="black"/>
<path d="M303.44 268.23H305.52V276.23H306.43V267.42H303.44V268.23Z" fill="black"/>
<path d="M315.56 271.83C315.56 269.02 314.08 267.35 312.04 267.35C310 267.35 308.53 269.02 308.53 271.83C308.53 274.64 310 276.31 312.04 276.31C314.08 276.31 315.56 274.63 315.56 271.83ZM312 275.48C310.46 275.48 309.41 274.18 309.41 271.83C309.41 269.48 310.46 268.18 312 268.18C313.54 268.18 314.59 269.47 314.59 271.83C314.59 274.19 313.57 275.48 312 275.48Z" fill="black"/>
<path d="M316.29 268.23H318.37V276.23H319.27V267.42H316.29V268.23Z" fill="black"/>
<path d="M324.89 267.35C322.89 267.35 321.37 269.02 321.37 271.83C321.37 274.64 322.85 276.31 324.89 276.31C325.42 276.31 325.942 276.179 326.41 275.93C326.56 275.41 326.72 274.93 326.85 274.37C326.646 274.717 326.353 275.003 326.001 275.198C325.65 275.393 325.252 275.491 324.85 275.48C323.31 275.48 322.25 274.18 322.25 271.83C322.25 269.48 323.31 268.18 324.85 268.18C326.39 268.18 327.4 269.44 327.43 271.72C327.6 270.94 327.74 270.15 327.87 269.36C327.627 268.768 327.214 268.262 326.684 267.904C326.154 267.546 325.53 267.353 324.89 267.35Z" fill="black"/>
<path d="M229.36 296C229.36 293.2 227.88 291.52 225.84 291.52C225.258 291.513 224.686 291.667 224.185 291.963C223.684 292.259 223.274 292.687 223 293.2L223.58 294.01C223.734 293.537 224.033 293.124 224.436 292.832C224.838 292.539 225.322 292.381 225.82 292.38C227.35 292.38 228.41 293.68 228.41 296.03C228.478 297.056 228.172 298.072 227.55 298.89L228.15 299.52C229 298.551 229.434 297.287 229.36 296Z" fill="black"/>
<path d="M232.16 300.44H233.07V291.63H230.09V292.43H232.16V300.44Z" fill="black"/>
<path d="M234.63 292.43H236.71V300.44H237.61V291.63H234.63V292.43Z" fill="black"/>
<path d="M239.17 292.43H241.25V300.44H242.16V291.63H239.17V292.43Z" fill="black"/>
<path d="M243.71 292.43H245.79V300.44H246.7V291.63H243.71V292.43Z" fill="black"/>
<path d="M252.31 291.55C250.31 291.55 248.8 293.23 248.8 296.03C248.8 298.83 250.27 300.52 252.31 300.52C254.35 300.52 255.83 298.84 255.83 296.03C255.83 293.22 254.35 291.55 252.31 291.55ZM252.31 299.68C250.77 299.68 249.72 298.39 249.72 296.03C249.72 293.67 250.77 292.38 252.31 292.38C253.85 292.38 254.9 293.68 254.9 296.03C254.9 298.38 253.85 299.68 252.31 299.68Z" fill="black"/>
<path d="M260.64 291.55C258.64 291.55 257.13 293.23 257.13 296.03C257.13 298.83 258.6 300.52 260.64 300.52C262.68 300.52 264.16 298.84 264.16 296.03C264.16 293.22 262.68 291.55 260.64 291.55ZM260.64 299.68C259.1 299.68 258.05 298.39 258.05 296.03C258.05 293.67 259.1 292.38 260.64 292.38C262.18 292.38 263.23 293.68 263.23 296.03C263.23 298.38 262.18 299.68 260.64 299.68Z" fill="black"/>
<path d="M269 291.55C267 291.55 265.49 293.23 265.49 296.03C265.49 298.83 266.96 300.52 269 300.52C271.04 300.52 272.52 298.84 272.52 296.03C272.52 293.22 271 291.55 269 291.55ZM269 299.68C267.46 299.68 266.41 298.39 266.41 296.03C266.41 293.67 267.46 292.38 269 292.38C270.54 292.38 271.59 293.68 271.59 296.03C271.59 298.38 270.5 299.68 269 299.68Z" fill="black"/>
<path d="M273.22 292.43H275.3V300.44H276.2V291.63H273.22V292.43Z" fill="black"/>
<path d="M277.76 292.43H279.84V300.44H280.75V291.63H277.76V292.43Z" fill="black"/>
<path d="M286.36 291.55C284.36 291.55 282.85 293.23 282.85 296.03C282.85 298.83 284.32 300.52 286.36 300.52C288.4 300.52 289.88 298.84 289.88 296.03C289.88 293.22 288.4 291.55 286.36 291.55ZM286.36 299.68C284.82 299.68 283.76 298.39 283.76 296.03C283.76 293.67 284.82 292.38 286.36 292.38C287.9 292.38 289 293.68 289 296C289 298.32 287.89 299.68 286.36 299.68Z" fill="black"/>
<path d="M290.61 292.43H292.69V300.44H293.59V291.63H290.61V292.43Z" fill="black"/>
<path d="M299.2 291.55C297.2 291.55 295.69 293.23 295.69 296.03C295.69 298.83 297.17 300.52 299.2 300.52C301.23 300.52 302.73 298.84 302.73 296.03C302.73 293.22 301.24 291.55 299.2 291.55ZM299.2 299.68C297.67 299.68 296.61 298.39 296.61 296.03C296.61 293.67 297.67 292.38 299.2 292.38C300.73 292.38 301.8 293.68 301.8 296.03C301.8 298.38 300.74 299.68 299.2 299.68Z" fill="black"/>
<path d="M303.46 292.43H305.53V300.44H306.44V291.63H303.46V292.43Z" fill="black"/>
<path d="M312.05 291.55C310.05 291.55 308.54 293.23 308.54 296.03C308.54 298.83 309.99 300.48 312 300.51C312.33 300.18 312.66 299.83 313 299.51C312.706 299.635 312.39 299.7 312.07 299.7C310.54 299.7 309.48 298.41 309.48 296.05C309.48 293.69 310.54 292.4 312.07 292.4C313.6 292.4 314.67 293.7 314.67 296.05C314.684 296.733 314.565 297.412 314.32 298.05C314.74 297.57 315.16 297.1 315.56 296.61C315.56 296.42 315.56 296.25 315.56 296.05C315.58 293.23 314.09 291.55 312.05 291.55Z" fill="black"/>
<path d="M316.3 292.43H318.38V292.81C318.65 292.42 318.92 292.03 319.18 291.63H316.3V292.43Z" fill="black"/>
<path d="M220.24 279.52H217.24V280.33H219.32V287.26C219.51 287.63 219.72 287.98 219.93 288.34H220.23L220.24 279.52Z" fill="black"/>
<path d="M225.85 279.45C223.85 279.45 222.34 281.12 222.34 283.93C222.34 286.74 223.81 288.41 225.85 288.41C227.89 288.41 229.37 286.74 229.37 283.93C229.37 281.12 227.89 279.45 225.85 279.45ZM225.85 287.58C224.31 287.58 223.26 286.28 223.26 283.93C223.26 281.58 224.31 280.28 225.85 280.28C227.39 280.28 228.44 281.58 228.44 283.93C228.44 286.28 227.38 287.58 225.85 287.58Z" fill="black"/>
<path d="M230.1 280.33H232.18V288.34H233.08V279.52H230.1V280.33Z" fill="black"/>
<path d="M238.7 279.45C236.7 279.45 235.18 281.12 235.18 283.93C235.18 286.74 236.66 288.41 238.7 288.41C240.74 288.41 242.22 286.74 242.22 283.93C242.22 281.12 240.73 279.45 238.7 279.45ZM238.7 287.58C237.16 287.58 236.1 286.28 236.1 283.93C236.1 281.58 237.16 280.28 238.7 280.28C240.24 280.28 241.29 281.58 241.29 283.93C241.29 286.28 240.23 287.58 238.7 287.58Z" fill="black"/>
<path d="M245.02 288.34H245.93V279.52H242.95V280.33H245.02V288.34Z" fill="black"/>
<path d="M247.49 280.33H249.57V288.34H250.47V279.52H247.49V280.33Z" fill="black"/>
<path d="M259.61 283.93C259.61 281.12 258.12 279.45 256.08 279.45C254.04 279.45 252.57 281.12 252.57 283.93C252.57 286.74 254.05 288.41 256.08 288.41C258.11 288.41 259.61 286.74 259.61 283.93ZM256.08 287.58C254.55 287.58 253.49 286.28 253.49 283.93C253.49 281.58 254.55 280.28 256.08 280.28C257.61 280.28 258.68 281.58 258.68 283.93C258.68 286.28 257.62 287.58 256.08 287.58Z" fill="black"/>
<path d="M263.32 288.34V279.52H260.33V280.33H262.41V288.34H263.32Z" fill="black"/>
<path d="M268.93 288.41C270.93 288.41 272.46 286.74 272.46 283.93C272.46 281.12 270.97 279.45 268.93 279.45C266.89 279.45 265.42 281.12 265.42 283.93C265.42 286.74 266.89 288.41 268.93 288.41ZM268.93 280.28C270.47 280.28 271.52 281.58 271.52 283.93C271.52 286.28 270.52 287.58 268.93 287.58C267.34 287.58 266.34 286.28 266.34 283.93C266.34 281.58 267.4 280.28 268.93 280.28Z" fill="black"/>
<path d="M277.26 279.45C275.26 279.45 273.75 281.12 273.75 283.93C273.75 286.74 275.22 288.41 277.26 288.41C279.3 288.41 280.79 286.74 280.79 283.93C280.79 281.12 279.3 279.45 277.26 279.45ZM277.26 287.58C275.72 287.58 274.67 286.28 274.67 283.93C274.67 281.58 275.72 280.28 277.26 280.28C278.8 280.28 279.85 281.58 279.85 283.93C279.85 286.28 278.8 287.58 277.26 287.58Z" fill="black"/>
<path d="M285.59 288.41C287.59 288.41 289.12 286.74 289.12 283.93C289.12 281.12 287.63 279.45 285.59 279.45C283.55 279.45 282.08 281.12 282.08 283.93C282.08 286.74 283.55 288.41 285.59 288.41ZM285.59 280.28C287.13 280.28 288.18 281.58 288.18 283.93C288.18 286.28 287.13 287.58 285.59 287.58C284.05 287.58 283 286.28 283 283.93C283 281.58 284.05 280.28 285.59 280.28Z" fill="black"/>
<path d="M292.82 288.34V279.52H289.84V280.33H291.92V288.34H292.82Z" fill="black"/>
<path d="M296.46 288.34H297.37V279.52H294.38V280.33H296.46V288.34Z" fill="black"/>
<path d="M303 279.45C301 279.45 299.49 281.12 299.49 283.93C299.49 286.74 300.96 288.41 303 288.41C305.04 288.41 306.52 286.74 306.52 283.93C306.52 281.12 305 279.45 303 279.45ZM303 287.58C301.46 287.58 300.41 286.28 300.41 283.93C300.41 281.58 301.46 280.28 303 280.28C304.54 280.28 305.59 281.58 305.59 283.93C305.59 286.28 304.52 287.58 303 287.58Z" fill="black"/>
<path d="M309.31 288.34H310.21V279.52H307.23V280.33H309.31V288.34Z" fill="black"/>
<path d="M315.83 279.45C313.83 279.45 312.31 281.12 312.31 283.93C312.31 286.74 313.79 288.41 315.83 288.41C317.87 288.41 319.35 286.74 319.35 283.93C319.35 281.12 317.87 279.45 315.83 279.45ZM315.83 287.58C314.29 287.58 313.23 286.28 313.23 283.93C313.23 281.58 314.29 280.28 315.83 280.28C317.37 280.28 318.42 281.58 318.42 283.93C318.42 286.28 317.36 287.58 315.83 287.58Z" fill="black"/>
<path d="M320.08 279.52V280.33H322.15V286.55C322.46 285.96 322.77 285.37 323.06 284.76V279.52H320.08Z" fill="black"/>
<path d="M232.56 303.73L233.06 304.16V303.73H232.56Z" fill="black"/>
<path d="M234.62 303.73V304.54H236.69V307L237.6 307.64V303.74L234.62 303.73Z" fill="black"/>
<path d="M239.16 303.73V304.54H241.24V309.94L242.14 310.46V303.73H239.16Z" fill="black"/>
<path d="M246.68 303.73H243.68V304.54H245.76V312.34L246.21 312.54H246.66L246.68 303.73Z" fill="black"/>
<path d="M252.3 303.66C250.3 303.66 248.79 305.33 248.79 308.14C248.79 310.95 250.26 312.62 252.3 312.62C254.34 312.62 255.82 310.95 255.82 308.14C255.82 305.33 254.34 303.66 252.3 303.66ZM252.3 311.79C250.76 311.79 249.7 310.49 249.7 308.14C249.7 305.79 250.76 304.49 252.3 304.49C253.84 304.49 254.89 305.78 254.89 308.14C254.89 310.5 253.83 311.79 252.3 311.79Z" fill="black"/>
<path d="M260.63 303.66C258.63 303.66 257.12 305.33 257.12 308.14C257.12 310.95 258.59 312.62 260.63 312.62C262.67 312.62 264.15 310.95 264.15 308.14C264.15 305.33 262.67 303.66 260.63 303.66ZM260.63 311.79C259.09 311.79 258.03 310.49 258.03 308.14C258.03 305.79 259.09 304.49 260.63 304.49C262.17 304.49 263.22 305.78 263.22 308.14C263.22 310.5 262.16 311.79 260.63 311.79Z" fill="black"/>
<path d="M269 303.66C267 303.66 265.48 305.33 265.48 308.14C265.48 310.95 266.96 312.62 269 312.62C271.04 312.62 272.52 310.95 272.52 308.14C272.52 305.33 271 303.66 269 303.66ZM269 311.79C267.46 311.79 266.4 310.49 266.4 308.14C266.4 305.79 267.46 304.49 269 304.49C270.54 304.49 271.59 305.78 271.59 308.14C271.59 310.5 270.49 311.79 269 311.79Z" fill="black"/>
<path d="M275.29 312.54H276.19V303.73H273.21V304.54H275.29V312.54Z" fill="black"/>
<path d="M277.75 304.54H279.83V312.54H280.73V303.73H277.75V304.54Z" fill="black"/>
<path d="M286.35 303.66C284.35 303.66 282.83 305.33 282.83 308.14C282.83 310.95 284.31 312.62 286.35 312.62C288.39 312.62 289.87 310.95 289.87 308.14C289.87 305.33 288.39 303.66 286.35 303.66ZM286.35 311.79C284.81 311.79 283.75 310.49 283.75 308.14C283.75 305.79 284.81 304.49 286.35 304.49C287.89 304.49 288.94 305.78 288.94 308.14C288.94 310.5 287.88 311.79 286.35 311.79Z" fill="black"/>
<path d="M290.6 304.54H292.67V312.54H293.58V303.73H290.6V304.54Z" fill="black"/>
<path d="M299.19 303.66C297.19 303.66 295.68 305.33 295.68 308.14C295.617 309.398 296.031 310.634 296.84 311.6L297.64 311.19C297.272 310.778 296.993 310.295 296.821 309.77C296.648 309.245 296.587 308.69 296.64 308.14C296.64 305.78 297.7 304.49 299.23 304.49C300.76 304.49 301.83 305.78 301.83 308.14C301.83 308.37 301.83 308.59 301.83 308.8L302.83 308.18C302.72 305.33 301.23 303.66 299.19 303.66Z" fill="black"/>
<path d="M303.44 303.73V304.54H305.52V306.2C305.83 305.97 306.12 305.72 306.43 305.49V303.73H303.44Z" fill="black"/>
<path d="M255.32 315.85C256.27 316.11 257.24 316.34 258.21 316.55C257.818 316.212 257.352 315.973 256.849 315.851C256.347 315.73 255.823 315.729 255.32 315.85Z" fill="black"/>
<path d="M260.34 315.84V316.64H262.41V317.3L263.32 317.42V315.84H260.34Z" fill="black"/>
<path d="M268.93 315.76C268.297 315.752 267.676 315.93 267.142 316.271C266.609 316.612 266.188 317.102 265.93 317.68L266.93 317.76C267.127 317.403 267.416 317.105 267.769 316.899C268.121 316.693 268.522 316.586 268.93 316.59C269.361 316.586 269.784 316.704 270.15 316.931C270.516 317.157 270.811 317.483 271 317.87C271.33 317.87 271.66 317.87 272 317.87C271.765 317.247 271.345 316.711 270.796 316.333C270.247 315.956 269.596 315.756 268.93 315.76Z" fill="black"/>
<path d="M277.26 315.76C276.617 315.756 275.988 315.944 275.454 316.301C274.919 316.657 274.503 317.165 274.26 317.76L275.31 317.68C275.513 317.346 275.8 317.071 276.142 316.882C276.484 316.692 276.869 316.595 277.26 316.6C277.566 316.596 277.87 316.655 278.152 316.774C278.434 316.892 278.689 317.068 278.9 317.29L279.9 317.13C279.606 316.703 279.211 316.355 278.751 316.116C278.29 315.877 277.779 315.755 277.26 315.76Z" fill="black"/>
<path d="M283.68 316.38C284.45 316.2 285.22 316.01 285.97 315.8C285.85 315.8 285.72 315.8 285.59 315.8C284.907 315.782 284.237 315.985 283.68 316.38Z" fill="black"/>
</g>
<path d="M241.77 174.48V175.39H236.5V168.12H241.63V169H237.54V171.23H241.18V172.11H237.54V174.45L241.77 174.48Z" fill="white"/>
<path d="M249.7 168.12V175.39H248.85L244.49 170V175.42H243.49V168.15H244.34L248.7 173.57V168.15L249.7 168.12Z" fill="white"/>
<path d="M251.29 171.76C251.284 171.259 251.381 170.762 251.574 170.299C251.767 169.836 252.052 169.418 252.413 169.07C252.773 168.721 253.201 168.45 253.67 168.273C254.139 168.096 254.639 168.017 255.14 168.04C255.654 168.02 256.167 168.11 256.643 168.305C257.119 168.5 257.548 168.795 257.9 169.17L257.22 169.83C256.967 169.552 256.658 169.331 256.313 169.181C255.969 169.031 255.596 168.955 255.22 168.96C254.839 168.937 254.457 168.993 254.098 169.123C253.739 169.253 253.411 169.455 253.133 169.717C252.855 169.979 252.634 170.294 252.482 170.645C252.331 170.995 252.253 171.373 252.253 171.755C252.253 172.137 252.331 172.515 252.482 172.865C252.634 173.216 252.855 173.531 253.133 173.793C253.411 174.055 253.739 174.257 254.098 174.387C254.457 174.517 254.839 174.573 255.22 174.55C255.596 174.553 255.968 174.477 256.312 174.327C256.657 174.177 256.966 173.957 257.22 173.68L257.9 174.33C257.547 174.708 257.117 175.005 256.639 175.202C256.161 175.398 255.647 175.49 255.13 175.47C254.631 175.493 254.132 175.414 253.664 175.238C253.196 175.061 252.769 174.791 252.41 174.443C252.05 174.096 251.765 173.679 251.573 173.217C251.38 172.756 251.284 172.26 251.29 171.76Z" fill="white"/>
<path d="M264.24 175.39L262.67 173.16H262.21H260.42V175.37H259.42V168.1H262.25C264.14 168.1 265.25 169.1 265.25 170.64C265.274 171.143 265.131 171.641 264.844 172.055C264.556 172.469 264.14 172.776 263.66 172.93L265.38 175.37L264.24 175.39ZM264.24 170.66C264.24 169.66 263.54 169.03 262.24 169.03H260.48V172.29H262.24C263.51 172.29 264.21 171.69 264.21 170.66H264.24Z" fill="white"/>
<path d="M269.6 172.88V175.39H268.6V172.86L265.72 168.12H266.83L269.15 171.95L271.49 168.12H272.49L269.6 172.88Z" fill="white"/>
<path d="M279.27 170.66C279.27 172.23 278.13 173.19 276.27 173.19H274.48V175.39H273.48V168.12H276.31C278.13 168.12 279.27 169.08 279.27 170.66ZM278.27 170.66C278.27 169.66 277.58 169.03 276.27 169.03H274.51V172.28H276.27C277.54 172.28 278.23 171.69 278.23 170.66H278.27Z" fill="white"/>
<path d="M282 169H279.51V168.09H285.51V169H283V175.36H282V169Z" fill="white"/>
<path d="M286.66 168.12H287.66V175.39H286.66V168.12Z" fill="white"/>
<path d="M289.28 171.76C289.25 170.991 289.451 170.231 289.856 169.577C290.261 168.923 290.852 168.405 291.554 168.09C292.255 167.774 293.035 167.675 293.793 167.806C294.551 167.937 295.253 168.291 295.808 168.824C296.364 169.356 296.747 170.042 296.91 170.794C297.072 171.546 297.007 172.329 296.721 173.043C296.435 173.758 295.943 174.37 295.307 174.803C294.67 175.235 293.919 175.467 293.15 175.47C292.649 175.494 292.148 175.416 291.678 175.241C291.208 175.065 290.779 174.795 290.416 174.448C290.054 174.101 289.767 173.683 289.571 173.221C289.376 172.759 289.277 172.262 289.28 171.76ZM295.97 171.76C295.978 171.198 295.818 170.647 295.512 170.176C295.205 169.705 294.766 169.336 294.249 169.116C293.732 168.896 293.161 168.835 292.609 168.94C292.057 169.046 291.549 169.313 291.15 169.708C290.751 170.103 290.478 170.608 290.366 171.159C290.255 171.71 290.31 172.281 290.525 172.801C290.739 173.32 291.103 173.763 291.571 174.075C292.038 174.387 292.588 174.552 293.15 174.55C293.523 174.565 293.896 174.504 294.244 174.37C294.593 174.235 294.91 174.032 295.177 173.77C295.444 173.509 295.655 173.196 295.796 172.85C295.938 172.504 296.007 172.133 296 171.76H295.97Z" fill="white"/>
<path d="M304.84 168.12V175.39H304L299.63 170V175.42H298.63V168.15H299.48L303.84 173.57V168.15L304.84 168.12Z" fill="white"/>
<path d="M288 251.8H284V240.28C284 236.758 282.601 233.38 280.11 230.89C277.62 228.399 274.242 227 270.72 227C267.198 227 263.82 228.399 261.33 230.89C258.839 233.38 257.44 236.758 257.44 240.28V251.8H253.44V240.28C253.44 235.697 255.261 231.302 258.501 228.061C261.742 224.821 266.137 223 270.72 223C275.303 223 279.698 224.821 282.939 228.061C286.179 231.302 288 235.697 288 240.28V251.8Z" fill="white"/>
<path d="M295.43 250.68L270.67 243.38L245.91 250.68V265.17C245.912 271.059 247.714 276.807 251.074 281.643C254.434 286.479 259.192 290.173 264.71 292.23L270.71 294.45L276.71 292.23C282.228 290.173 286.986 286.479 290.346 281.643C293.706 276.807 295.508 271.059 295.51 265.17L295.43 250.68Z" fill="#6AFFAE"/>
<path opacity="0.2" d="M265.75 289.41C260.817 287.553 256.564 284.24 253.557 279.911C250.549 275.582 248.929 270.441 248.91 265.17V252.92L270.67 246.51L292.43 252.92V265.17C292.411 270.441 290.79 275.582 287.783 279.911C284.775 284.24 280.523 287.553 275.59 289.41L270.67 291.25L265.75 289.41Z" fill="black"/>
<path d="M274.43 263.67C274.437 262.998 274.264 262.337 273.928 261.755C273.593 261.173 273.108 260.691 272.524 260.36C271.939 260.029 271.277 259.86 270.605 259.872C269.933 259.884 269.277 260.075 268.704 260.426C268.132 260.777 267.664 261.275 267.349 261.869C267.034 262.462 266.884 263.129 266.914 263.8C266.944 264.471 267.153 265.122 267.52 265.685C267.887 266.247 268.398 266.702 269 267L268.28 274H273.04L272.32 267C272.946 266.696 273.475 266.223 273.848 265.635C274.22 265.047 274.422 264.366 274.43 263.67Z" fill="#263238"/>
<path d="M341.26 172.13V170.13H339.49C339.371 169.623 339.169 169.14 338.89 168.7L340.15 167.44L338.72 166L337.46 167.26C337.025 166.982 336.544 166.783 336.04 166.67V164.89H334.04V166.67C333.532 166.781 333.048 166.981 332.61 167.26L331.33 166L329.9 167.43L331.16 168.69C330.881 169.128 330.681 169.612 330.57 170.12H328.79V172.12H330.57C330.683 172.624 330.882 173.104 331.16 173.54L329.9 174.8L331.33 176.23L332.59 174.97C333.03 175.248 333.513 175.451 334.02 175.57V177.34H336.02V175.57C336.523 175.449 337.003 175.247 337.44 174.97L338.7 176.23L340.13 174.8L338.87 173.54C339.147 173.103 339.349 172.623 339.47 172.12L341.26 172.13ZM335 173C334.629 173.002 334.266 172.894 333.957 172.689C333.648 172.484 333.407 172.192 333.264 171.85C333.122 171.508 333.084 171.131 333.156 170.768C333.227 170.404 333.406 170.07 333.668 169.808C333.93 169.546 334.264 169.367 334.628 169.295C334.991 169.224 335.368 169.262 335.71 169.404C336.052 169.547 336.344 169.788 336.549 170.097C336.754 170.406 336.862 170.769 336.86 171.14C336.857 171.632 336.661 172.104 336.312 172.452C335.964 172.801 335.493 172.997 335 173Z" fill="white"/>
<path d="M207.66 165.61L200.92 172.02H203V176.62H212.32V172.02H214.41L207.66 165.61Z" fill="white"/>
<path opacity="0.3" d="M322.37 334H219C217.541 334 216.142 334.579 215.111 335.611C214.079 336.642 213.5 338.041 213.5 339.5C213.5 340.959 214.079 342.358 215.111 343.389C216.142 344.421 217.541 345 219 345H322.4C323.859 345 325.258 344.421 326.289 343.389C327.321 342.358 327.9 340.959 327.9 339.5C327.9 338.041 327.321 336.642 326.289 335.611C325.258 334.579 323.859 334 322.4 334H322.37Z" fill="#6AFFAE"/>
<path d="M291.19 335H219.07C217.928 335.076 216.858 335.583 216.077 336.419C215.295 337.254 214.86 338.356 214.86 339.5C214.86 340.644 215.295 341.746 216.077 342.581C216.858 343.417 217.928 343.924 219.07 344H291.19C291.806 344.041 292.424 343.955 293.006 343.748C293.587 343.54 294.12 343.215 294.571 342.793C295.022 342.372 295.382 341.862 295.628 341.295C295.873 340.729 296 340.118 296 339.5C296 338.882 295.873 338.271 295.628 337.705C295.382 337.138 295.022 336.628 294.571 336.207C294.12 335.785 293.587 335.46 293.006 335.252C292.424 335.045 291.806 334.959 291.19 335Z" fill="#6AFFAE"/>
<path d="M388.18 393.77C388.18 393.77 393.45 368.89 383.86 355.41C374.27 341.93 392.53 355.25 394.63 367.87C394.63 367.87 397.77 345.31 388.47 329.43C379.17 313.55 396.57 326.59 398.05 342.95C398.05 342.95 400.9 322.82 396.63 311.51C392.36 300.2 399.79 307.51 402.63 314.56C405.47 321.61 401.74 339.21 401.74 339.21C401.74 339.21 409.2 306.75 416.26 309.33C423.32 311.91 405.7 333.18 403.26 344.25C403.26 344.25 411.58 329.36 417.9 332.46C424.22 335.56 408.12 337.1 400.74 359.3L398.16 369.71C398.16 369.71 405.82 355.02 410.83 359.71C415.84 364.4 396 372.29 391.38 394.57L388.18 393.77Z" fill="#263238"/>
<path d="M389.22 395.21C389.22 395.21 390.32 363.83 405.83 350.54C421.34 337.25 395.49 347.77 389.22 362.26C389.22 362.26 392.17 334.26 408.04 318.06C423.91 301.86 399.18 312.24 392.54 331.39C392.54 331.39 395.12 306.39 403.61 294.16C412.1 281.93 401.03 288.38 395.49 296.02C389.95 303.66 389.22 325.81 389.22 325.81C389.22 325.81 389.95 284.7 380.73 285.69C371.51 286.68 386.26 317.41 385.89 331.39C385.89 331.39 380.36 311.08 371.89 312.91C363.42 314.74 382.22 321.38 384.44 350.17V363.41C384.44 363.41 379.64 343.53 372.26 347.59C364.88 351.65 386.26 367.15 385.18 395.21H389.22Z" fill="#263238"/>
<path opacity="0.2" d="M389.22 395.21C389.22 395.21 390.32 363.83 405.83 350.54C421.34 337.25 395.49 347.77 389.22 362.26C389.22 362.26 392.17 334.26 408.04 318.06C423.91 301.86 399.18 312.24 392.54 331.39C392.54 331.39 395.12 306.39 403.61 294.16C412.1 281.93 401.03 288.38 395.49 296.02C389.95 303.66 389.22 325.81 389.22 325.81C389.22 325.81 389.95 284.7 380.73 285.69C371.51 286.68 386.26 317.41 385.89 331.39C385.89 331.39 380.36 311.08 371.89 312.91C363.42 314.74 382.22 321.38 384.44 350.17V363.41C384.44 363.41 379.64 343.53 372.26 347.59C364.88 351.65 386.26 367.15 385.18 395.21H389.22Z" fill="white"/>
<path d="M399.26 417.29H375.67C372.753 417.29 369.955 416.131 367.892 414.068C365.829 412.005 364.67 409.207 364.67 406.29V401.37H410.26V406.29C410.26 409.207 409.101 412.005 407.038 414.068C404.975 416.131 402.177 417.29 399.26 417.29Z" fill="#6AFFAE"/>
<path d="M362.92 406.44H412.02C414.345 406.44 416.23 404.555 416.23 402.23V396.4C416.23 394.075 414.345 392.19 412.02 392.19H362.92C360.595 392.19 358.71 394.075 358.71 396.4V402.23C358.71 404.555 360.595 406.44 362.92 406.44Z" fill="#6AFFAE"/>
<path opacity="0.2" d="M362.92 406.44H412.02C414.345 406.44 416.23 404.555 416.23 402.23V396.4C416.23 394.075 414.345 392.19 412.02 392.19H362.92C360.595 392.19 358.71 394.075 358.71 396.4V402.23C358.71 404.555 360.595 406.44 362.92 406.44Z" fill="white"/>
<path d="M119.38 110.66H82.9299C82.0688 110.663 81.2437 111.006 80.6348 111.615C80.0258 112.224 79.6826 113.049 79.6799 113.91V149.52C79.6799 150.383 80.022 151.211 80.6312 151.822C81.2404 152.433 82.0671 152.777 82.9299 152.78H102.81L114.32 161.17L109.09 152.78H119.38C120.243 152.777 121.069 152.433 121.679 151.822C122.288 151.211 122.63 150.383 122.63 149.52V113.91C122.627 113.049 122.284 112.224 121.675 111.615C121.066 111.006 120.241 110.663 119.38 110.66Z" fill="#6AFFAE"/>
<path d="M96.44 144.48C96.4072 144.477 96.3751 144.468 96.3457 144.454C96.3164 144.439 96.2902 144.418 96.2689 144.393C96.2475 144.368 96.2313 144.339 96.2212 144.307C96.2111 144.276 96.2073 144.243 96.21 144.21C96.55 140.57 98.5 137.64 99.93 135.5C100.93 134.06 101.64 132.93 101.49 132.25C101.457 132.136 101.401 132.03 101.325 131.939C101.25 131.848 101.156 131.773 101.05 131.72C100.736 131.565 100.387 131.493 100.037 131.511C99.6871 131.528 99.3474 131.635 99.05 131.82C96.82 132.93 94.11 136.82 93.5 141.95C93.4963 141.983 93.4861 142.015 93.47 142.044C93.4538 142.073 93.4321 142.098 93.4061 142.119C93.38 142.139 93.3502 142.154 93.3182 142.163C93.2863 142.172 93.2529 142.174 93.22 142.17C93.1546 142.16 93.0955 142.126 93.0546 142.074C93.0137 142.022 92.9942 141.956 93 141.89C93.64 136.62 96.48 132.54 98.83 131.37C99.1926 131.15 99.6057 131.027 100.03 131.013C100.453 130.999 100.874 131.094 101.25 131.29C101.415 131.374 101.56 131.493 101.676 131.638C101.791 131.782 101.875 131.95 101.92 132.13C102.13 133.03 101.36 134.18 100.3 135.78C98.9 137.87 96.99 140.78 96.66 144.25C96.6558 144.308 96.6315 144.363 96.5914 144.405C96.5512 144.447 96.4977 144.473 96.44 144.48Z" fill="white"/>
<path d="M97.7299 145C97.697 144.997 97.665 144.988 97.6356 144.974C97.6062 144.959 97.5801 144.938 97.5587 144.913C97.5373 144.888 97.5211 144.859 97.511 144.827C97.5009 144.796 97.4972 144.763 97.4999 144.73C97.7499 141.3 99.7099 138.5 101.29 136.25C102.52 134.5 103.58 132.98 103.35 131.82C103.265 131.519 103.121 131.237 102.925 130.993C102.729 130.749 102.486 130.548 102.21 130.4C101.69 130.056 101.089 129.857 100.467 129.822C99.845 129.787 99.2249 129.917 98.6699 130.2C95.8399 131.49 93.1899 136.01 92.5099 140.69C92.5 140.755 92.4655 140.815 92.4135 140.855C92.3614 140.896 92.2958 140.916 92.2299 140.91C92.1626 140.9 92.1018 140.864 92.0607 140.81C92.0195 140.756 92.0013 140.688 92.0099 140.62C92.7199 135.78 95.4899 131.1 98.4699 129.74C99.0988 129.425 99.7998 129.281 100.502 129.323C101.204 129.365 101.883 129.592 102.47 129.98C102.804 130.161 103.097 130.409 103.332 130.708C103.566 131.007 103.735 131.352 103.83 131.72C104.1 133.1 103.04 134.61 101.69 136.54C100.14 138.74 98.2199 141.47 97.9899 144.77C97.9848 144.835 97.9548 144.895 97.9063 144.937C97.8578 144.98 97.7946 145.003 97.7299 145Z" fill="white"/>
<path d="M95.4298 143.92C95.397 143.917 95.3649 143.908 95.3355 143.894C95.3062 143.879 95.28 143.858 95.2587 143.833C95.2373 143.808 95.2211 143.779 95.211 143.747C95.2009 143.716 95.1971 143.683 95.1998 143.65C95.4798 140.23 97.3098 137.23 98.3998 135.44C98.7561 134.928 99.0482 134.373 99.2698 133.79C98.1698 133.79 95.1998 138.18 94.5998 142.9C94.5961 142.933 94.5859 142.965 94.5698 142.994C94.5536 143.023 94.5319 143.048 94.5059 143.069C94.4798 143.089 94.4499 143.104 94.418 143.113C94.3861 143.122 94.3527 143.124 94.3198 143.12C94.2552 143.11 94.1969 143.075 94.1577 143.023C94.1184 142.971 94.1012 142.905 94.1098 142.84C94.6798 138.31 97.6698 133.29 99.2698 133.29C99.3604 133.281 99.4518 133.297 99.5332 133.338C99.6147 133.379 99.6829 133.442 99.7298 133.52C99.9398 133.9 99.5698 134.52 98.8498 135.7C97.7098 137.56 95.9898 140.39 95.7198 143.7C95.7162 143.734 95.7057 143.767 95.6889 143.796C95.6722 143.826 95.6495 143.852 95.6224 143.873C95.5952 143.893 95.5641 143.908 95.531 143.916C95.4979 143.924 95.4635 143.926 95.4298 143.92Z" fill="white"/>
<path d="M99.4699 145.42C99.4371 145.417 99.405 145.408 99.3756 145.394C99.3463 145.379 99.3201 145.358 99.2987 145.333C99.2774 145.308 99.2612 145.279 99.2511 145.247C99.241 145.216 99.2372 145.183 99.2399 145.15C99.3899 142.33 101.07 139.64 102.56 137.27C104.75 133.78 106.48 131.02 103.48 128.74C102.853 128.283 102.115 128.003 101.343 127.927C100.572 127.852 99.7935 127.984 99.0899 128.31C95.5799 129.66 92.3799 134.11 91.4799 138.89C91.4655 138.956 91.4262 139.013 91.3702 139.05C91.3143 139.088 91.2461 139.102 91.1799 139.09C91.1169 139.076 91.0619 139.037 91.0265 138.983C90.9911 138.929 90.978 138.864 90.9899 138.8C91.9199 133.86 95.2499 129.25 98.9099 127.8C99.6928 127.443 100.557 127.301 101.413 127.389C102.269 127.477 103.086 127.791 103.78 128.3C107.15 130.86 105.13 134.09 102.98 137.5C101.46 139.93 99.8799 142.44 99.7399 145.14C99.7445 145.177 99.7408 145.215 99.729 145.25C99.7172 145.285 99.6977 145.318 99.6718 145.344C99.6459 145.371 99.6144 145.392 99.5794 145.405C99.5445 145.418 99.5071 145.423 99.4699 145.42Z" fill="white"/>
<path d="M102.1 145.5C102.049 145.5 101.998 145.485 101.956 145.456C101.913 145.428 101.88 145.387 101.86 145.34C100.97 142.98 102.1 139.47 105.21 134.91C107.29 131.84 110.72 132.31 112.1 132.65C112.132 132.658 112.162 132.672 112.189 132.692C112.216 132.711 112.238 132.736 112.256 132.764C112.273 132.793 112.284 132.824 112.289 132.857C112.294 132.889 112.293 132.923 112.285 132.955C112.277 132.987 112.263 133.017 112.243 133.044C112.224 133.071 112.199 133.093 112.171 133.111C112.142 133.128 112.111 133.139 112.078 133.144C112.046 133.149 112.012 133.148 111.98 133.14C110.7 132.82 107.53 132.38 105.62 135.19C102.62 139.54 101.51 142.99 102.33 145.19C102.343 145.221 102.35 145.254 102.35 145.287C102.349 145.321 102.343 145.354 102.33 145.385C102.317 145.415 102.298 145.443 102.274 145.466C102.25 145.49 102.221 145.508 102.19 145.52L102.1 145.5Z" fill="white"/>
<path d="M104.45 145C104.409 145 104.368 144.989 104.332 144.97C104.295 144.951 104.264 144.924 104.24 144.89C102.24 142.05 104.24 137.46 107.35 134.96C107.989 134.376 108.793 134.003 109.651 133.89C110.509 133.778 111.382 133.931 112.15 134.33C112.208 134.362 112.252 134.415 112.273 134.478C112.293 134.541 112.289 134.61 112.26 134.67C112.228 134.728 112.175 134.772 112.112 134.793C112.049 134.813 111.98 134.809 111.92 134.78C111.238 134.424 110.462 134.288 109.7 134.39C108.937 134.492 108.225 134.827 107.66 135.35C104.79 137.66 102.85 142.03 104.66 144.61C104.68 144.636 104.695 144.665 104.703 144.697C104.711 144.728 104.712 144.761 104.707 144.794C104.701 144.826 104.689 144.856 104.67 144.883C104.652 144.91 104.628 144.933 104.6 144.95C104.557 144.983 104.504 145.001 104.45 145Z" fill="white"/>
<path d="M105.93 144.45C105.885 144.449 105.841 144.437 105.803 144.414C105.764 144.391 105.732 144.359 105.71 144.32C105.405 143.688 105.237 142.999 105.217 142.298C105.196 141.597 105.323 140.899 105.59 140.25C106.143 138.505 107.322 137.027 108.9 136.1C109.386 135.909 109.909 135.832 110.429 135.875C110.949 135.918 111.453 136.081 111.9 136.35C111.95 136.386 111.985 136.44 111.997 136.501C112.01 136.561 112 136.624 111.969 136.678C111.938 136.731 111.888 136.771 111.829 136.79C111.77 136.809 111.706 136.805 111.65 136.78C111.263 136.539 110.825 136.393 110.371 136.355C109.918 136.317 109.461 136.387 109.04 136.56C107.61 137.442 106.546 138.808 106.04 140.41C105.8 140.995 105.685 141.623 105.7 142.254C105.716 142.886 105.862 143.508 106.13 144.08C106.146 144.109 106.156 144.141 106.159 144.173C106.163 144.206 106.16 144.239 106.15 144.271C106.141 144.302 106.126 144.332 106.105 144.357C106.084 144.383 106.059 144.404 106.03 144.42C105.999 144.436 105.965 144.447 105.93 144.45Z" fill="white"/>
<path d="M107.8 143.28C107.764 143.28 107.728 143.271 107.695 143.256C107.662 143.24 107.633 143.218 107.61 143.19C106.61 142.1 106.93 140.19 108.35 138.61C108.694 138.123 109.212 137.787 109.797 137.674C110.383 137.56 110.989 137.677 111.49 138C111.545 138.035 111.584 138.09 111.599 138.154C111.614 138.217 111.604 138.284 111.57 138.34C111.537 138.397 111.482 138.438 111.419 138.455C111.355 138.472 111.287 138.463 111.23 138.43C110.827 138.171 110.338 138.08 109.869 138.177C109.399 138.274 108.987 138.552 108.72 138.95C107.27 140.58 107.32 142.12 107.98 142.86C108.004 142.882 108.023 142.91 108.036 142.94C108.049 142.97 108.056 143.002 108.056 143.035C108.056 143.068 108.049 143.1 108.036 143.13C108.023 143.16 108.004 143.188 107.98 143.21C107.93 143.254 107.866 143.279 107.8 143.28Z" fill="white"/>
<path d="M109.13 142.06C109.084 142.06 109.038 142.047 108.999 142.022C108.96 141.998 108.929 141.962 108.91 141.92C108.775 141.656 108.717 141.36 108.742 141.064C108.768 140.769 108.876 140.487 109.055 140.25C109.233 140.013 109.474 139.831 109.751 139.725C110.028 139.619 110.329 139.593 110.62 139.65C110.684 139.669 110.738 139.711 110.772 139.769C110.805 139.827 110.815 139.895 110.8 139.96C110.791 139.992 110.775 140.021 110.755 140.047C110.734 140.072 110.709 140.093 110.68 140.109C110.651 140.125 110.62 140.135 110.587 140.139C110.554 140.142 110.521 140.139 110.49 140.13C110.324 140.098 110.152 140.109 109.991 140.161C109.83 140.214 109.685 140.306 109.57 140.43C109.391 140.583 109.272 140.794 109.233 141.027C109.195 141.259 109.24 141.497 109.36 141.7C109.388 141.761 109.391 141.831 109.368 141.894C109.346 141.958 109.3 142.01 109.24 142.04C109.206 142.056 109.168 142.063 109.13 142.06Z" fill="white"/>
<path d="M90.3698 136.17C90.3 136.165 90.2349 136.133 90.1882 136.081C90.1416 136.028 90.1171 135.96 90.1198 135.89C90.8746 132.815 92.6782 130.099 95.2198 128.21C96.7517 127.068 98.4011 126.092 100.14 125.3C101.37 124.812 102.489 124.081 103.43 123.15C104.009 122.497 104.383 121.687 104.504 120.823C104.625 119.958 104.488 119.077 104.11 118.29C104.097 118.26 104.089 118.227 104.089 118.194C104.088 118.161 104.094 118.129 104.106 118.098C104.118 118.067 104.136 118.039 104.159 118.016C104.182 117.992 104.21 117.973 104.24 117.96C104.269 117.945 104.301 117.936 104.334 117.934C104.367 117.932 104.4 117.937 104.431 117.948C104.462 117.959 104.49 117.977 104.514 118C104.538 118.022 104.557 118.05 104.57 118.08C104.988 118.956 105.139 119.936 105.002 120.896C104.865 121.857 104.447 122.756 103.8 123.48C102.817 124.465 101.643 125.237 100.35 125.75C98.6461 126.535 97.0276 127.494 95.5198 128.61C93.0891 130.419 91.3581 133.012 90.6198 135.95C90.6201 135.982 90.6136 136.013 90.6007 136.042C90.5879 136.071 90.5689 136.096 90.5452 136.117C90.5215 136.138 90.4935 136.154 90.4633 136.163C90.433 136.172 90.4011 136.174 90.3698 136.17Z" fill="white"/>
<path d="M90.2699 131.71H90.1599C90.1301 131.695 90.1035 131.675 90.0818 131.649C90.0601 131.624 90.0436 131.595 90.0334 131.563C90.0231 131.531 90.0193 131.498 90.0221 131.465C90.025 131.432 90.0344 131.399 90.0499 131.37C91.5399 128.37 94.6499 126.67 97.3899 125.16C99.9599 123.74 102.18 122.51 102.58 120.61C102.694 120.139 102.686 119.646 102.556 119.179C102.427 118.712 102.18 118.285 101.84 117.94C101.816 117.917 101.796 117.889 101.783 117.858C101.77 117.827 101.763 117.794 101.763 117.76C101.763 117.726 101.77 117.693 101.783 117.662C101.796 117.631 101.816 117.603 101.84 117.58C101.887 117.534 101.949 117.509 102.015 117.509C102.08 117.509 102.143 117.534 102.19 117.58C102.587 117.984 102.875 118.482 103.027 119.028C103.179 119.573 103.19 120.149 103.06 120.7C102.62 122.83 100.3 124.11 97.6199 125.59C94.9399 127.07 91.9099 128.74 90.4799 131.59C90.4586 131.627 90.428 131.657 90.3911 131.678C90.3542 131.699 90.3124 131.71 90.2699 131.71Z" fill="white"/>
<path d="M90.2699 129.25C90.2272 129.26 90.1826 129.26 90.1399 129.25C90.1113 129.233 90.0864 129.21 90.0668 129.183C90.0472 129.155 90.0333 129.125 90.0258 129.092C90.0184 129.059 90.0175 129.025 90.0234 128.993C90.0292 128.96 90.0417 128.928 90.0599 128.9C91.3099 126.9 93.5399 125.56 95.7099 124.24C97.8799 122.92 100.08 121.59 100.36 119.87C100.42 119.505 100.354 119.131 100.172 118.809C99.9902 118.487 99.7036 118.237 99.3599 118.1C99.3033 118.066 99.2616 118.013 99.243 117.95C99.2244 117.887 99.2305 117.819 99.2599 117.76C99.2756 117.731 99.2969 117.705 99.3225 117.685C99.3481 117.664 99.3775 117.649 99.4091 117.639C99.4407 117.63 99.4738 117.627 99.5066 117.631C99.5393 117.634 99.571 117.644 99.5999 117.66C100.038 117.844 100.402 118.17 100.634 118.585C100.866 119 100.953 119.48 100.88 119.95C100.56 121.95 98.3399 123.24 95.9899 124.67C93.8699 125.95 91.6899 127.28 90.4999 129.17C90.4716 129.202 90.4356 129.226 90.3953 129.24C90.3551 129.254 90.3119 129.257 90.2699 129.25Z" fill="white"/>
<path d="M90.44 126.92C90.3815 126.918 90.3254 126.897 90.28 126.86C90.2342 126.813 90.2085 126.75 90.2085 126.685C90.2085 126.62 90.2342 126.557 90.28 126.51C91.4761 125.213 92.8577 124.101 94.38 123.21C96.16 122.05 97.69 121.05 97.81 119.84C97.8466 119.598 97.8029 119.35 97.6855 119.135C97.5681 118.921 97.3835 118.75 97.16 118.65C97.1314 118.635 97.106 118.615 97.0854 118.59C97.0648 118.566 97.0494 118.537 97.0401 118.506C97.0307 118.475 97.0277 118.443 97.0311 118.411C97.0345 118.379 97.0443 118.348 97.06 118.32C97.0748 118.29 97.0954 118.264 97.1206 118.242C97.1459 118.22 97.1752 118.204 97.2068 118.194C97.2385 118.183 97.2719 118.179 97.3051 118.182C97.3382 118.185 97.3705 118.195 97.4 118.21C97.7111 118.356 97.9674 118.598 98.1311 118.9C98.2949 119.203 98.3575 119.55 98.31 119.89C98.17 121.33 96.54 122.4 94.65 123.63C93.1686 124.497 91.8212 125.575 90.65 126.83C90.6258 126.862 90.5938 126.887 90.5569 126.903C90.5201 126.919 90.4798 126.925 90.44 126.92Z" fill="white"/>
<path d="M91.6298 123.57C91.5935 123.57 91.5577 123.561 91.5249 123.546C91.4921 123.53 91.4631 123.508 91.4398 123.48C91.3934 123.432 91.3674 123.367 91.3674 123.3C91.3674 123.233 91.3934 123.168 91.4398 123.12C92.1314 122.576 92.8789 122.106 93.6698 121.72C94.4098 121.33 95.0398 121 95.0798 120.66C95.1073 120.502 95.0962 120.339 95.0475 120.186C94.9987 120.033 94.9138 119.893 94.7998 119.78C94.7775 119.756 94.7602 119.727 94.7488 119.696C94.7375 119.665 94.7324 119.632 94.7338 119.599C94.7352 119.566 94.7431 119.534 94.757 119.504C94.7709 119.474 94.7905 119.447 94.8148 119.425C94.8391 119.403 94.8676 119.385 94.8986 119.374C94.9295 119.363 94.9625 119.358 94.9954 119.359C95.0284 119.36 95.0608 119.368 95.0907 119.382C95.1206 119.396 95.1475 119.416 95.1698 119.44C95.3298 119.609 95.4498 119.812 95.5208 120.033C95.5918 120.255 95.6119 120.49 95.5798 120.72C95.4998 121.32 94.7998 121.72 93.9098 122.16C93.1462 122.531 92.4253 122.983 91.7598 123.51C91.724 123.543 91.6784 123.564 91.6298 123.57Z" fill="white"/>
<path d="M111.83 131.57C108.6 131.57 106.08 130.26 105.08 128.05C104.08 125.84 105.08 124.35 106.08 122.52C106.613 121.569 106.81 120.467 106.64 119.39C106.64 119.322 106.665 119.256 106.712 119.206C106.758 119.156 106.822 119.125 106.89 119.12C106.921 119.119 106.952 119.124 106.981 119.135C107.01 119.146 107.037 119.162 107.059 119.184C107.082 119.205 107.099 119.231 107.112 119.26C107.124 119.288 107.13 119.319 107.13 119.35C107.323 120.524 107.104 121.729 106.51 122.76C105.44 124.61 104.66 125.94 105.51 127.83C106.45 129.91 108.89 131.11 112 131.06C112.033 131.059 112.066 131.064 112.096 131.075C112.127 131.086 112.156 131.104 112.18 131.126C112.204 131.148 112.223 131.175 112.237 131.205C112.251 131.235 112.259 131.267 112.26 131.3C112.26 131.367 112.234 131.432 112.187 131.48C112.141 131.529 112.077 131.557 112.01 131.56L111.83 131.57Z" fill="white"/>
<path d="M111.38 129.67C110.604 129.733 109.826 129.579 109.132 129.226C108.438 128.873 107.856 128.334 107.45 127.67C107.149 127.132 107.009 126.519 107.046 125.904C107.084 125.289 107.297 124.698 107.66 124.2C108.348 123.335 108.784 122.297 108.92 121.2C108.924 121.167 108.934 121.135 108.95 121.106C108.966 121.077 108.988 121.052 109.014 121.031C109.04 121.011 109.07 120.996 109.102 120.987C109.134 120.978 109.167 120.976 109.2 120.98C109.264 120.988 109.324 121.02 109.365 121.07C109.406 121.121 109.426 121.185 109.42 121.25C109.275 122.444 108.804 123.575 108.06 124.52C107.754 124.939 107.575 125.437 107.545 125.955C107.515 126.473 107.635 126.988 107.89 127.44C108.57 128.69 110.08 129.31 112.02 129.13C112.086 129.127 112.15 129.149 112.2 129.192C112.25 129.235 112.282 129.295 112.29 129.36C112.293 129.393 112.289 129.426 112.279 129.457C112.269 129.489 112.252 129.518 112.231 129.543C112.21 129.568 112.184 129.589 112.154 129.604C112.125 129.618 112.093 129.627 112.06 129.63L111.38 129.67Z" fill="white"/>
<path d="M111.19 128.11C110.591 128.136 110.004 127.932 109.55 127.54C109.288 127.282 109.09 126.968 108.97 126.621C108.851 126.274 108.813 125.904 108.86 125.54C109.085 124.722 109.531 123.981 110.15 123.4L110.42 123.09C110.439 123.061 110.465 123.036 110.495 123.017C110.524 122.998 110.558 122.986 110.593 122.981C110.628 122.976 110.663 122.978 110.697 122.988C110.731 122.998 110.762 123.014 110.789 123.037C110.816 123.06 110.838 123.088 110.853 123.12C110.869 123.151 110.877 123.186 110.878 123.221C110.879 123.256 110.873 123.291 110.859 123.324C110.846 123.356 110.826 123.386 110.8 123.41L110.53 123.73C109.985 124.238 109.582 124.879 109.36 125.59C109.312 125.883 109.335 126.183 109.427 126.465C109.519 126.747 109.678 127.002 109.89 127.21C110.182 127.426 110.52 127.57 110.878 127.631C111.236 127.692 111.603 127.668 111.95 127.56C112.016 127.548 112.084 127.562 112.14 127.6C112.196 127.637 112.235 127.694 112.25 127.76C112.262 127.825 112.247 127.892 112.21 127.946C112.172 128.001 112.115 128.038 112.05 128.05C111.766 128.101 111.478 128.121 111.19 128.11Z" fill="white"/>
<path d="M111.78 126.47H111.7C111.59 126.437 111.488 126.381 111.401 126.305C111.315 126.229 111.246 126.135 111.2 126.03C111.148 125.883 111.128 125.727 111.142 125.571C111.156 125.416 111.203 125.266 111.28 125.13C111.308 125.069 111.359 125.022 111.421 124.998C111.484 124.975 111.554 124.977 111.615 125.005C111.676 125.033 111.723 125.084 111.747 125.147C111.77 125.209 111.768 125.279 111.74 125.34C111.694 125.414 111.663 125.496 111.649 125.582C111.635 125.668 111.639 125.756 111.66 125.84C111.66 125.84 111.66 125.94 111.86 125.99C111.919 126.007 111.969 126.045 112.002 126.097C112.035 126.148 112.047 126.21 112.037 126.271C112.028 126.331 111.996 126.386 111.948 126.424C111.901 126.463 111.841 126.483 111.78 126.48V126.47Z" fill="white"/>
<path d="M102 126.3C102.59 126.049 103.139 125.712 103.63 125.3C103.553 125.874 103.584 126.457 103.72 127.02C103.238 126.603 102.635 126.351 102 126.3Z" fill="white"/>
<path d="M106.37 131C106.464 131.464 106.415 131.945 106.23 132.38C106.716 132.087 107.237 131.855 107.78 131.69C107.271 131.55 106.793 131.316 106.37 131Z" fill="white"/>
<path d="M119.26 204.87C118.17 208.78 123.44 223.37 132.54 223.24C141.64 223.11 120.76 199.54 119.26 204.87Z" fill="#EBB376"/>
<path opacity="0.2" d="M119.26 204.87C118.17 208.78 123.44 223.37 132.54 223.24C141.64 223.11 120.76 199.54 119.26 204.87Z" fill="black"/>
<path d="M150.42 194.58C151.59 193.667 152.672 192.646 153.65 191.53C154.24 190.61 160.04 190.24 160.88 190.37C161.72 190.5 160.57 195.25 160.37 195.89C160.17 196.53 154.64 197.73 153.9 197.51C153.16 197.29 150.42 194.58 150.42 194.58Z" fill="#EBB376"/>
<path opacity="0.2" d="M150.42 194.58C151.59 193.667 152.672 192.646 153.65 191.53C154.24 190.61 160.04 190.24 160.88 190.37C161.72 190.5 160.57 195.25 160.37 195.89C160.17 196.53 154.64 197.73 153.9 197.51C153.16 197.29 150.42 194.58 150.42 194.58Z" fill="black"/>
<path d="M171.69 199.51C172.153 199.078 172.565 198.595 172.92 198.07C173.07 197.68 172.92 189.91 172.3 189.62C171.68 189.33 166.45 190.26 166 191C165.55 191.74 166.54 198.81 166.59 199.21C166.64 199.61 169.43 200.3 169.43 200.3L171.69 199.51Z" fill="#EBB376"/>
<path d="M172.12 183.89H171.47L166.86 183.48L166.22 183.42C165.955 183.405 165.693 183.485 165.482 183.647C165.271 183.808 165.125 184.04 165.07 184.3L162.81 196C162.792 196.117 162.798 196.237 162.827 196.352C162.857 196.467 162.91 196.575 162.984 196.669C163.057 196.762 163.148 196.84 163.252 196.897C163.357 196.954 163.472 196.989 163.59 197L164.24 197.06L168.85 197.46L169.49 197.52C169.756 197.537 170.019 197.458 170.23 197.296C170.442 197.134 170.587 196.901 170.64 196.64L172.9 184.87C172.915 184.754 172.907 184.636 172.876 184.524C172.845 184.411 172.791 184.306 172.718 184.214C172.645 184.123 172.555 184.047 172.452 183.991C172.349 183.936 172.236 183.901 172.12 183.89Z" fill="#263238"/>
<path opacity="0.2" d="M171.47 183.84L166.22 183.37C165.955 183.355 165.693 183.435 165.482 183.597C165.271 183.758 165.125 183.99 165.07 184.25L162.81 196C162.792 196.117 162.798 196.237 162.827 196.352C162.857 196.467 162.91 196.575 162.984 196.669C163.057 196.762 163.148 196.84 163.252 196.897C163.357 196.954 163.472 196.989 163.59 197L168.85 197.46C169.116 197.48 169.38 197.401 169.592 197.239C169.804 197.076 169.949 196.842 170 196.58L172.25 184.81C172.268 184.694 172.262 184.576 172.232 184.463C172.202 184.349 172.148 184.244 172.075 184.152C172.001 184.061 171.91 183.986 171.805 183.932C171.701 183.878 171.587 183.847 171.47 183.84Z" fill="white"/>
<path d="M169.46 196.47L163.22 195.92L165.45 184.27L171.69 184.82L169.46 196.47Z" fill="#6AFFAE"/>
<path opacity="0.6" d="M169.46 196.47L163.22 195.92L165.45 184.27L171.69 184.82L169.46 196.47Z" fill="white"/>
<path d="M146 398.85L151.06 398.93C156.2 374.78 159.84 344.93 162.06 322.36C162.41 318.83 162.74 315.49 163.06 312.36C163.19 310.87 163.32 309.45 163.44 308.08C164.05 301.3 164.44 295.93 164.72 292.61C164.9 290.18 164.99 288.85 164.99 288.85H146.72L146.89 293.5L147.46 308.87L147.52 310.63L147.9 320.78L148.54 338.06C142.27 362.39 146 398.85 146 398.85Z" fill="#EBB376"/>
<path d="M105 397.56L110 398.5C120 373.58 129.33 341.68 135.42 319.4C136.36 315.94 137.23 312.71 138.01 309.78C138.01 309.63 138.08 309.49 138.12 309.35C139.65 303.53 140.83 298.9 141.57 295.96C142.14 293.66 142.45 292.39 142.45 292.39L124.45 289.28L123.45 296.86L121.9 308L121.61 310.19L120.61 317.77L117.87 338.11C107.53 361 105 397.56 105 397.56Z" fill="#EBB376"/>
<path opacity="0.2" d="M121.9 308L138 309.8C138 309.65 138.07 309.51 138.11 309.37C139.64 303.55 140.82 298.92 141.56 295.98L123.4 296.88L121.9 308Z" fill="black"/>
<path opacity="0.2" d="M146.89 293.51L147.46 308.88L147.52 310.64L163.07 312.37C163.2 310.88 163.33 309.46 163.45 308.09C164.06 301.31 164.45 295.94 164.73 292.62L146.89 293.51Z" fill="black"/>
<path d="M161 415.63C160.056 414.869 158.982 414.286 157.83 413.91C157.83 413.91 154.39 410.49 152.73 400.21L148.23 399.03C147.462 398.845 146.656 398.9 145.921 399.188C145.186 399.475 144.557 399.983 144.12 400.64C143.997 400.821 143.902 401.02 143.84 401.23C143.61 402.332 143.45 403.448 143.36 404.57C143.105 408.328 143.082 412.099 143.29 415.86H144.11L144.43 408.77C144.55 406.37 146.43 409.19 146.92 411.77C147.41 414.35 148.57 417.12 153.84 417.25C160 417.38 162.51 417.14 161 415.63Z" fill="#263238"/>
<path d="M143.92 400.72C143.62 398.31 143.53 394.13 143.53 394.13L153.53 395.24C153.53 395.24 152.32 400 153.32 403.57C148.29 402.25 143.92 400.72 143.92 400.72Z" fill="#263238"/>
<path d="M120.19 415.63C119.249 414.87 118.179 414.288 117.03 413.91C117.03 413.91 113.59 410.49 111.93 400.21L107.42 399C106.654 398.814 105.849 398.868 105.115 399.157C104.382 399.445 103.755 399.952 103.32 400.61C103.194 400.791 103.096 400.99 103.03 401.2C102.8 402.302 102.64 403.418 102.55 404.54C102.302 408.299 102.282 412.069 102.49 415.83H103.3L103.63 408.74C103.75 406.34 105.63 409.16 106.12 411.74C106.61 414.32 107.76 417.09 113.04 417.22C119.19 417.38 121.75 417.14 120.19 415.63Z" fill="#263238"/>
<path d="M103.16 400.72C102.87 398.31 102.77 394.13 102.77 394.13L112.77 395.24C112.77 395.24 111.56 400 112.56 403.57C107.53 402.25 103.16 400.72 103.16 400.72Z" fill="#263238"/>
<path d="M155.52 180.75C155.38 181.33 155.02 181.75 154.72 181.66C154.42 181.57 154.29 181.06 154.43 180.48C154.57 179.9 154.94 179.48 155.24 179.56C155.54 179.64 155.67 180.17 155.52 180.75Z" fill="#263238"/>
<path d="M155.11 179.56L156.21 179.3C156.21 179.3 155.46 180.25 155.11 179.56Z" fill="#263238"/>
<path d="M153.78 181.89C153.934 183.118 154.233 184.323 154.67 185.48C154.363 185.685 154.005 185.801 153.636 185.815C153.267 185.829 152.902 185.741 152.58 185.56L153.78 181.89Z" fill="#D58745"/>
<path d="M136.55 186.45C136.601 186.536 136.661 186.617 136.73 186.69C137.539 187.882 138.575 188.901 139.78 189.69C143.35 191.9 146.17 192.27 148.5 191.11C151.81 189.31 154 184.85 155.57 179.11C156.272 176.844 156.609 174.482 156.57 172.11C156.57 172.11 156.57 172.03 156.57 172.01C156.57 171.99 156.57 171.82 156.57 171.74C156.504 170.394 156.104 169.086 155.405 167.934C154.707 166.781 153.733 165.821 152.57 165.14C151.559 164.527 150.486 164.021 149.37 163.63C138.44 159.86 130.29 177.33 136.55 186.45Z" fill="#EBB376"/>
<path opacity="0.2" d="M136.73 186.69C137.559 187.852 138.613 188.835 139.83 189.58C143.4 191.79 146.27 192.03 148.6 190.84C146.09 190.63 143.718 189.6 141.85 187.91C141.145 187.331 140.318 186.92 139.431 186.709C138.544 186.497 137.62 186.491 136.73 186.69Z" fill="black"/>
<path d="M132.25 196.21C130.51 199.1 134.12 201.74 134.12 201.74C141.68 201.17 144.12 198.07 144.12 198.07C139.58 193.32 143.95 185.73 143.95 185.73L142.64 185.9L134.24 184.77C134.24 184.77 135 189.7 134.96 190.77C134.73 196.28 132.25 196.21 132.25 196.21Z" fill="#EBB376"/>
<path d="M156.62 172.11C156.62 172.11 154.62 180 146.2 180.82C146.2 180.82 140.36 187.74 135.72 186.28C129.39 184.28 126.9 173.49 132.17 165.14C139 154.31 157.19 159.43 156.62 172.11Z" fill="#263238"/>
<path d="M150.64 179.87C151.04 178.67 150.77 176.33 148.81 175.97C146.85 175.61 144.1 179.97 148.48 182.66C149.1 183 149.79 182.37 150.64 179.87Z" fill="#EBB376"/>
<path d="M146 159.39C146 159.39 154 160.04 157 164.39C160.56 169.39 161.15 173.61 153.66 177.23C153.66 177.23 142.72 169.05 138.34 168.51C135.784 168.179 133.205 168.062 130.63 168.16C132.56 159.71 142.49 156.34 146 159.39Z" fill="#263238"/>
<path d="M137.66 163.83C137.66 163.83 133.06 155.26 126.08 156.92C119.1 158.58 118.19 164.54 118.57 170.39C118.95 176.24 117.8 187 113.2 189C113.2 189 117.52 191.87 122.14 186.89C126.76 181.91 127.54 165.34 135.21 168.16L137.66 163.83Z" fill="#263238"/>
<path d="M156.09 177.45C156.048 177.453 156.006 177.447 155.967 177.434C155.927 177.42 155.891 177.398 155.86 177.37C155.529 177.055 155.132 176.818 154.698 176.676C154.263 176.535 153.803 176.491 153.35 176.55C153.256 176.569 153.159 176.551 153.077 176.501C152.996 176.451 152.936 176.372 152.91 176.28C152.888 176.187 152.903 176.09 152.952 176.008C153 175.926 153.078 175.866 153.17 175.84C153.737 175.757 154.314 175.804 154.86 175.977C155.406 176.151 155.905 176.446 156.32 176.84C156.393 176.902 156.438 176.99 156.448 177.085C156.457 177.18 156.429 177.275 156.37 177.35C156.333 177.385 156.289 177.412 156.241 177.429C156.192 177.447 156.141 177.454 156.09 177.45Z" fill="#263238"/>
<path d="M161.07 242.18L131.17 245.08C129.78 223.72 119.26 204.87 119.26 204.87C119.26 204.87 117.85 200.02 131.78 196.22C145.71 192.42 154.95 195.54 154.95 195.54C157.95 199.54 159.6 205.62 160.54 212.07C160.91 214.56 161.17 217.07 161.34 219.6C161.792 227.123 161.702 234.67 161.07 242.18Z" fill="#6AFFAE"/>
<path d="M162.22 244.11L161.63 238.22L130 241.4L130.66 246.02C118.74 267.12 121.66 291.19 121.66 291.19L120.16 303C120.16 303 123.16 304.85 143.21 306.16C160.84 307.31 165.32 305.48 165.32 305.48C171.56 268.89 166.2 251.45 162.22 244.11Z" fill="#263238"/>
<path d="M148.53 244.52L162.77 243.39L162.58 239.08L148.22 240.58L148.53 244.52Z" fill="#263238"/>
<path d="M134.28 245.65L147.5 244.6L147.19 240.69L133.99 242.07L134.28 245.65Z" fill="#263238"/>
<path d="M132.96 242.18L129.6 242.53L130.03 245.98L133.25 245.73L132.96 242.18Z" fill="#263238"/>
<g opacity="0.3">
<path d="M148.53 244.52L162.77 243.39L162.58 239.08L148.22 240.58L148.53 244.52Z" fill="white"/>
<path d="M134.28 245.65L147.5 244.6L147.19 240.69L133.99 242.07L134.28 245.65Z" fill="white"/>
<path d="M132.96 242.18L129.6 242.53L130.03 245.98L133.25 245.73L132.96 242.18Z" fill="white"/>
</g>
<path d="M155 195.54C155 195.54 149.53 195.02 150 201.74C150.25 205.47 153.31 212.82 156.68 213.48C158.68 213.87 159.61 210.69 159.61 210.69C159.61 210.69 168.93 221.06 173.61 219.69C178.29 218.32 171.9 198.56 171.9 198.56L168.24 198.96C168.24 198.96 170.84 209.24 170.05 210.03C169.26 210.82 157.49 196.14 155 195.54Z" fill="#EBB376"/>
<path opacity="0.2" d="M161.34 219.6C157.67 216.95 154.67 206.89 154.67 206.89L159.56 210.69C159.56 210.69 159.97 211.24 160.56 212.07C160.91 214.56 161.17 217.1 161.34 219.6Z" fill="black"/>
</svg>
