<svg width="500" height="500" viewBox="0 0 500 500" fill="none" xmlns="http://www.w3.org/2000/svg">
<path d="M313.13 109.59C302.45 96.71 289.65 86.71 268.5 85.16C230.82 82.4 210.64 115.63 183.3 135.05C149.2 159.27 104.54 153.35 72.9 182.28C38.34 213.88 50.19 243.5 73.9 260.28C97.61 277.06 102.53 303.73 119.32 337.28C136.11 370.83 176.59 403.43 210.16 406.39C232.26 408.34 255.03 398.34 275.16 390.39C307.57 377.64 340.38 371.18 373.76 362.15C401.28 354.7 430.11 342.32 442.23 314.53C459.01 276.02 446.18 221.71 417.54 198.02C388.9 174.33 364.22 171.36 344.47 150.62C332.09 137.73 323.64 122.26 313.13 109.59Z" fill="#6AFFAE"/>
<path opacity="0.7" d="M313.13 109.59C302.45 96.71 289.65 86.71 268.5 85.16C230.82 82.4 210.64 115.63 183.3 135.05C149.2 159.27 104.54 153.35 72.9 182.28C38.34 213.88 50.19 243.5 73.9 260.28C97.61 277.06 102.53 303.73 119.32 337.28C136.11 370.83 176.59 403.43 210.16 406.39C232.26 408.34 255.03 398.34 275.16 390.39C307.57 377.64 340.38 371.18 373.76 362.15C401.28 354.7 430.11 342.32 442.23 314.53C459.01 276.02 446.18 221.71 417.54 198.02C388.9 174.33 364.22 171.36 344.47 150.62C332.09 137.73 323.64 122.26 313.13 109.59Z" fill="white"/>
<path d="M98.0901 300.2L85.4901 290.87C82.2756 288.492 79.2652 285.849 76.4901 282.97C74.2985 280.756 72.2352 278.419 70.3101 275.97L68.3101 273.1L86.7501 265.2C86.7501 265.2 87.5601 289 98.0901 300.2Z" fill="#263238"/>
<path d="M71.0898 263.57C71.0898 263.57 75.0898 284.31 103.68 304.57C132.27 324.83 275.48 410.71 283.38 413.18C291.28 415.65 295.22 413.18 298.68 410.71C302.14 408.24 433.45 299.12 433.45 299.12C433.45 299.12 374.21 269 329.29 242.84C284.37 216.68 251.78 198.41 242.4 190C233.02 181.59 222.16 173.22 222.16 173.22C222.16 173.22 146.63 223.57 119.47 237.89C92.3098 252.21 71.0898 263.57 71.0898 263.57Z" fill="#6AFFAE" stroke="#263238" stroke-linecap="round" stroke-linejoin="round"/>
<path d="M174.6 236.62L227.78 200.56" stroke="white" stroke-linecap="round" stroke-linejoin="round"/>
<path d="M122.93 271.66L168.6 240.69" stroke="white" stroke-linecap="round" stroke-linejoin="round"/>
<path d="M163.92 263.63L241.81 210.82" stroke="white" stroke-linecap="round" stroke-linejoin="round"/>
<path d="M136.95 281.92L155.93 269.05" stroke="white" stroke-linecap="round" stroke-linejoin="round"/>
<path d="M150.98 292.17L255.83 221.07" stroke="white" stroke-linecap="round" stroke-linejoin="round"/>
<path d="M178.19 293.48L269.86 231.33" stroke="white" stroke-linecap="round" stroke-linejoin="round"/>
<path d="M165 302.43L173.37 296.75" stroke="white" stroke-linecap="round" stroke-linejoin="round"/>
<path d="M179.03 312.68L283.88 241.58" stroke="white" stroke-linecap="round" stroke-linejoin="round"/>
<path d="M193.05 322.94L297.9 251.84" stroke="white" stroke-linecap="round" stroke-linejoin="round"/>
<path d="M259.72 297.49L311.93 262.09" stroke="white" stroke-linecap="round" stroke-linejoin="round"/>
<path d="M207.08 333.19L251.97 302.75" stroke="white" stroke-linecap="round" stroke-linejoin="round"/>
<path d="M289.14 297.31L325.95 272.34" stroke="white" stroke-linecap="round" stroke-linejoin="round"/>
<path d="M248.23 325.05L283.14 301.38" stroke="white" stroke-linecap="round" stroke-linejoin="round"/>
<path d="M221.1 343.44L242.23 329.12" stroke="white" stroke-linecap="round" stroke-linejoin="round"/>
<path d="M332.42 287.73L339.98 282.6" stroke="white" stroke-linecap="round" stroke-linejoin="round"/>
<path d="M235.13 353.7L325.95 292.11" stroke="white" stroke-linecap="round" stroke-linejoin="round"/>
<path d="M262.25 355.07L354 292.85" stroke="white" stroke-linecap="round" stroke-linejoin="round"/>
<path d="M249.15 363.95L256.73 358.82" stroke="white" stroke-linecap="round" stroke-linejoin="round"/>
<path d="M282.39 379.59C280.939 380.899 279.789 382.508 279.02 384.306C278.252 386.103 277.883 388.046 277.94 390C277.94 396.92 285.84 400.87 289.3 399.88C292.76 398.89 303.62 386.55 303.62 386.55C303.62 386.55 300.62 377.17 294.73 376.68C288.84 376.19 282.39 379.59 282.39 379.59Z" fill="#263238" stroke="#263238" stroke-linecap="round" stroke-linejoin="round"/>
<path d="M289.84 414.25C289.84 414.25 298.19 411.18 299.17 404.25C300.15 397.32 294.73 387.47 290.29 384.01C287.937 382.079 285.263 380.576 282.39 379.57C282.39 379.57 351.01 333.16 368.78 317.36C386.55 301.56 419.63 276.88 419.63 276.88C419.63 276.88 426.54 273.43 431.97 276.88C437.4 280.33 440.97 283.81 441.35 291.69C441.58 296.16 432.47 302.55 432.47 302.55L309.05 404.77C309.05 404.77 294.34 414.93 289.84 414.25Z" fill="white"/>
<mask id="mask0_72_10" style="mask-type:luminance" maskUnits="userSpaceOnUse" x="282" y="275" width="160" height="140">
<path d="M289.84 414.25C289.84 414.25 298.19 411.18 299.17 404.25C300.15 397.32 294.73 387.47 290.29 384.01C287.937 382.079 285.263 380.576 282.39 379.57C282.39 379.57 351.01 333.16 368.78 317.36C386.55 301.56 419.63 276.88 419.63 276.88C419.63 276.88 426.54 273.43 431.97 276.88C437.4 280.33 440.97 283.81 441.35 291.69C441.58 296.16 432.47 302.55 432.47 302.55L309.05 404.77C309.05 404.77 294.34 414.93 289.84 414.25Z" fill="white"/>
</mask>
<g mask="url(#mask0_72_10)">
<path d="M441.35 291.71C441.299 290.554 441.155 289.403 440.92 288.27C437 291.67 429.92 297.66 417 308.17C390.34 329.89 369.11 345.69 369.11 345.69C369.11 345.69 392.31 328.41 383.92 332.36C375.53 336.31 357.26 352.11 341 365.44C330.68 373.88 312.45 390.83 299.2 404.27C298.2 411.18 289.87 414.27 289.87 414.27C294.37 414.95 309.08 404.79 309.08 404.79L432.5 302.59C432.5 302.59 441.58 296.18 441.35 291.71Z" fill="#6AFFAE"/>
<path opacity="0.5" d="M441.35 291.71C441.299 290.554 441.155 289.403 440.92 288.27C437 291.67 429.92 297.66 417 308.17C390.34 329.89 369.11 345.69 369.11 345.69C369.11 345.69 392.31 328.41 383.92 332.36C375.53 336.31 357.26 352.11 341 365.44C330.68 373.88 312.45 390.83 299.2 404.27C298.2 411.18 289.87 414.27 289.87 414.27C294.37 414.95 309.08 404.79 309.08 404.79L432.5 302.59C432.5 302.59 441.58 296.18 441.35 291.71Z" fill="white"/>
</g>
<path d="M289.84 414.25C289.84 414.25 298.19 411.18 299.17 404.25C300.15 397.32 294.73 387.47 290.29 384.01C287.937 382.079 285.263 380.576 282.39 379.57C282.39 379.57 351.01 333.16 368.78 317.36C386.55 301.56 419.63 276.88 419.63 276.88C419.63 276.88 426.54 273.43 431.97 276.88C437.4 280.33 440.97 283.81 441.35 291.69C441.58 296.16 432.47 302.55 432.47 302.55L309.05 404.77C309.05 404.77 294.34 414.93 289.84 414.25Z" stroke="#263238" stroke-linecap="round" stroke-linejoin="round"/>
<path d="M343.57 153.09C343.57 153.09 348.38 149.4 349.64 147C350.71 145 351.5 142.07 350.46 139.86C350.232 139.334 349.895 138.861 349.472 138.473C349.049 138.085 348.549 137.791 348.005 137.609C347.461 137.427 346.885 137.361 346.313 137.417C345.742 137.472 345.189 137.647 344.69 137.93C341.74 139.71 341.34 145.93 342.04 148.93C342.1 149.18 343.52 153.13 343.57 153.09Z" fill="#263238"/>
<path d="M299.1 183.8C299.3 183.98 302.66 186.49 302.68 186.43C302.7 186.37 304.68 180.69 304.38 178.01C304.15 175.71 303.21 172.86 301.13 171.6C300.65 171.284 300.109 171.074 299.543 170.981C298.976 170.889 298.396 170.918 297.841 171.065C297.286 171.212 296.768 171.475 296.322 171.836C295.875 172.197 295.51 172.648 295.25 173.16C293.77 176.28 296.86 181.68 299.1 183.8Z" fill="#263238"/>
<path d="M399.24 159.58C399.24 159.58 381.55 177.32 381.33 199.43C381.11 221.54 398.45 239.62 398.45 239.62C398.45 239.62 416.14 221.87 416.35 199.77C416.56 177.67 399.24 159.58 399.24 159.58Z" fill="#263238"/>
<path d="M373.63 212.56C373.865 212.315 374.079 212.05 374.27 211.77C375.57 209.87 376.69 207.08 375.91 204.77C375.744 204.221 375.464 203.713 375.088 203.279C374.713 202.845 374.25 202.495 373.73 202.252C373.211 202.008 372.646 201.877 372.072 201.867C371.498 201.856 370.929 201.966 370.4 202.19C368.02 203.27 366.81 207.05 366.51 210.19C365.57 209.96 364.72 209.78 363.99 209.65L363.08 207.51C362.74 206.77 362.52 206.03 362.22 205.28C361.82 204.17 361.46 203 361.1 201.84C362.49 201.25 366.53 199.42 368.05 197.79C369.57 196.16 371.15 193.52 370.73 191.12C370.649 190.552 370.45 190.008 370.145 189.522C369.84 189.036 369.437 188.62 368.96 188.3C368.484 187.98 367.946 187.764 367.381 187.666C366.816 187.568 366.236 187.59 365.68 187.73C362.36 188.67 360.33 194.55 360.22 197.64C360.22 197.74 360.22 198.39 360.31 199.16C360 198.02 359.68 196.88 359.39 195.71C358.59 192.39 357.87 188.98 357.14 185.56C356.99 184.85 356.83 184.15 356.67 183.44C357.84 182.94 362.24 181.01 363.83 179.29C365.42 177.57 366.93 175.03 366.5 172.62C366.42 172.057 366.223 171.517 365.922 171.034C365.62 170.552 365.221 170.137 364.751 169.818C364.28 169.499 363.747 169.282 363.188 169.18C362.628 169.079 362.053 169.096 361.5 169.23C358.18 170.17 356.15 176.06 356.03 179.14C356.03 179.25 356.08 180.03 356.15 180.9C355.73 179.05 355.28 177.22 354.78 175.41C353.945 172.3 352.903 169.25 351.66 166.28C352.07 166.11 357.27 163.94 359.04 162.04C360.61 160.35 362.14 157.77 361.72 155.37C361.639 154.802 361.44 154.258 361.135 153.772C360.83 153.286 360.427 152.87 359.95 152.55C359.474 152.23 358.936 152.014 358.371 151.916C357.806 151.818 357.226 151.84 356.67 151.98C353.35 152.92 351.32 158.8 351.2 161.89C351.2 162.1 351.41 164.89 351.52 165.89C351.523 165.853 351.523 165.817 351.52 165.78C350.225 162.897 348.679 160.133 346.9 157.52C345.314 155.179 343.595 152.932 341.75 150.79C340.06 148.79 338.39 147.06 336.9 145.54C336.09 144.72 335.33 143.99 334.62 143.32H334.69C334.75 143.32 333.13 139.45 333 139.21C331.49 136.52 327 132.21 323.61 132.9C323.052 133.029 322.527 133.275 322.07 133.621C321.614 133.966 321.235 134.404 320.958 134.906C320.682 135.408 320.514 135.963 320.466 136.534C320.418 137.104 320.491 137.679 320.68 138.22C321.4 140.55 323.94 142.15 326.1 142.93C328.26 143.71 333.2 143.43 334.41 143.34C335.14 144.06 335.91 144.83 336.74 145.7C338.2 147.25 339.82 149.01 341.46 151.04C341.9 151.58 342.35 152.18 342.79 152.76C341.84 151.95 340.52 150.86 340.38 150.76C337.8 149.07 331.83 147.32 329.14 149.49C328.704 149.862 328.351 150.322 328.103 150.84C327.856 151.357 327.721 151.921 327.706 152.494C327.691 153.068 327.796 153.638 328.016 154.168C328.235 154.698 328.564 155.175 328.98 155.57C330.7 157.3 333.69 157.57 335.98 157.24C338.27 156.91 342.65 154.33 343.58 153.75C344.58 155.04 345.51 156.38 346.44 157.84C348.145 160.458 349.614 163.222 350.83 166.1C350.9 166.26 350.95 166.44 351.01 166.61C350.61 166.13 348.22 163.61 348.01 163.49C345.63 161.49 339.88 159.13 337.01 160.99C336.541 161.314 336.145 161.732 335.846 162.217C335.548 162.702 335.354 163.245 335.277 163.809C335.2 164.374 335.241 164.948 335.398 165.496C335.556 166.043 335.825 166.552 336.19 166.99C337.71 168.9 340.65 169.47 342.95 169.42C345.61 169.36 350.87 166.8 351.07 166.7C352.197 169.604 353.138 172.577 353.89 175.6C354.45 177.83 354.89 180.12 355.39 182.42C354.86 181.81 352.64 179.5 352.46 179.35C350.08 177.35 344.33 174.99 341.46 176.85C340.99 177.173 340.592 177.59 340.293 178.075C339.994 178.561 339.799 179.103 339.722 179.668C339.645 180.233 339.687 180.808 339.845 181.356C340.003 181.904 340.274 182.413 340.64 182.85C342.16 184.76 345.1 185.34 347.4 185.29C349.99 185.23 355.05 182.8 355.47 182.59C355.68 183.64 355.89 184.68 356.09 185.73C356.75 189.15 357.39 192.58 358.09 195.95C358.35 197.12 358.64 198.26 358.93 199.41C358.1 198.51 356.55 196.91 356.4 196.79C354.03 194.79 348.28 192.42 345.4 194.28C344.931 194.604 344.535 195.022 344.236 195.507C343.938 195.992 343.744 196.535 343.667 197.099C343.59 197.664 343.631 198.238 343.788 198.786C343.946 199.333 344.215 199.842 344.58 200.28C346.09 202.19 349.04 202.76 351.34 202.71C353.64 202.66 357.95 200.71 359.15 200.14C359.65 202.04 360.15 203.91 360.8 205.73C361.08 206.51 361.32 207.33 361.63 208.06C361.79 208.45 361.94 208.84 362.1 209.22L361.43 209.15C361.43 209.15 361.37 210.23 361.43 211.99C358.92 210.14 355.28 208.53 352.89 209.59C352.372 209.836 351.912 210.189 351.539 210.625C351.167 211.061 350.89 211.57 350.727 212.12C350.563 212.669 350.518 213.247 350.592 213.816C350.667 214.385 350.861 214.931 351.16 215.42C351.31 215.685 351.488 215.933 351.69 216.16C352.094 218.843 353.187 221.375 354.86 223.51C354.99 223.67 356.69 225.28 357.58 226.09C356.72 225.6 355.86 225.09 354.97 224.61C353.68 223.87 352.35 223.05 351.05 222.27L349 221C348.32 220.57 347.71 220.08 347.06 219.61C346.11 218.91 345.17 218.14 344.23 217.37C345.05 216.1 347.42 212.37 347.79 210.15C348.16 207.93 348.02 204.88 346.34 203.15C345.957 202.724 345.488 202.383 344.964 202.15C344.44 201.917 343.873 201.796 343.3 201.796C342.727 201.796 342.16 201.917 341.636 202.15C341.113 202.383 340.644 202.724 340.26 203.15C338 205.76 339.56 211.79 341.17 214.43C341.22 214.51 341.61 215.03 342.09 215.65C341.2 214.87 340.3 214.09 339.42 213.27C336.91 210.94 334.42 208.5 331.94 206.05L330.38 204.54C331.08 203.48 333.68 199.44 334.06 197.14C334.44 194.84 334.29 191.87 332.61 190.14C332.227 189.712 331.759 189.37 331.235 189.136C330.711 188.902 330.144 188.781 329.57 188.781C328.996 188.781 328.429 188.902 327.905 189.136C327.381 189.37 326.913 189.712 326.53 190.14C324.28 192.76 325.83 198.79 327.44 201.42C327.5 201.51 327.97 202.13 328.51 202.82C327.14 201.52 325.75 200.23 324.34 199C321.924 196.865 319.369 194.894 316.69 193.1C316.95 192.73 320.09 188.1 320.52 185.5C320.89 183.23 320.74 180.23 319.07 178.5C318.69 178.071 318.224 177.726 317.702 177.489C317.181 177.251 316.615 177.126 316.041 177.121C315.468 177.116 314.9 177.232 314.374 177.461C313.849 177.69 313.377 178.027 312.99 178.45C310.73 181.07 312.29 187.1 313.89 189.73C314.01 189.92 315.75 192.15 316.39 192.93L316.3 192.86C313.626 191.169 310.809 189.717 307.88 188.52C305.27 187.441 302.599 186.516 299.88 185.75C297.36 185.01 295.02 184.49 292.94 184.04C291.81 183.81 290.77 183.62 289.8 183.45H289.86C289.91 183.45 286.42 181.08 286.19 180.96C283.45 179.55 277.32 178.44 274.87 180.87C274.476 181.287 274.174 181.783 273.984 182.325C273.794 182.866 273.719 183.442 273.765 184.014C273.811 184.586 273.977 185.142 274.252 185.646C274.527 186.15 274.904 186.591 275.36 186.94C277.25 188.48 280.25 188.41 282.49 187.87C284.73 187.33 288.68 184.37 289.64 183.63C290.64 183.82 291.71 184.04 292.89 184.31C294.95 184.8 297.28 185.37 299.77 186.16C300.43 186.37 301.14 186.62 301.83 186.85C300.59 186.7 298.88 186.52 298.71 186.52C295.63 186.52 289.71 188.37 288.63 191.66C288.473 192.212 288.434 192.791 288.514 193.359C288.595 193.927 288.794 194.472 289.098 194.958C289.403 195.444 289.806 195.861 290.282 196.182C290.757 196.503 291.295 196.72 291.86 196.82C294.24 197.32 296.86 195.82 298.61 194.36C300.36 192.9 302.61 188.25 303.02 187.26C304.54 187.8 306.08 188.38 307.66 189.09C310.526 190.332 313.277 191.824 315.88 193.55C316.03 193.66 316.17 193.78 316.32 193.88C315.72 193.7 312.32 192.95 312.11 192.88C309.05 192.56 302.93 193.73 301.53 196.88C301.312 197.411 301.209 197.981 301.226 198.555C301.243 199.128 301.38 199.691 301.629 200.208C301.878 200.725 302.233 201.184 302.671 201.554C303.109 201.925 303.619 202.2 304.17 202.36C306.49 203.12 309.26 201.97 311.17 200.66C313.35 199.15 316.33 194.11 316.44 193.92C318.985 195.713 321.411 197.67 323.7 199.78C325.41 201.33 327.07 202.98 328.7 204.64C327.91 204.42 324.79 203.73 324.56 203.7C321.49 203.37 315.38 204.54 313.97 207.7C313.752 208.231 313.649 208.801 313.666 209.375C313.683 209.948 313.82 210.511 314.069 211.028C314.318 211.545 314.673 212.004 315.111 212.374C315.549 212.745 316.059 213.02 316.61 213.18C318.93 213.94 321.7 212.79 323.61 211.48C325.73 210 328.61 205.19 328.85 204.78C329.6 205.54 330.35 206.29 331.09 207.05C333.53 209.54 335.96 212.05 338.44 214.46C339.29 215.29 340.17 216.08 341.04 216.87C339.85 216.58 337.68 216.1 337.49 216.08C334.42 215.75 328.31 216.92 326.91 220.08C326.692 220.61 326.588 221.18 326.604 221.753C326.621 222.326 326.757 222.889 327.005 223.405C327.253 223.922 327.607 224.381 328.044 224.752C328.48 225.123 328.99 225.398 329.54 225.56C331.86 226.32 334.64 225.17 336.54 223.86C338.44 222.55 340.94 218.54 341.63 217.41C343.09 218.72 344.57 219.99 346.09 221.16C346.75 221.66 347.4 222.16 348.09 222.64L350.09 224C351.46 224.87 352.74 225.69 354.09 226.48C354.74 226.88 355.37 227.24 356.01 227.62C354.84 227.15 353.01 226.43 352.82 226.39C349.82 225.6 343.61 225.83 341.75 228.73C341.454 229.222 341.264 229.77 341.194 230.34C341.124 230.91 341.174 231.488 341.342 232.037C341.51 232.586 341.792 233.093 342.169 233.526C342.546 233.959 343.01 234.308 343.53 234.55C345.7 235.65 348.62 234.94 350.69 233.93C352.97 232.81 356.44 228.64 356.86 228.13C358.43 229.05 359.97 229.94 361.42 230.74C365.31 232.89 368.7 234.61 371.33 235.89C379.83 243.46 391.94 244.45 391.94 244.45C391.94 244.45 392.78 229.94 384.37 220.27C381.41 216.931 377.74 214.297 373.63 212.56ZM358.06 226.49C358.34 225.9 360.46 221.32 360.64 218.72C361.12 218.64 361.64 218.54 362.07 218.44C362.88 223.04 364.641 227.42 367.24 231.3C365.68 230.527 364.013 229.673 362.24 228.74C360.88 228.05 359.49 227.29 358.06 226.49Z" fill="#263238"/>
<path d="M437.16 210.68C437.16 210.68 422.64 210.92 413.62 220.03C404.6 229.14 404.51 243.66 404.51 243.66C404.51 243.66 419.03 243.42 428.05 234.31C437.07 225.2 437.16 210.68 437.16 210.68Z" fill="#263238"/>
<path d="M399.11 219.5L413.55 206.88L412.95 206.19L399.12 218.27L399.28 201.47L399.36 201.52L411.67 184.05L410.92 183.53L399.3 200.02L399.69 159.58L398.78 159.57L398.51 187.02L389.54 179.03L388.93 179.71L398.5 188.23L398.3 207.85L384.71 195.48L384.1 196.16L398.29 209.08L398.12 226.95L387.89 218.69L387.31 219.4L398.11 228.11L397.99 239.62H398.91L399.11 219.49V219.5Z" fill="white"/>
<path d="M385.9 224.26L384.99 224.14L383.7 234.28L377.67 227.35H377.68L376.3 215.04L375.4 215.14L376.63 226.15L361.65 208.92L360.96 209.52L371.12 221.21L364.58 221.2V222.11L371.92 222.13L379.05 230.32L368.82 230.19L368.81 231.11L379.85 231.25L386.33 238.7L379.11 239.04L379.15 239.95L387.1 239.58L391.41 244.55L392.1 243.95L384.5 235.21L385.9 224.26Z" fill="white"/>
<path d="M420.31 228.37L432.48 226.07L432.31 225.17L421.42 227.22L437.49 211L436.84 210.36L425.94 221.37L425.46 214.84L424.55 214.91L425.08 222.23L417.44 229.95L416.81 219.74L415.9 219.8L416.58 230.82L409.63 237.84L408.76 230.66L407.85 230.77L408.81 238.66L404.18 243.34L404.83 243.98L412.98 235.75L424 236.33L424.05 235.41L413.84 234.88L420.3 228.35L420.31 228.37Z" fill="white"/>
<path d="M139.61 155.84C139.61 155.84 135.89 153.84 134.76 152.37C133.76 151.09 132.92 149.2 133.38 147.57C133.474 147.183 133.649 146.82 133.892 146.505C134.136 146.19 134.443 145.93 134.794 145.741C135.145 145.553 135.532 145.44 135.929 145.41C136.326 145.381 136.725 145.435 137.1 145.57C139.33 146.45 140.32 150.66 140.18 152.8C140.17 153 139.65 155.86 139.61 155.84Z" fill="#263238"/>
<path d="M173.57 171.75C173.46 171.9 171.45 174 171.43 173.97C171.41 173.94 169.43 170.27 169.3 168.39C169.19 166.8 169.51 164.74 170.79 163.63C171.082 163.36 171.428 163.154 171.806 163.027C172.183 162.899 172.583 162.853 172.979 162.891C173.376 162.929 173.76 163.049 174.106 163.246C174.453 163.442 174.754 163.709 174.99 164.03C176.36 166 174.87 170.05 173.57 171.75Z" fill="#263238"/>
<path d="M102.25 166.66C102.25 166.66 116.39 176.78 119.08 191.89C121.77 207 112 221.37 112 221.37C112 221.37 97.8597 211.25 95.1697 196.14C92.4797 181.03 102.25 166.66 102.25 166.66Z" fill="#263238"/>
<path d="M125.86 200C125.668 199.861 125.491 199.704 125.33 199.53C124.22 198.38 123.13 196.6 123.4 194.93C123.449 194.535 123.582 194.155 123.788 193.814C123.995 193.474 124.271 193.181 124.598 192.954C124.926 192.727 125.297 192.573 125.689 192.5C126.08 192.426 126.483 192.437 126.87 192.53C128.63 193 129.87 195.44 130.45 197.53C131.07 197.27 131.63 197.05 132.11 196.87L132.5 195.3C132.64 194.76 132.71 194.22 132.82 193.68C132.97 192.87 133.08 192.03 133.2 191.2C132.2 190.95 129.2 190.2 127.98 189.2C126.76 188.2 125.37 186.63 125.38 184.94C125.369 184.542 125.441 184.147 125.593 183.779C125.745 183.412 125.973 183.08 126.262 182.806C126.551 182.533 126.894 182.323 127.269 182.191C127.644 182.059 128.043 182.007 128.44 182.04C130.83 182.3 132.89 186.1 133.32 188.19C133.32 188.26 133.38 188.71 133.43 189.25C133.52 188.43 133.6 187.61 133.66 186.78C133.83 184.41 133.93 182 134.04 179.58C134.04 179.07 134.09 178.58 134.12 178.07C133.26 177.86 130.03 177.07 128.74 176.07C127.45 175.07 126.13 173.51 126.15 171.81C126.139 171.412 126.211 171.017 126.363 170.649C126.515 170.282 126.743 169.95 127.032 169.676C127.321 169.403 127.664 169.193 128.039 169.061C128.414 168.929 128.813 168.878 129.21 168.91C131.59 169.17 133.66 172.97 134.09 175.07C134.09 175.14 134.16 175.68 134.21 176.29C134.29 174.97 134.38 173.66 134.52 172.37C134.734 170.145 135.099 167.936 135.61 165.76C135.31 165.69 131.5 164.81 130.07 163.76C128.8 162.76 127.46 161.19 127.47 159.5C127.458 159.101 127.532 158.705 127.684 158.337C127.837 157.968 128.065 157.636 128.355 157.362C128.645 157.089 128.99 156.879 129.366 156.748C129.743 156.616 130.143 156.566 130.54 156.6C132.92 156.86 134.98 160.6 135.41 162.75C135.41 162.9 135.62 164.86 135.66 165.56C135.66 165.56 135.66 165.56 135.66 165.48C136.212 163.354 136.955 161.282 137.88 159.29C138.694 157.504 139.612 155.768 140.63 154.09C141.55 152.53 142.5 151.15 143.34 149.94C143.8 149.29 144.24 148.7 144.65 148.16C144.65 148.16 145.27 145.33 145.34 145.16C146.06 143.16 148.64 139.68 151.04 139.76C151.437 139.785 151.825 139.894 152.177 140.078C152.53 140.263 152.84 140.52 153.087 140.832C153.334 141.144 153.512 141.504 153.611 141.89C153.71 142.276 153.726 142.678 153.66 143.07C153.43 144.74 151.88 146.13 150.48 146.91C149.08 147.69 145.68 148.07 144.84 148.15C144.43 148.72 143.99 149.34 143.52 150.03C142.7 151.26 141.79 152.65 140.9 154.23C140.66 154.65 140.43 155.11 140.19 155.55C140.75 154.89 141.52 153.99 141.61 153.91C143.18 152.46 147.07 150.57 149.16 151.75C149.501 151.954 149.796 152.228 150.024 152.554C150.252 152.88 150.409 153.251 150.485 153.641C150.56 154.032 150.553 154.434 150.462 154.822C150.372 155.209 150.201 155.573 149.96 155.89C148.96 157.27 146.96 157.79 145.37 157.84C143.78 157.89 140.47 156.61 139.77 156.32C139.25 157.32 138.77 158.32 138.28 159.45C137.414 161.439 136.725 163.5 136.22 165.61L136.16 165.98C136.38 165.6 137.73 163.63 137.84 163.5C139.24 161.89 142.9 159.58 145.1 160.5C145.458 160.666 145.777 160.905 146.037 161.202C146.297 161.498 146.493 161.846 146.612 162.222C146.73 162.599 146.769 162.995 146.726 163.388C146.682 163.78 146.558 164.159 146.36 164.5C145.54 165.99 143.59 166.72 142.01 166.95C140.18 167.21 136.29 166.06 136.14 166.02C135.7 168.135 135.396 170.276 135.23 172.43C135.1 174.03 135.03 175.65 134.98 177.27C135.28 176.79 136.54 174.96 136.64 174.84C138.04 173.22 141.7 170.92 143.91 171.84C144.268 172.006 144.587 172.245 144.847 172.542C145.107 172.839 145.303 173.187 145.42 173.563C145.538 173.94 145.576 174.337 145.531 174.729C145.486 175.121 145.36 175.5 145.16 175.84C144.34 177.32 142.39 178.05 140.81 178.28C139.03 178.54 135.29 177.45 134.98 177.36C134.98 178.1 134.98 178.84 134.91 179.58C134.91 182 134.81 184.42 134.69 186.81C134.69 187.64 134.58 188.45 134.51 189.27C134.98 188.56 135.85 187.27 135.94 187.19C137.34 185.57 141 183.27 143.21 184.19C143.568 184.356 143.887 184.595 144.147 184.892C144.407 185.189 144.603 185.537 144.72 185.913C144.838 186.29 144.876 186.687 144.831 187.079C144.786 187.471 144.66 187.85 144.46 188.19C143.64 189.67 141.69 190.4 140.11 190.63C138.53 190.86 135.36 190.02 134.47 189.77C134.35 191.12 134.2 192.47 133.99 193.77C133.88 194.33 133.81 194.91 133.68 195.45C133.62 195.74 133.56 196.02 133.49 196.3L133.94 196.18C133.94 196.18 134.11 196.91 134.26 198.12C135.76 196.57 138.07 195.05 139.83 195.5C140.213 195.61 140.569 195.799 140.874 196.055C141.18 196.311 141.428 196.629 141.602 196.987C141.777 197.346 141.874 197.737 141.887 198.135C141.901 198.534 141.83 198.931 141.68 199.3C141.604 199.493 141.514 199.68 141.41 199.86C141.431 201.744 140.974 203.602 140.08 205.26C140.01 205.38 139.03 206.68 138.51 207.33C139.05 206.9 139.58 206.48 140.13 206.02C140.92 205.37 141.74 204.65 142.54 204.02L143.75 202.89C144.17 202.52 144.53 202.11 144.92 201.71C145.49 201.12 146.05 200.49 146.6 199.85C145.89 199.08 143.84 196.79 143.34 195.32C142.84 193.85 142.58 191.74 143.52 190.32C143.731 189.982 144.011 189.693 144.341 189.47C144.671 189.248 145.045 189.097 145.437 189.028C145.829 188.959 146.232 188.974 146.618 189.071C147.005 189.167 147.366 189.344 147.68 189.59C149.52 191.12 149.15 195.43 148.35 197.41C148.35 197.48 148.11 197.88 147.86 198.35C148.38 197.72 148.86 197.08 149.42 196.42C150.86 194.54 152.28 192.58 153.71 190.62C154 190.21 154.31 189.81 154.6 189.4C154 188.76 151.76 186.29 151.23 184.76C150.7 183.23 150.47 181.18 151.41 179.76C151.62 179.421 151.899 179.13 152.229 178.907C152.56 178.683 152.934 178.532 153.326 178.463C153.719 178.394 154.122 178.409 154.509 178.507C154.895 178.604 155.257 178.783 155.57 179.03C157.42 180.56 157.04 184.86 156.25 186.85C156.25 186.92 155.96 187.4 155.67 187.94C156.46 186.88 157.26 185.84 158.09 184.84C159.495 183.101 161.019 181.46 162.65 179.93C162.43 179.7 159.75 176.86 159.16 175.16C158.64 173.65 158.4 171.58 159.34 170.16C159.552 169.823 159.832 169.535 160.163 169.313C160.493 169.092 160.866 168.942 161.258 168.873C161.65 168.804 162.052 168.818 162.438 168.914C162.824 169.01 163.186 169.186 163.5 169.43C165.34 170.97 164.97 175.27 164.17 177.26C164.17 177.4 163.17 179.13 162.83 179.73H162.89C164.522 178.262 166.282 176.944 168.15 175.79C169.814 174.751 171.537 173.809 173.31 172.97C174.95 172.18 176.49 171.55 177.87 170.97C178.61 170.68 179.3 170.43 179.94 170.2C179.94 170.2 182.02 168.2 182.17 168.07C183.88 166.79 187.95 165.32 189.9 166.71C190.219 166.949 190.483 167.253 190.677 167.602C190.871 167.95 190.989 168.335 191.024 168.732C191.059 169.13 191.01 169.53 190.88 169.906C190.75 170.283 190.542 170.629 190.27 170.92C189.15 172.19 187.09 172.49 185.49 172.37C183.89 172.25 180.85 170.69 180.11 170.29C179.45 170.54 178.74 170.81 177.96 171.13C176.61 171.7 175.08 172.36 173.47 173.19L172.14 173.9C172.97 173.65 174.14 173.33 174.23 173.32C176.34 172.97 180.63 173.54 181.72 175.67C181.893 176.029 181.988 176.42 182 176.818C182.012 177.216 181.939 177.612 181.787 177.98C181.635 178.348 181.407 178.68 181.118 178.954C180.829 179.228 180.486 179.438 180.11 179.57C178.53 180.19 176.56 179.5 175.2 178.67C173.84 177.84 171.79 174.94 171.36 174.31C170.36 174.86 169.36 175.43 168.36 176.1C166.539 177.276 164.829 178.615 163.25 180.1L162.98 180.37C163.37 180.18 165.59 179.28 165.75 179.23C167.81 178.66 172.13 178.76 173.46 180.76C173.67 181.098 173.807 181.476 173.862 181.871C173.916 182.265 173.887 182.667 173.775 183.049C173.664 183.431 173.473 183.786 173.215 184.089C172.958 184.392 172.639 184.638 172.28 184.81C170.78 185.6 168.75 185.13 167.28 184.45C165.62 183.66 163 180.55 162.9 180.45C161.368 181.97 159.935 183.586 158.61 185.29C157.61 186.55 156.67 187.87 155.73 189.2C156.24 188.96 158.3 188.12 158.46 188.08C160.52 187.5 164.84 187.6 166.16 189.6C166.362 189.936 166.492 190.31 166.542 190.699C166.592 191.088 166.56 191.483 166.449 191.859C166.338 192.235 166.15 192.584 165.897 192.884C165.644 193.184 165.332 193.427 164.98 193.6C163.48 194.39 161.45 193.92 159.98 193.24C158.35 192.48 155.83 189.51 155.62 189.24C155.19 189.84 154.76 190.44 154.34 191.05C152.96 193.05 151.58 195.05 150.17 196.96C149.67 197.63 149.17 198.27 148.66 198.96C149.44 198.62 150.87 198.04 151 198.01C153.06 197.43 157.38 197.53 158.7 199.53C158.911 199.867 159.048 200.245 159.103 200.639C159.158 201.033 159.13 201.434 159.019 201.816C158.909 202.198 158.719 202.553 158.463 202.857C158.206 203.161 157.888 203.407 157.53 203.58C156.03 204.37 154 203.9 152.53 203.22C151.06 202.54 148.91 200.09 148.3 199.39C147.45 200.45 146.59 201.49 145.68 202.47C145.28 202.89 144.9 203.34 144.5 203.71L143.35 205C142.51 205.76 141.73 206.47 140.93 207.15L139.75 208.15C140.49 207.69 141.68 206.99 141.75 206.94C143.75 206.05 147.99 205.5 149.6 207.27C149.859 207.573 150.052 207.927 150.166 208.309C150.279 208.691 150.311 209.092 150.259 209.488C150.207 209.883 150.073 210.263 149.864 210.603C149.656 210.942 149.379 211.235 149.05 211.46C147.68 212.46 145.61 212.31 144.05 211.85C142.36 211.35 139.51 208.85 139.16 208.59C138.16 209.41 137.24 210.19 136.34 210.91C133.93 212.82 131.8 214.39 130.15 215.57C125.15 221.72 117.02 223.79 117.02 223.79C117.02 223.79 114.78 213.96 119.43 206.37C121.075 203.796 123.271 201.621 125.86 200ZM138.12 207.75C137.008 206.212 136.11 204.53 135.45 202.75C135.12 202.75 134.78 202.75 134.45 202.75C134.428 205.99 133.727 209.189 132.39 212.14C133.39 211.44 134.39 210.66 135.54 209.82C136.36 209.14 137.23 208.46 138.12 207.75Z" fill="#263238"/>
<path d="M82.1499 206C82.1499 206 92.1499 204.5 99.3399 209.7C106.53 214.9 108.34 224.83 108.34 224.83C108.34 224.83 98.3399 226.34 91.1499 221.14C83.9599 215.94 82.1499 206 82.1499 206Z" fill="#263238"/>
<path d="M109.21 207.67L97.8798 200.69L98.2098 200.15L109.06 206.83L107.02 195.35L106.98 195.39L96.5498 184.85L96.9998 184.4L106.85 194.36L101.93 166.72L102.56 166.61L105.89 185.37L111.11 178.87L111.61 179.27L106.04 186.2L108.42 199.61L116.31 189.58L116.81 189.97L108.57 200.44L110.74 212.66L116.8 205.83L117.27 206.25L110.89 213.45L112.28 221.31L111.66 221.43L109.21 207.67Z" fill="white"/>
<path d="M118.8 209.41L119.41 209.23L121.46 216.02L124.79 210.59H124.78L124.31 202L124.94 201.97L125.36 209.65L133.64 196.13L134.18 196.46L128.57 205.63L133.04 204.87L133.15 205.5L128.13 206.35L124.19 212.78L131.17 211.52L131.28 212.14L123.74 213.51L120.16 219.35L125.14 218.75L125.22 219.38L119.74 220.04L117.35 223.94L116.81 223.6L121.01 216.75L118.8 209.41Z" fill="white"/>
<path d="M95.72 216.18L87.12 216L87.13 215.37L94.82 215.52L81.96 206.26L82.33 205.74L91.06 212.03L90.64 207.51L91.27 207.45L91.74 212.52L97.86 216.93L97.12 209.87L97.75 209.8L98.55 217.43L104.11 221.43L103.89 216.42L104.52 216.39L104.77 221.91L108.47 224.57L108.1 225.09L101.58 220.39L94.1 222.05L93.96 221.43L100.89 219.89L95.72 216.17V216.18Z" fill="white"/>
<path d="M265.79 211.62C265.79 211.62 262.42 213.93 261.99 214.24C261.56 214.55 260.72 222.24 260.72 222.61C260.72 222.98 266.72 222.5 267.82 221.34C268.92 220.18 268.98 216.57 268.98 216.57C268.84 215.563 268.482 214.598 267.931 213.743C267.38 212.888 266.65 212.164 265.79 211.62Z" fill="white" stroke="#263238" stroke-linecap="round" stroke-linejoin="round"/>
<path d="M275 175.15L274.44 200.4L265.75 211.62C265.75 211.62 269.11 214.14 268.83 216.94L278.37 211.05C278.37 211.05 278.37 185.81 277.81 179.36C277.25 172.91 275.6 172.91 275 175.15Z" fill="white" stroke="#263238" stroke-linecap="round" stroke-linejoin="round"/>
<path d="M260.18 222.83C260.18 222.83 261.86 217.51 262.18 216.66C262.5 215.81 271.18 215.82 271.18 215.82C271.359 216.557 271.457 217.312 271.47 218.07C271.47 219.19 269.47 220.31 269.47 220.31C269.505 221.009 269.37 221.706 269.078 222.341C268.785 222.977 268.344 223.532 267.79 223.96C266.218 225.169 264.51 226.189 262.7 227L259.33 225.88L260.18 222.83Z" fill="white" stroke="#263238" stroke-linecap="round" stroke-linejoin="round"/>
<path d="M265.06 212.44C265.06 212.44 263.16 212.44 262.84 212.97C262.52 213.5 263.05 218.27 263.69 218.27C264.33 218.27 265.59 218.69 265.8 217.42C266.01 216.15 266.44 212.23 265.06 212.44Z" fill="white" stroke="#263238" stroke-linecap="round" stroke-linejoin="round"/>
<path d="M217.06 348.81C217.06 348.81 214.67 354.33 215.33 356.3C215.99 358.27 217 359.53 221.5 358.03C226 356.53 236.5 348.49 236.5 346.51C236.5 344.53 223.99 347.17 223.99 347.17C223.99 347.17 223.31 349.14 217.06 348.81Z" fill="white" stroke="#263238" stroke-linecap="round" stroke-linejoin="round"/>
<path d="M189.29 330.3C189.29 330.3 188.65 335.15 189.08 335.9C189.472 336.446 189.991 336.889 190.592 337.19C191.193 337.492 191.858 337.643 192.53 337.63C194.04 337.52 195.01 337.52 195.33 336.33C195.65 335.14 195.87 333.96 196.19 332.99C196.479 332.237 196.59 331.428 196.516 330.625C196.441 329.822 196.183 329.047 195.76 328.36C194.57 326.31 190.36 326.93 189.02 330.72" fill="white"/>
<path d="M189.29 330.3C189.29 330.3 188.65 335.15 189.08 335.9C189.472 336.446 189.991 336.889 190.592 337.19C191.193 337.492 191.858 337.643 192.53 337.63C194.04 337.52 195.01 337.52 195.33 336.33C195.65 335.14 195.87 333.96 196.19 332.99C196.479 332.237 196.59 331.428 196.516 330.625C196.441 329.822 196.183 329.047 195.76 328.36C194.57 326.31 190.36 326.93 189.02 330.72" stroke="#263238" stroke-linecap="round" stroke-linejoin="round"/>
<path d="M199.28 266.86C199.28 266.86 199.61 281.34 199.61 282.99C199.61 284.64 193.69 296.16 193.69 299.12C193.69 302.08 189.02 330.72 189.02 330.72C189.389 331.274 189.875 331.74 190.443 332.085C191.011 332.431 191.649 332.647 192.31 332.72C193.482 332.723 194.628 332.374 195.6 331.72C195.6 331.72 204.6 302.43 207.18 299.47C209.76 296.51 214.42 284.66 214.42 284.66C214.42 284.66 217.42 302.43 217.06 304.73C216.7 307.03 213.77 316.91 214.06 321.85C214.35 326.79 216.69 350.15 216.69 350.15C217.223 350.834 217.939 351.352 218.755 351.645C219.572 351.937 220.454 351.991 221.3 351.8C223.236 351.218 224.879 349.924 225.9 348.18C225.9 348.18 229.85 316.58 230.18 313.29C230.51 310 234.13 289.92 234.46 283.01C234.79 276.1 234.79 266.55 234.79 266.55C228.225 267.851 221.44 267.508 215.04 265.55C209.787 263.912 204.725 261.717 199.94 259L199.28 266.86Z" fill="#263238" stroke="#263238" stroke-linecap="round" stroke-linejoin="round"/>
<path d="M225.9 170.87C226.389 172.549 226.776 174.255 227.06 175.98C227.029 176.833 226.952 177.685 226.83 178.53C226.83 178.53 228.69 179.46 228.69 180.62C228.69 181.78 227.06 183.87 227.06 183.87L226.37 189.44C226.13 191.29 224.74 193.38 223.37 193.84C222.078 194.126 220.748 194.207 219.43 194.08L218.73 201.73L205.5 196.86L206.43 189.86C206.43 189.86 203.43 181.74 204.81 177.1C206.19 172.46 212 171.3 215.48 170.1C218.96 168.9 225.9 170.87 225.9 170.87Z" fill="white" stroke="#263238" stroke-linecap="round" stroke-linejoin="round"/>
<path d="M205.72 192C205.72 192 198.72 183.88 198.29 176.22C197.86 168.56 200.61 163.69 205.29 162.07C209.97 160.45 212.48 160.9 212.48 160.9C212.48 160.9 209 160.21 212.72 158.58C216.44 156.95 220.61 159.74 220.61 159.74C220.61 159.74 218.29 157.89 221.07 158.12C223.85 158.35 225.01 159.74 227.57 165.55C230.13 171.36 223.16 173.43 222 173.9C220.84 174.37 224.09 175.76 223.62 176.9C223.15 178.04 220.62 179.9 220.62 179.9L221.31 185.01C221.31 185.01 220.15 186.86 219.46 185.7C218.77 184.54 218.53 182.22 216.46 183.61C214.39 185 216.92 189.61 217.62 189.61C218.32 189.61 215.99 192.16 212.98 193.09C211.419 193.667 209.718 193.747 208.11 193.32C207.641 193.281 207.186 193.143 206.774 192.915C206.362 192.688 206.003 192.376 205.72 192Z" fill="#263238" stroke="#263238" stroke-linecap="round" stroke-linejoin="round"/>
<path d="M202.7 196.86C203.102 196.074 203.752 195.443 204.549 195.065C205.347 194.687 206.247 194.583 207.11 194.77C210.11 195.47 216.39 198.02 217.78 199.88C219.17 201.74 220.78 207.3 220.78 207.3L203.61 199.64C203.61 199.64 201.07 198.48 202.7 196.86Z" fill="white" stroke="#263238" stroke-linecap="round" stroke-linejoin="round"/>
<path d="M189.63 259.38L190.12 261.83V267L189.38 269L188.16 269.49V268.26L188.89 272.93L187.42 274.15C187.42 274.15 184.23 269 183.49 267.53C182.75 266.06 183.49 259.34 183.49 259.34C183.49 259.34 184.72 260.61 189.63 259.38Z" fill="white" stroke="#263238" stroke-linecap="round" stroke-linejoin="round"/>
<path d="M233.51 213.88C233.51 213.88 226.93 210.58 220.02 206.31C213.11 202.04 203.23 197.42 200.6 195.77C197.97 194.12 195.78 191.91 191.06 195.12C181.94 201.3 187.11 219.12 187.11 221.44C187.11 223.76 182.17 238.89 182.5 241.85C182.83 244.81 183.5 259.29 183.5 259.29C183.5 259.29 184.81 261.93 189.75 260.61C189.75 260.61 193.04 245.47 193.37 241.19C193.864 237.3 194.632 233.451 195.67 229.67L198.97 248.43L195.67 263.9C195.67 263.9 197.98 271.47 205.55 274.1C213.12 276.73 221 279 230.22 275.75C233.84 274.46 239.77 269.5 239.77 269.5C239.77 269.5 236.77 235.93 236.77 234.28C236.77 232.63 236.15 221.12 233.51 213.88Z" fill="white"/>
<mask id="mask1_72_10" style="mask-type:luminance" maskUnits="userSpaceOnUse" x="182" y="193" width="58" height="85">
<path d="M233.51 213.88C233.51 213.88 226.93 210.58 220.02 206.31C213.11 202.04 203.23 197.42 200.6 195.77C197.97 194.12 195.78 191.91 191.06 195.12C181.94 201.3 187.11 219.12 187.11 221.44C187.11 223.76 182.17 238.89 182.5 241.85C182.83 244.81 183.5 259.29 183.5 259.29C183.5 259.29 184.81 261.93 189.75 260.61C189.75 260.61 193.04 245.47 193.37 241.19C193.864 237.3 194.632 233.451 195.67 229.67L198.97 248.43L195.67 263.9C195.67 263.9 197.98 271.47 205.55 274.1C213.12 276.73 221 279 230.22 275.75C233.84 274.46 239.77 269.5 239.77 269.5C239.77 269.5 236.77 235.93 236.77 234.28C236.77 232.63 236.15 221.12 233.51 213.88Z" fill="white"/>
</mask>
<g mask="url(#mask1_72_10)">
<path d="M230.22 275.75C233.84 274.46 239.77 269.5 239.77 269.5C239.77 269.5 238.49 255 237.61 244.6C237.395 244.51 237.158 244.482 236.928 244.521C236.698 244.56 236.484 244.664 236.31 244.82C234.04 246.71 234.8 263.38 233.31 262.63C231.82 261.88 224.6 241.4 218.91 233.07C213.22 224.74 220.81 237.99 219.29 242.54C217.77 247.09 202.29 216.39 193.9 212.6C185.51 208.81 192.38 219.42 192.38 219.42L193.91 237.48C194.61 233.67 195.69 229.67 195.69 229.67L198.99 248.43L195.69 263.9C195.69 263.9 198 271.47 205.57 274.1C213.14 276.73 221 279 230.22 275.75Z" fill="#6AFFAE"/>
<path opacity="0.5" d="M230.22 275.75C233.84 274.46 239.77 269.5 239.77 269.5C239.77 269.5 238.49 255 237.61 244.6C237.395 244.51 237.158 244.482 236.928 244.521C236.698 244.56 236.484 244.664 236.31 244.82C234.04 246.71 234.8 263.38 233.31 262.63C231.82 261.88 224.6 241.4 218.91 233.07C213.22 224.74 220.81 237.99 219.29 242.54C217.77 247.09 202.29 216.39 193.9 212.6C185.51 208.81 192.38 219.42 192.38 219.42L193.91 237.48C194.61 233.67 195.69 229.67 195.69 229.67L198.99 248.43L195.69 263.9C195.69 263.9 198 271.47 205.57 274.1C213.14 276.73 221 279 230.22 275.75Z" fill="white"/>
</g>
<path d="M233.51 213.88C233.51 213.88 226.93 210.58 220.02 206.31C213.11 202.04 203.23 197.42 200.6 195.77C197.97 194.12 195.78 191.91 191.06 195.12C181.94 201.3 187.11 219.12 187.11 221.44C187.11 223.76 182.17 238.89 182.5 241.85C182.83 244.81 183.5 259.29 183.5 259.29C183.5 259.29 184.81 261.93 189.75 260.61C189.75 260.61 193.04 245.47 193.37 241.19C193.864 237.3 194.632 233.451 195.67 229.67L198.97 248.43L195.67 263.9C195.67 263.9 197.98 271.47 205.55 274.1C213.12 276.73 221 279 230.22 275.75C233.84 274.46 239.77 269.5 239.77 269.5C239.77 269.5 236.77 235.93 236.77 234.28C236.77 232.63 236.15 221.12 233.51 213.88Z" stroke="#263238" stroke-linecap="round" stroke-linejoin="round"/>
<path d="M195.66 229.67C195.66 229.67 192.66 221.48 190.29 214.93" stroke="#263238" stroke-linecap="round" stroke-linejoin="round"/>
<path d="M226.6 214.53C226.6 214.53 231.54 213.22 233.51 213.88C235.48 214.54 245.36 240.88 245.36 240.88L258.53 224.76C258.53 224.76 260.53 222.12 264.45 227.76L247.67 259.35C247.67 259.35 245.67 262.35 242.4 259.68C239.13 257.01 222.65 231 222.65 231" fill="white"/>
<path d="M226.6 214.53C226.6 214.53 231.54 213.22 233.51 213.88C235.48 214.54 245.36 240.88 245.36 240.88L258.53 224.76C258.53 224.76 260.53 222.12 264.45 227.76L247.67 259.35C247.67 259.35 245.67 262.35 242.4 259.68C239.13 257.01 222.65 231 222.65 231" stroke="#263238" stroke-linecap="round" stroke-linejoin="round"/>
<path d="M313.75 304.67C313.75 304.67 313.47 316 316 319.41C318.53 322.82 321.61 321.87 321.61 318.19C321.61 314.51 320.21 306.82 318.24 303.45C316.27 300.08 313.75 304.67 313.75 304.67Z" fill="white" stroke="#263238" stroke-linecap="round" stroke-linejoin="round"/>
<path d="M281.21 284.54C281.21 284.54 272.52 290.15 271.96 292.95C271.4 295.75 282.05 292.67 285.14 288.74C288.23 284.81 285.14 283.42 281.21 284.54Z" fill="white" stroke="#263238" stroke-linecap="round" stroke-linejoin="round"/>
<path d="M277.85 227C277.85 227 276.72 246.91 278.13 253.93C279.54 260.95 279.25 286.18 279.25 286.18C279.25 286.18 281.25 286.74 282.89 287.3C284.53 287.86 287.1 285.06 287.1 285.06L291.31 253.65L294.11 241.59L300.84 268.23L313.75 306.09C313.75 306.09 314.59 306.94 317.39 307.22C317.742 307.287 318.104 307.281 318.454 307.203C318.803 307.124 319.133 306.975 319.423 306.764C319.712 306.553 319.956 306.285 320.137 305.977C320.319 305.668 320.436 305.325 320.48 304.97L316.55 263.74L313.75 228.68C313.75 228.68 302.53 228.68 295.52 227.84C290.556 227.058 285.734 225.548 281.21 223.36L277.57 222L277.85 227Z" fill="#263238" stroke="#263238" stroke-linecap="round" stroke-linejoin="round"/>
<path d="M292.15 160L277.85 164.77C275.32 165.61 275.04 168.97 275.04 172.9C275.04 176.83 277.28 209.64 276.72 213.57C276.16 217.5 275.6 229 275.6 229C277.817 231.098 280.154 233.065 282.6 234.89C284.5 236.015 286.592 236.778 288.77 237.14L290.77 231.25L293.29 238.54C293.29 238.54 300.58 240.78 306.47 239.94C312.36 239.1 317.13 229.85 317.13 229.85L314 211.05C314 211.05 323 176.28 320.73 172.05C318.46 167.82 309.79 162.79 303.9 160.83C300.097 159.666 296.079 159.383 292.15 160Z" fill="white"/>
<mask id="mask2_72_10" style="mask-type:luminance" maskUnits="userSpaceOnUse" x="275" y="159" width="47" height="82">
<path d="M292.15 160L277.85 164.77C275.32 165.61 275.04 168.97 275.04 172.9C275.04 176.83 277.28 209.64 276.72 213.57C276.16 217.5 275.6 229 275.6 229C277.817 231.098 280.154 233.065 282.6 234.89C284.5 236.015 286.592 236.778 288.77 237.14L290.77 231.25L293.29 238.54C293.29 238.54 300.58 240.78 306.47 239.94C312.36 239.1 317.13 229.85 317.13 229.85L314 211.05C314 211.05 323 176.28 320.73 172.05C318.46 167.82 309.79 162.79 303.9 160.83C300.097 159.666 296.079 159.383 292.15 160Z" fill="white"/>
</mask>
<g mask="url(#mask2_72_10)">
<path d="M315.14 187.21C315.14 187.21 312.48 194.79 310.21 203.51C307.94 212.23 300.36 227.76 299.6 228.9C298.84 230.04 283.68 209.57 284.82 212.6C285.752 215.458 286.51 218.37 287.09 221.32L276.09 192.43C276.6 201.88 277.09 211.56 276.76 213.58C276.2 217.51 275.64 229 275.64 229C277.857 231.098 280.194 233.065 282.64 234.89C284.54 236.015 286.632 236.778 288.81 237.14L290.81 231.25L293.33 238.54C293.33 238.54 300.62 240.78 306.51 239.94C312.4 239.1 317.17 229.85 317.17 229.85L314 211.05C314 211.05 316.52 201.28 318.55 191.47L315.14 187.21Z" fill="#6AFFAE"/>
<path opacity="0.5" d="M315.14 187.21C315.14 187.21 312.48 194.79 310.21 203.51C307.94 212.23 300.36 227.76 299.6 228.9C298.84 230.04 283.68 209.57 284.82 212.6C285.752 215.458 286.51 218.37 287.09 221.32L276.09 192.43C276.6 201.88 277.09 211.56 276.76 213.58C276.2 217.51 275.64 229 275.64 229C277.857 231.098 280.194 233.065 282.64 234.89C284.54 236.015 286.632 236.778 288.81 237.14L290.81 231.25L293.33 238.54C293.33 238.54 300.62 240.78 306.51 239.94C312.4 239.1 317.17 229.85 317.17 229.85L314 211.05C314 211.05 316.52 201.28 318.55 191.47L315.14 187.21Z" fill="white"/>
</g>
<path d="M292.15 160L277.85 164.77C275.32 165.61 275.04 168.97 275.04 172.9C275.04 176.83 277.28 209.64 276.72 213.57C276.16 217.5 275.6 229 275.6 229C277.817 231.098 280.154 233.065 282.6 234.89C284.5 236.015 286.592 236.778 288.77 237.14L290.77 231.25L293.29 238.54C293.29 238.54 300.58 240.78 306.47 239.94C312.36 239.1 317.13 229.85 317.13 229.85L314 211.05C314 211.05 323 176.28 320.73 172.05C318.46 167.82 309.79 162.79 303.9 160.83C300.097 159.666 296.079 159.383 292.15 160Z" stroke="#263238" stroke-linecap="round" stroke-linejoin="round"/>
<path d="M287.1 161.69L282.89 170.67L287.38 176.84L282.05 181.04L289.35 191.42" fill="white"/>
<path d="M287.1 161.69L282.89 170.67L287.38 176.84L282.05 181.04L289.35 191.42" stroke="#263238" stroke-linecap="round" stroke-linejoin="round"/>
<path d="M307.3 162.25L310.1 174.87L303.37 176.56L306.45 181.04C306.45 181.04 302.25 185.81 298.32 188.04C294.39 190.27 287.38 194.49 287.38 194.49L289.38 225.34" fill="white"/>
<path d="M307.3 162.25L310.1 174.87L303.37 176.56L306.45 181.04C306.45 181.04 302.25 185.81 298.32 188.04C294.39 190.27 287.38 194.49 287.38 194.49L289.38 225.34" stroke="#263238" stroke-linecap="round" stroke-linejoin="round"/>
<path d="M290.47 160C290.47 160 289.63 169.82 289.63 175.43C289.79 179.773 290.352 184.091 291.31 188.33C291.31 188.33 299.44 176.83 301.97 172.06C304.5 167.29 305.61 163.06 303.97 160.84C302.33 158.62 300.88 158.84 300.88 158.84C300.88 158.84 293 156.64 290.47 160Z" fill="white" stroke="#263238" stroke-linecap="round" stroke-linejoin="round"/>
<path d="M291.59 173.75L292.15 176L290.19 182.17L291.31 188.34L294.95 183.01L294.39 176.56L296.36 174.31L294.95 170.11L291.59 173.75Z" fill="#263238"/>
<path d="M289.91 174.31L294.39 171.79L298.88 176.28" stroke="#263238" stroke-linecap="round" stroke-linejoin="round"/>
<path d="M317.11 233.77L315.43 239.66L315.99 244.15H317.11L317.67 241.63L317.95 248.08L320.76 248.36L323.84 240.78V234.33L317.11 233.77Z" fill="white" stroke="#263238" stroke-linecap="round" stroke-linejoin="round"/>
<path d="M318 174.87C318 174.87 313.23 181.87 312.95 185.25C312.67 188.63 313.8 192.54 314.36 195.35C314.92 198.16 314.64 211.62 315.76 216.35C316.88 221.08 317.16 233.74 317.16 233.74C317.16 233.74 319.16 236.55 323.89 234.3C323.89 234.3 325.89 212.71 325.3 201.49C324.941 194.655 323.81 187.882 321.93 181.3C321.93 181.3 323.33 173.72 320.53 170.92" fill="white"/>
<path d="M318 174.87C318 174.87 313.23 181.87 312.95 185.25C312.67 188.63 313.8 192.54 314.36 195.35C314.92 198.16 314.64 211.62 315.76 216.35C316.88 221.08 317.16 233.74 317.16 233.74C317.16 233.74 319.16 236.55 323.89 234.3C323.89 234.3 325.89 212.71 325.3 201.49C324.941 194.655 323.81 187.882 321.93 181.3C321.93 181.3 323.33 173.72 320.53 170.92" stroke="#263238" stroke-linecap="round" stroke-linejoin="round"/>
<path d="M293 161.69C293 161.69 292.72 171.79 294.4 171.79C296.08 171.79 300.29 160.85 300.85 158.89C301.41 156.93 293 161.69 293 161.69Z" fill="white" stroke="#263238" stroke-linecap="round" stroke-linejoin="round"/>
<path d="M287.24 142C287.24 142 286.48 151.8 288.24 155.82C290 159.84 291.24 164.82 294.02 165.11C296.8 165.4 302.81 157.58 302.81 157.58L303.56 155.58C305.476 152.76 306.52 149.439 306.56 146.03C306.58 140.46 292 136.94 287.24 142Z" fill="white" stroke="#263238" stroke-linecap="round" stroke-linejoin="round"/>
<path d="M291.73 150.39L291.11 156.23L293.57 156.84" fill="white"/>
<path d="M291.73 150.39L291.11 156.23L293.57 156.84" stroke="#263238" stroke-width="0.75" stroke-linecap="round" stroke-linejoin="round"/>
<path d="M290.08 150.41C290.08 151.06 289.91 151.59 289.7 151.59C289.49 151.59 289.33 151.06 289.33 150.41C289.33 149.76 289.5 149.22 289.7 149.22C289.9 149.22 290.08 149.75 290.08 150.41Z" fill="#263238"/>
<path d="M295.43 151.9C295.43 152.56 295.27 153.09 295.06 153.09C294.85 153.09 294.69 152.56 294.69 151.9C294.69 151.24 294.85 150.72 295.06 150.72C295.27 150.72 295.43 151.25 295.43 151.9Z" fill="#263238"/>
<path d="M293.69 149.16C293.69 149.16 296.55 148.41 297.8 150.53L293.69 149.16Z" fill="white"/>
<path d="M293.69 149.16C293.69 149.16 296.55 148.41 297.8 150.53" stroke="#263238" stroke-width="0.75" stroke-linecap="round" stroke-linejoin="round"/>
<path d="M288.46 147.92C288.907 147.714 289.416 147.69 289.881 147.853C290.345 148.015 290.728 148.351 290.95 148.79" fill="white"/>
<path d="M288.46 147.92C288.907 147.714 289.416 147.69 289.881 147.853C290.345 148.015 290.728 148.351 290.95 148.79" stroke="#263238" stroke-width="0.75" stroke-linecap="round" stroke-linejoin="round"/>
<path d="M291.2 158.75C291.589 159.168 292.106 159.444 292.669 159.535C293.233 159.626 293.81 159.525 294.31 159.25" fill="white"/>
<path d="M291.2 158.75C291.589 159.168 292.106 159.444 292.669 159.535C293.233 159.626 293.81 159.525 294.31 159.25" stroke="#263238" stroke-width="0.75" stroke-linecap="round" stroke-linejoin="round"/>
<path d="M291.51 131.67C291.51 131.67 282.97 133.42 283.97 138.67C284.97 143.92 293.51 145.45 296.03 145.45C297.891 145.389 299.741 145.138 301.55 144.7C301.55 144.7 299.04 147.46 300.55 148.7C302.06 149.94 302.81 150.7 302.81 150.7C302.81 150.7 304.57 151.96 304.57 150.45C304.662 149.17 304.914 147.907 305.32 146.69L307.58 146.43C307.58 146.43 310.58 140.91 309.58 137.14C308.58 133.37 301.3 125.89 291.51 131.67Z" fill="#263238" stroke="#263238" stroke-linecap="round" stroke-linejoin="round"/>
<path d="M302.81 150.75C302.81 150.75 304.57 143.97 307.58 146.48C310.59 148.99 305.07 154.02 303.81 153.77" fill="white"/>
<path d="M302.81 150.75C302.81 150.75 304.57 143.97 307.58 146.48C310.59 148.99 305.07 154.02 303.81 153.77" stroke="#263238" stroke-linecap="round" stroke-linejoin="round"/>
</svg>
